<svg version="1.1" xmlns="http://www.w3.org/2000/svg" xmlns:xlink="http://www.w3.org/1999/xlink" width="1102.40001642704" height="615.2000091671944"><defs/><g><rect fill="#FFFFFF" stroke="none" x="0" y="0" width="300" height="240"/><path fill="white" stroke="none" paint-order="stroke fill markers" d=" M 0 0 L 300 0 L 300 240 L 0 240 L 0 0 Z"/><path fill="none" stroke="none"/><text fill="black" stroke="none" font-family="Georgia" font-size="14px" font-style="normal" font-weight="normal" text-decoration="normal" x="70" y="65" text-anchor="start" dominant-baseline="alphabetic">Bit</text><path fill="white" stroke="black" paint-order="fill stroke markers" d=" M 150.5 120.5 L 190.5 120.5 L 190.5 160.5 L 150.5 160.5 L 150.5 120.5 Z" stroke-miterlimit="10" stroke-width="3" stroke-dasharray=""/><path fill="none" stroke="rgb(0,0,0)" paint-order="fill stroke markers" d=" M 150.5 145.5 L 155.5 150.5 L 150.5 155.5" stroke-opacity="1" stroke-miterlimit="10" stroke-width="3" stroke-dasharray=""/><path fill="none" stroke="none"/><text fill="green" stroke="none" font-family="Georgia" font-size="20px" font-style="normal" font-weight="normal" text-decoration="normal" x="170" y="145" text-anchor="middle" dominant-baseline="alphabetic">0</text><path fill="white" stroke="rgb(0,0,0)" paint-order="fill stroke markers" d=" M 130.5 140.5 L 150.5 140.5 L 150.5 160.5 L 130.5 160.5 L 130.5 140.5 Z" stroke-opacity="1" stroke-miterlimit="10" stroke-dasharray=""/><path fill="none" stroke="none"/><text fill="green" stroke="none" font-family="Georgia" font-size="20px" font-style="normal" font-weight="normal" text-decoration="normal" x="140" y="155" text-anchor="middle" dominant-baseline="alphabetic">1</text><path fill="none" stroke="rgb(0,0,0)" paint-order="fill stroke markers" d=" M 100.5 145.5 L 100.5 150.5" stroke-opacity="1" stroke-miterlimit="10" stroke-dasharray=""/><path fill="white" stroke="rgb(0,0,0)" paint-order="fill stroke markers" d=" M 90.5 110.5 L 90.5 150.5 L 110.5 140.5 L 110.5 120.5 Z" stroke-opacity="1" stroke-miterlimit="10" stroke-width="3" stroke-dasharray=""/><path fill="none" stroke="none"/><text fill="black" stroke="none" font-family="Georgia" font-size="10px" font-style="normal" font-weight="normal" text-decoration="normal" x="97" y="122" text-anchor="middle" dominant-baseline="alphabetic">0</text><text fill="black" stroke="none" font-family="Georgia" font-size="10px" font-style="normal" font-weight="normal" text-decoration="normal" x="97" y="142" text-anchor="middle" dominant-baseline="alphabetic">1</text><path fill="none" stroke="none"/><text fill="black" stroke="none" font-family="Georgia" font-size="14px" font-style="normal" font-weight="normal" text-decoration="normal" x="260" y="135" text-anchor="start" dominant-baseline="alphabetic">out</text><path fill="white" stroke="blue" paint-order="fill stroke markers" d=" M 230.5 120.5 L 250.5 120.5 L 250.5 140.5 L 230.5 140.5 L 230.5 120.5 Z" stroke-miterlimit="10" stroke-width="3" stroke-dasharray=""/><path fill="none" stroke="none"/><text fill="green" stroke="none" font-family="Georgia" font-size="20px" font-style="normal" font-weight="normal" text-decoration="normal" x="240" y="135" text-anchor="middle" dominant-baseline="alphabetic">0</text><path fill="white" stroke="black" paint-order="fill stroke markers" d=" M 50.5 130.5 L 70.5 130.5 L 70.5 150.5 L 50.5 150.5 L 50.5 130.5 Z" stroke-miterlimit="10" stroke-width="3" stroke-dasharray=""/><path fill="none" stroke="none"/><text fill="black" stroke="none" font-family="Georgia" font-size="14px" font-style="normal" font-weight="normal" text-decoration="normal" x="40" y="145" text-anchor="end" dominant-baseline="alphabetic">in</text><path fill="none" stroke="none"/><path fill="none" stroke="none"/><text fill="green" stroke="none" font-family="Georgia" font-size="20px" font-style="normal" font-weight="normal" text-decoration="normal" x="60" y="145" text-anchor="middle" dominant-baseline="alphabetic">0</text><path fill="white" stroke="black" paint-order="fill stroke markers" d=" M 90.5 170.5 L 110.5 170.5 L 110.5 190.5 L 90.5 190.5 L 90.5 170.5 Z" stroke-miterlimit="10" stroke-width="3" stroke-dasharray=""/><path fill="none" stroke="none"/><text fill="black" stroke="none" font-family="Georgia" font-size="14px" font-style="normal" font-weight="normal" text-decoration="normal" x="100" y="205" text-anchor="middle" dominant-baseline="alphabetic">load</text><path fill="none" stroke="none"/><path fill="none" stroke="none"/><text fill="green" stroke="none" font-family="Georgia" font-size="20px" font-style="normal" font-weight="normal" text-decoration="normal" x="100" y="185" text-anchor="middle" dominant-baseline="alphabetic">1</text><path fill="none" stroke="DarkGreen" paint-order="fill stroke markers" d=" M 90 120.5 L 70 120.5" stroke-linecap="round" stroke-miterlimit="10" stroke-width="3" stroke-dasharray=""/><path fill="none" stroke="DarkGreen" paint-order="fill stroke markers" d=" M 90 140.5 L 70 140.5" stroke-linecap="round" stroke-miterlimit="10" stroke-width="3" stroke-dasharray=""/><path fill="none" stroke="DarkGreen" paint-order="fill stroke markers" d=" M 110 130.5 L 150 130.5" stroke-linecap="round" stroke-miterlimit="10" stroke-width="3" stroke-dasharray=""/><path fill="none" stroke="Lime" paint-order="fill stroke markers" d=" M 100.5 150 L 100.5 170" stroke-linecap="round" stroke-miterlimit="10" stroke-width="3" stroke-dasharray=""/><path fill="none" stroke="DarkGreen" paint-order="fill stroke markers" d=" M 210.5 130 L 210.5 100" stroke-linecap="round" stroke-miterlimit="10" stroke-width="3" stroke-dasharray=""/><path fill="none" stroke="DarkGreen" paint-order="fill stroke markers" d=" M 210 130.5 L 190 130.5" stroke-linecap="round" stroke-miterlimit="10" stroke-width="3" stroke-dasharray=""/><path fill="none" stroke="DarkGreen" paint-order="fill stroke markers" d=" M 210 130.5 L 230 130.5" stroke-linecap="round" stroke-miterlimit="10" stroke-width="3" stroke-dasharray=""/><path fill="none" stroke="DarkGreen" paint-order="fill stroke markers" d=" M 210 100.5 L 70 100.5" stroke-linecap="round" stroke-miterlimit="10" stroke-width="3" stroke-dasharray=""/><path fill="none" stroke="Lime" paint-order="fill stroke markers" d=" M 150.5 150.5 L 150.5 150.5" stroke-linecap="round" stroke-miterlimit="10" stroke-width="3" stroke-dasharray=""/><path fill="none" stroke="DarkGreen" paint-order="fill stroke markers" d=" M 70.5 100 L 70.5 120" stroke-linecap="round" stroke-miterlimit="10" stroke-width="3" stroke-dasharray=""/><path fill="green" stroke="none" paint-order="stroke fill markers" d=" M 93 120 A 3 3 0 1 1 92.99999850000013 119.9970000005 Z"/><path fill="green" stroke="none" paint-order="stroke fill markers" d=" M 93 140 A 3 3 0 1 1 92.99999850000013 139.9970000005 Z"/><path fill="green" stroke="none" paint-order="stroke fill markers" d=" M 113 130 A 3 3 0 1 1 112.99999850000013 129.9970000005 Z"/><path fill="green" stroke="none" paint-order="stroke fill markers" d=" M 103 150 A 3 3 0 1 1 102.99999850000013 149.9970000005 Z"/><path fill="green" stroke="none" paint-order="stroke fill markers" d=" M 213 130 A 3 3 0 1 1 212.99999850000012 129.9970000005 Z"/><path fill="green" stroke="none" paint-order="stroke fill markers" d=" M 213 100 A 3 3 0 1 1 212.99999850000012 99.9970000005 Z"/><path fill="green" stroke="none" paint-order="stroke fill markers" d=" M 73 140 A 3 3 0 1 1 72.99999850000013 139.9970000005 Z"/><path fill="green" stroke="none" paint-order="stroke fill markers" d=" M 103 170 A 3 3 0 1 1 102.99999850000013 169.9970000005 Z"/><path fill="green" stroke="none" paint-order="stroke fill markers" d=" M 153 150 A 3 3 0 1 1 152.99999850000012 149.9970000005 Z"/><path fill="green" stroke="none" paint-order="stroke fill markers" d=" M 153 130 A 3 3 0 1 1 152.99999850000012 129.9970000005 Z"/><path fill="green" stroke="none" paint-order="stroke fill markers" d=" M 193 130 A 3 3 0 1 1 192.99999850000012 129.9970000005 Z"/><path fill="green" stroke="none" paint-order="stroke fill markers" d=" M 193 150 A 3 3 0 1 1 192.99999850000012 149.9970000005 Z"/><path fill="green" stroke="none" paint-order="stroke fill markers" d=" M 73 100 A 3 3 0 1 1 72.99999850000013 99.9970000005 Z"/><path fill="green" stroke="none" paint-order="stroke fill markers" d=" M 73 120 A 3 3 0 1 1 72.99999850000013 119.9970000005 Z"/><path fill="green" stroke="none" paint-order="stroke fill markers" d=" M 153 150 A 3 3 0 1 1 152.99999850000012 149.9970000005 Z"/><path fill="green" stroke="none" paint-order="stroke fill markers" d=" M 233 130 A 3 3 0 1 1 232.99999850000012 129.9970000005 Z"/></g></svg>