<svg version="1.1" xmlns="http://www.w3.org/2000/svg" xmlns:xlink="http://www.w3.org/1999/xlink" width="1036" height="594"><defs/><g><rect fill="#FFFFFF" stroke="none" x="0" y="0" width="290" height="300"/><path fill="none" stroke="none"/><text fill="black" stroke="none" font-family="Georgia" font-size="14px" font-style="normal" font-weight="normal" text-decoration="normal" x="60" y="65" text-anchor="start" dominant-baseline="alphabetic">CustomOr8In</text><path fill="white" stroke="rgb(0,0,0)" paint-order="fill stroke markers" d=" M 130 130 C 140 130 155 140 160 150 C 155 160 140 170 130 170 C 140 150 140 150 130 130 Z" stroke-opacity="1" stroke-miterlimit="10" stroke-width="3" stroke-dasharray=""/><path fill="white" stroke="rgb(0,0,0)" paint-order="fill stroke markers" d=" M 130 170 C 140 170 155 180 160 190 C 155 200 140 210 130 210 C 140 190 140 190 130 170 Z" stroke-opacity="1" stroke-miterlimit="10" stroke-width="3" stroke-dasharray=""/><path fill="white" stroke="rgb(0,0,0)" paint-order="fill stroke markers" d=" M 180 150 C 190 150 205 160 210 170 C 205 180 190 190 180 190 C 190 170 190 170 180 150 Z" stroke-opacity="1" stroke-miterlimit="10" stroke-width="3" stroke-dasharray=""/><path fill="white" stroke="rgb(0,0,0)" paint-order="fill stroke markers" d=" M 80 90 C 90 90 105 100 110 110 C 105 120 90 130 80 130 C 90 110 90 110 80 90 Z" stroke-opacity="1" stroke-miterlimit="10" stroke-width="3" stroke-dasharray=""/><path fill="white" stroke="rgb(0,0,0)" paint-order="fill stroke markers" d=" M 80 130 C 90 130 105 140 110 150 C 105 160 90 170 80 170 C 90 150 90 150 80 130 Z" stroke-opacity="1" stroke-miterlimit="10" stroke-width="3" stroke-dasharray=""/><path fill="white" stroke="rgb(0,0,0)" paint-order="fill stroke markers" d=" M 80 170 C 90 170 105 180 110 190 C 105 200 90 210 80 210 C 90 190 90 190 80 170 Z" stroke-opacity="1" stroke-miterlimit="10" stroke-width="3" stroke-dasharray=""/><path fill="white" stroke="rgb(0,0,0)" paint-order="fill stroke markers" d=" M 80 210 C 90 210 105 220 110 230 C 105 240 90 250 80 250 C 90 230 90 230 80 210 Z" stroke-opacity="1" stroke-miterlimit="10" stroke-width="3" stroke-dasharray=""/><path fill="none" stroke="none"/><text fill="black" stroke="none" font-family="Georgia" font-size="14px" font-style="normal" font-weight="normal" text-decoration="normal" x="250" y="175" text-anchor="start" dominant-baseline="alphabetic">out</text><path fill="white" stroke="blue" paint-order="fill stroke markers" d=" M 220.5 160.5 L 240.5 160.5 L 240.5 180.5 L 220.5 180.5 L 220.5 160.5 Z" stroke-miterlimit="10" stroke-width="3" stroke-dasharray=""/><path fill="none" stroke="none"/><text fill="green" stroke="none" font-family="Georgia" font-size="20px" font-style="normal" font-weight="normal" text-decoration="normal" x="230" y="175" text-anchor="middle" dominant-baseline="alphabetic">1</text><path fill="white" stroke="black" paint-order="fill stroke markers" d=" M 50.5 90.5 L 70.5 90.5 L 70.5 110.5 L 50.5 110.5 L 50.5 90.5 Z" stroke-miterlimit="10" stroke-width="3" stroke-dasharray=""/><path fill="none" stroke="none"/><text fill="black" stroke="none" font-family="Georgia" font-size="14px" font-style="normal" font-weight="normal" text-decoration="normal" x="40" y="105" text-anchor="end" dominant-baseline="alphabetic">a</text><path fill="none" stroke="none"/><path fill="none" stroke="none"/><text fill="green" stroke="none" font-family="Georgia" font-size="20px" font-style="normal" font-weight="normal" text-decoration="normal" x="60" y="105" text-anchor="middle" dominant-baseline="alphabetic">1</text><path fill="white" stroke="black" paint-order="fill stroke markers" d=" M 50.5 110.5 L 70.5 110.5 L 70.5 130.5 L 50.5 130.5 L 50.5 110.5 Z" stroke-miterlimit="10" stroke-width="3" stroke-dasharray=""/><path fill="none" stroke="none"/><text fill="black" stroke="none" font-family="Georgia" font-size="14px" font-style="normal" font-weight="normal" text-decoration="normal" x="40" y="125" text-anchor="end" dominant-baseline="alphabetic">b</text><path fill="none" stroke="none"/><path fill="none" stroke="none"/><text fill="green" stroke="none" font-family="Georgia" font-size="20px" font-style="normal" font-weight="normal" text-decoration="normal" x="60" y="125" text-anchor="middle" dominant-baseline="alphabetic">1</text><path fill="white" stroke="black" paint-order="fill stroke markers" d=" M 50.5 130.5 L 70.5 130.5 L 70.5 150.5 L 50.5 150.5 L 50.5 130.5 Z" stroke-miterlimit="10" stroke-width="3" stroke-dasharray=""/><path fill="none" stroke="none"/><text fill="black" stroke="none" font-family="Georgia" font-size="14px" font-style="normal" font-weight="normal" text-decoration="normal" x="40" y="145" text-anchor="end" dominant-baseline="alphabetic">c</text><path fill="none" stroke="none"/><path fill="none" stroke="none"/><text fill="green" stroke="none" font-family="Georgia" font-size="20px" font-style="normal" font-weight="normal" text-decoration="normal" x="60" y="145" text-anchor="middle" dominant-baseline="alphabetic">1</text><path fill="white" stroke="black" paint-order="fill stroke markers" d=" M 50.5 150.5 L 70.5 150.5 L 70.5 170.5 L 50.5 170.5 L 50.5 150.5 Z" stroke-miterlimit="10" stroke-width="3" stroke-dasharray=""/><path fill="none" stroke="none"/><text fill="black" stroke="none" font-family="Georgia" font-size="14px" font-style="normal" font-weight="normal" text-decoration="normal" x="40" y="165" text-anchor="end" dominant-baseline="alphabetic">d</text><path fill="none" stroke="none"/><path fill="none" stroke="none"/><text fill="green" stroke="none" font-family="Georgia" font-size="20px" font-style="normal" font-weight="normal" text-decoration="normal" x="60" y="165" text-anchor="middle" dominant-baseline="alphabetic">0</text><path fill="white" stroke="black" paint-order="fill stroke markers" d=" M 50.5 170.5 L 70.5 170.5 L 70.5 190.5 L 50.5 190.5 L 50.5 170.5 Z" stroke-miterlimit="10" stroke-width="3" stroke-dasharray=""/><path fill="none" stroke="none"/><text fill="black" stroke="none" font-family="Georgia" font-size="14px" font-style="normal" font-weight="normal" text-decoration="normal" x="40" y="185" text-anchor="end" dominant-baseline="alphabetic">e</text><path fill="none" stroke="none"/><path fill="none" stroke="none"/><text fill="green" stroke="none" font-family="Georgia" font-size="20px" font-style="normal" font-weight="normal" text-decoration="normal" x="60" y="185" text-anchor="middle" dominant-baseline="alphabetic">1</text><path fill="white" stroke="black" paint-order="fill stroke markers" d=" M 50.5 190.5 L 70.5 190.5 L 70.5 210.5 L 50.5 210.5 L 50.5 190.5 Z" stroke-miterlimit="10" stroke-width="3" stroke-dasharray=""/><path fill="none" stroke="none"/><text fill="black" stroke="none" font-family="Georgia" font-size="14px" font-style="normal" font-weight="normal" text-decoration="normal" x="40" y="205" text-anchor="end" dominant-baseline="alphabetic">f</text><path fill="none" stroke="none"/><path fill="none" stroke="none"/><text fill="green" stroke="none" font-family="Georgia" font-size="20px" font-style="normal" font-weight="normal" text-decoration="normal" x="60" y="205" text-anchor="middle" dominant-baseline="alphabetic">1</text><path fill="white" stroke="black" paint-order="fill stroke markers" d=" M 50.5 210.5 L 70.5 210.5 L 70.5 230.5 L 50.5 230.5 L 50.5 210.5 Z" stroke-miterlimit="10" stroke-width="3" stroke-dasharray=""/><path fill="none" stroke="none"/><text fill="black" stroke="none" font-family="Georgia" font-size="14px" font-style="normal" font-weight="normal" text-decoration="normal" x="40" y="225" text-anchor="end" dominant-baseline="alphabetic">g</text><path fill="none" stroke="none"/><path fill="none" stroke="none"/><text fill="green" stroke="none" font-family="Georgia" font-size="20px" font-style="normal" font-weight="normal" text-decoration="normal" x="60" y="225" text-anchor="middle" dominant-baseline="alphabetic">1</text><path fill="white" stroke="black" paint-order="fill stroke markers" d=" M 50.5 230.5 L 70.5 230.5 L 70.5 250.5 L 50.5 250.5 L 50.5 230.5 Z" stroke-miterlimit="10" stroke-width="3" stroke-dasharray=""/><path fill="none" stroke="none"/><text fill="black" stroke="none" font-family="Georgia" font-size="14px" font-style="normal" font-weight="normal" text-decoration="normal" x="40" y="245" text-anchor="end" dominant-baseline="alphabetic">h</text><path fill="none" stroke="none"/><path fill="none" stroke="none"/><text fill="green" stroke="none" font-family="Georgia" font-size="20px" font-style="normal" font-weight="normal" text-decoration="normal" x="60" y="245" text-anchor="middle" dominant-baseline="alphabetic">1</text><path fill="none" stroke="Lime" paint-order="fill stroke markers" d=" M 70 100.5 L 80 100.5" stroke-linecap="round" stroke-miterlimit="10" stroke-width="3" stroke-dasharray=""/><path fill="none" stroke="Lime" paint-order="fill stroke markers" d=" M 70 120.5 L 80 120.5" stroke-linecap="round" stroke-miterlimit="10" stroke-width="3" stroke-dasharray=""/><path fill="none" stroke="Lime" paint-order="fill stroke markers" d=" M 70 140.5 L 80 140.5" stroke-linecap="round" stroke-miterlimit="10" stroke-width="3" stroke-dasharray=""/><path fill="none" stroke="DarkGreen" paint-order="fill stroke markers" d=" M 70 160.5 L 80 160.5" stroke-linecap="round" stroke-miterlimit="10" stroke-width="3" stroke-dasharray=""/><path fill="none" stroke="Lime" paint-order="fill stroke markers" d=" M 220 170.5 L 210 170.5" stroke-linecap="round" stroke-miterlimit="10" stroke-width="3" stroke-dasharray=""/><path fill="none" stroke="Lime" paint-order="fill stroke markers" d=" M 130 140.5 L 120 140.5" stroke-linecap="round" stroke-miterlimit="10" stroke-width="3" stroke-dasharray=""/><path fill="none" stroke="Lime" paint-order="fill stroke markers" d=" M 130 160.5 L 120 160.5" stroke-linecap="round" stroke-miterlimit="10" stroke-width="3" stroke-dasharray=""/><path fill="none" stroke="Lime" paint-order="fill stroke markers" d=" M 160 150.5 L 170 150.5" stroke-linecap="round" stroke-miterlimit="10" stroke-width="3" stroke-dasharray=""/><path fill="none" stroke="Lime" paint-order="fill stroke markers" d=" M 130 180.5 L 120 180.5" stroke-linecap="round" stroke-miterlimit="10" stroke-width="3" stroke-dasharray=""/><path fill="none" stroke="Lime" paint-order="fill stroke markers" d=" M 130 200.5 L 120 200.5" stroke-linecap="round" stroke-miterlimit="10" stroke-width="3" stroke-dasharray=""/><path fill="none" stroke="Lime" paint-order="fill stroke markers" d=" M 160 190.5 L 170 190.5" stroke-linecap="round" stroke-miterlimit="10" stroke-width="3" stroke-dasharray=""/><path fill="none" stroke="Lime" paint-order="fill stroke markers" d=" M 180 160.5 L 170 160.5" stroke-linecap="round" stroke-miterlimit="10" stroke-width="3" stroke-dasharray=""/><path fill="none" stroke="Lime" paint-order="fill stroke markers" d=" M 180 180.5 L 170 180.5" stroke-linecap="round" stroke-miterlimit="10" stroke-width="3" stroke-dasharray=""/><path fill="none" stroke="Lime" paint-order="fill stroke markers" d=" M 170.5 150 L 170.5 160" stroke-linecap="round" stroke-miterlimit="10" stroke-width="3" stroke-dasharray=""/><path fill="none" stroke="Lime" paint-order="fill stroke markers" d=" M 170.5 190 L 170.5 180" stroke-linecap="round" stroke-miterlimit="10" stroke-width="3" stroke-dasharray=""/><path fill="none" stroke="Lime" paint-order="fill stroke markers" d=" M 110 110.5 L 120 110.5" stroke-linecap="round" stroke-miterlimit="10" stroke-width="3" stroke-dasharray=""/><path fill="none" stroke="Lime" paint-order="fill stroke markers" d=" M 70 180.5 L 80 180.5" stroke-linecap="round" stroke-miterlimit="10" stroke-width="3" stroke-dasharray=""/><path fill="none" stroke="Lime" paint-order="fill stroke markers" d=" M 70 200.5 L 80 200.5" stroke-linecap="round" stroke-miterlimit="10" stroke-width="3" stroke-dasharray=""/><path fill="none" stroke="Lime" paint-order="fill stroke markers" d=" M 70 220.5 L 80 220.5" stroke-linecap="round" stroke-miterlimit="10" stroke-width="3" stroke-dasharray=""/><path fill="none" stroke="Lime" paint-order="fill stroke markers" d=" M 70 240.5 L 80 240.5" stroke-linecap="round" stroke-miterlimit="10" stroke-width="3" stroke-dasharray=""/><path fill="none" stroke="Lime" paint-order="fill stroke markers" d=" M 110 150.5 L 120 150.5" stroke-linecap="round" stroke-miterlimit="10" stroke-width="3" stroke-dasharray=""/><path fill="none" stroke="Lime" paint-order="fill stroke markers" d=" M 110 190.5 L 120 190.5" stroke-linecap="round" stroke-miterlimit="10" stroke-width="3" stroke-dasharray=""/><path fill="none" stroke="Lime" paint-order="fill stroke markers" d=" M 110 230.5 L 120 230.5" stroke-linecap="round" stroke-miterlimit="10" stroke-width="3" stroke-dasharray=""/><path fill="none" stroke="Lime" paint-order="fill stroke markers" d=" M 120.5 110 L 120.5 140" stroke-linecap="round" stroke-miterlimit="10" stroke-width="3" stroke-dasharray=""/><path fill="none" stroke="Lime" paint-order="fill stroke markers" d=" M 120.5 150 L 120.5 160" stroke-linecap="round" stroke-miterlimit="10" stroke-width="3" stroke-dasharray=""/><path fill="none" stroke="Lime" paint-order="fill stroke markers" d=" M 120.5 190 L 120.5 180" stroke-linecap="round" stroke-miterlimit="10" stroke-width="3" stroke-dasharray=""/><path fill="none" stroke="Lime" paint-order="fill stroke markers" d=" M 120.5 230 L 120.5 200" stroke-linecap="round" stroke-miterlimit="10" stroke-width="3" stroke-dasharray=""/><path fill="green" stroke="none" paint-order="stroke fill markers" d=" M 73 100 A 3 3 0 1 1 72.99999850000013 99.9970000005 Z"/><path fill="green" stroke="none" paint-order="stroke fill markers" d=" M 73 120 A 3 3 0 1 1 72.99999850000013 119.9970000005 Z"/><path fill="green" stroke="none" paint-order="stroke fill markers" d=" M 73 140 A 3 3 0 1 1 72.99999850000013 139.9970000005 Z"/><path fill="green" stroke="none" paint-order="stroke fill markers" d=" M 73 160 A 3 3 0 1 1 72.99999850000013 159.9970000005 Z"/><path fill="green" stroke="none" paint-order="stroke fill markers" d=" M 223 170 A 3 3 0 1 1 222.99999850000012 169.9970000005 Z"/><path fill="green" stroke="none" paint-order="stroke fill markers" d=" M 133 140 A 3 3 0 1 1 132.99999850000012 139.9970000005 Z"/><path fill="green" stroke="none" paint-order="stroke fill markers" d=" M 133 160 A 3 3 0 1 1 132.99999850000012 159.9970000005 Z"/><path fill="green" stroke="none" paint-order="stroke fill markers" d=" M 163 150 A 3 3 0 1 1 162.99999850000012 149.9970000005 Z"/><path fill="green" stroke="none" paint-order="stroke fill markers" d=" M 133 180 A 3 3 0 1 1 132.99999850000012 179.9970000005 Z"/><path fill="green" stroke="none" paint-order="stroke fill markers" d=" M 133 200 A 3 3 0 1 1 132.99999850000012 199.9970000005 Z"/><path fill="green" stroke="none" paint-order="stroke fill markers" d=" M 163 190 A 3 3 0 1 1 162.99999850000012 189.9970000005 Z"/><path fill="green" stroke="none" paint-order="stroke fill markers" d=" M 183 160 A 3 3 0 1 1 182.99999850000012 159.9970000005 Z"/><path fill="green" stroke="none" paint-order="stroke fill markers" d=" M 183 180 A 3 3 0 1 1 182.99999850000012 179.9970000005 Z"/><path fill="green" stroke="none" paint-order="stroke fill markers" d=" M 213 170 A 3 3 0 1 1 212.99999850000012 169.9970000005 Z"/><path fill="lightgreen" stroke="none" paint-order="stroke fill markers" d=" M 173 150 A 3 3 0 1 1 172.99999850000012 149.9970000005 Z"/><path fill="lightgreen" stroke="none" paint-order="stroke fill markers" d=" M 173 160 A 3 3 0 1 1 172.99999850000012 159.9970000005 Z"/><path fill="lightgreen" stroke="none" paint-order="stroke fill markers" d=" M 173 190 A 3 3 0 1 1 172.99999850000012 189.9970000005 Z"/><path fill="lightgreen" stroke="none" paint-order="stroke fill markers" d=" M 173 180 A 3 3 0 1 1 172.99999850000012 179.9970000005 Z"/><path fill="green" stroke="none" paint-order="stroke fill markers" d=" M 83 100 A 3 3 0 1 1 82.99999850000013 99.9970000005 Z"/><path fill="green" stroke="none" paint-order="stroke fill markers" d=" M 83 120 A 3 3 0 1 1 82.99999850000013 119.9970000005 Z"/><path fill="green" stroke="none" paint-order="stroke fill markers" d=" M 113 110 A 3 3 0 1 1 112.99999850000013 109.9970000005 Z"/><path fill="green" stroke="none" paint-order="stroke fill markers" d=" M 73 180 A 3 3 0 1 1 72.99999850000013 179.9970000005 Z"/><path fill="green" stroke="none" paint-order="stroke fill markers" d=" M 73 200 A 3 3 0 1 1 72.99999850000013 199.9970000005 Z"/><path fill="green" stroke="none" paint-order="stroke fill markers" d=" M 73 220 A 3 3 0 1 1 72.99999850000013 219.9970000005 Z"/><path fill="green" stroke="none" paint-order="stroke fill markers" d=" M 73 240 A 3 3 0 1 1 72.99999850000013 239.9970000005 Z"/><path fill="green" stroke="none" paint-order="stroke fill markers" d=" M 83 140 A 3 3 0 1 1 82.99999850000013 139.9970000005 Z"/><path fill="green" stroke="none" paint-order="stroke fill markers" d=" M 83 160 A 3 3 0 1 1 82.99999850000013 159.9970000005 Z"/><path fill="green" stroke="none" paint-order="stroke fill markers" d=" M 113 150 A 3 3 0 1 1 112.99999850000013 149.9970000005 Z"/><path fill="green" stroke="none" paint-order="stroke fill markers" d=" M 83 180 A 3 3 0 1 1 82.99999850000013 179.9970000005 Z"/><path fill="green" stroke="none" paint-order="stroke fill markers" d=" M 83 200 A 3 3 0 1 1 82.99999850000013 199.9970000005 Z"/><path fill="green" stroke="none" paint-order="stroke fill markers" d=" M 113 190 A 3 3 0 1 1 112.99999850000013 189.9970000005 Z"/><path fill="green" stroke="none" paint-order="stroke fill markers" d=" M 83 220 A 3 3 0 1 1 82.99999850000013 219.9970000005 Z"/><path fill="green" stroke="none" paint-order="stroke fill markers" d=" M 83 240 A 3 3 0 1 1 82.99999850000013 239.9970000005 Z"/><path fill="green" stroke="none" paint-order="stroke fill markers" d=" M 113 230 A 3 3 0 1 1 112.99999850000013 229.9970000005 Z"/><path fill="lightgreen" stroke="none" paint-order="stroke fill markers" d=" M 123 110 A 3 3 0 1 1 122.99999850000013 109.9970000005 Z"/><path fill="lightgreen" stroke="none" paint-order="stroke fill markers" d=" M 123 140 A 3 3 0 1 1 122.99999850000013 139.9970000005 Z"/><path fill="lightgreen" stroke="none" paint-order="stroke fill markers" d=" M 123 150 A 3 3 0 1 1 122.99999850000013 149.9970000005 Z"/><path fill="lightgreen" stroke="none" paint-order="stroke fill markers" d=" M 123 160 A 3 3 0 1 1 122.99999850000013 159.9970000005 Z"/><path fill="lightgreen" stroke="none" paint-order="stroke fill markers" d=" M 123 190 A 3 3 0 1 1 122.99999850000013 189.9970000005 Z"/><path fill="lightgreen" stroke="none" paint-order="stroke fill markers" d=" M 123 180 A 3 3 0 1 1 122.99999850000013 179.9970000005 Z"/><path fill="lightgreen" stroke="none" paint-order="stroke fill markers" d=" M 123 230 A 3 3 0 1 1 122.99999850000013 229.9970000005 Z"/><path fill="lightgreen" stroke="none" paint-order="stroke fill markers" d=" M 123 200 A 3 3 0 1 1 122.99999850000013 199.9970000005 Z"/></g></svg>