<svg version="1.1" xmlns="http://www.w3.org/2000/svg" xmlns:xlink="http://www.w3.org/1999/xlink" width="1036" height="594"><defs/><g><rect fill="#FFFFFF" stroke="none" x="0" y="0" width="240" height="220"/><path fill="white" stroke="none" paint-order="stroke fill markers" d=" M 0 0 L 240 0 L 240 220 L 0 220 L 0 0 Z"/><path fill="none" stroke="none"/><text fill="black" stroke="none" font-family="Georgia" font-size="14px" font-style="normal" font-weight="normal" text-decoration="normal" x="60" y="65" text-anchor="start" dominant-baseline="alphabetic">CustomOr4In</text><path fill="white" stroke="rgb(0,0,0)" paint-order="fill stroke markers" d=" M 80 90 C 90 90 105 100 110 110 C 105 120 90 130 80 130 C 90 110 90 110 80 90 Z" stroke-opacity="1" stroke-miterlimit="10" stroke-width="3" stroke-dasharray=""/><path fill="white" stroke="rgb(0,0,0)" paint-order="fill stroke markers" d=" M 80 130 C 90 130 105 140 110 150 C 105 160 90 170 80 170 C 90 150 90 150 80 130 Z" stroke-opacity="1" stroke-miterlimit="10" stroke-width="3" stroke-dasharray=""/><path fill="white" stroke="rgb(0,0,0)" paint-order="fill stroke markers" d=" M 130 110 C 140 110 155 120 160 130 C 155 140 140 150 130 150 C 140 130 140 130 130 110 Z" stroke-opacity="1" stroke-miterlimit="10" stroke-width="3" stroke-dasharray=""/><path fill="none" stroke="none"/><text fill="black" stroke="none" font-family="Georgia" font-size="14px" font-style="normal" font-weight="normal" text-decoration="normal" x="200" y="135" text-anchor="start" dominant-baseline="alphabetic">out</text><path fill="white" stroke="blue" paint-order="fill stroke markers" d=" M 170.5 120.5 L 190.5 120.5 L 190.5 140.5 L 170.5 140.5 L 170.5 120.5 Z" stroke-miterlimit="10" stroke-width="3" stroke-dasharray=""/><path fill="none" stroke="none"/><text fill="green" stroke="none" font-family="Georgia" font-size="20px" font-style="normal" font-weight="normal" text-decoration="normal" x="180" y="135" text-anchor="middle" dominant-baseline="alphabetic">1</text><path fill="white" stroke="black" paint-order="fill stroke markers" d=" M 50.5 90.5 L 70.5 90.5 L 70.5 110.5 L 50.5 110.5 L 50.5 90.5 Z" stroke-miterlimit="10" stroke-width="3" stroke-dasharray=""/><path fill="none" stroke="none"/><text fill="black" stroke="none" font-family="Georgia" font-size="14px" font-style="normal" font-weight="normal" text-decoration="normal" x="40" y="105" text-anchor="end" dominant-baseline="alphabetic">a</text><path fill="none" stroke="none"/><path fill="none" stroke="none"/><text fill="green" stroke="none" font-family="Georgia" font-size="20px" font-style="normal" font-weight="normal" text-decoration="normal" x="60" y="105" text-anchor="middle" dominant-baseline="alphabetic">0</text><path fill="white" stroke="black" paint-order="fill stroke markers" d=" M 50.5 110.5 L 70.5 110.5 L 70.5 130.5 L 50.5 130.5 L 50.5 110.5 Z" stroke-miterlimit="10" stroke-width="3" stroke-dasharray=""/><path fill="none" stroke="none"/><text fill="black" stroke="none" font-family="Georgia" font-size="14px" font-style="normal" font-weight="normal" text-decoration="normal" x="40" y="125" text-anchor="end" dominant-baseline="alphabetic">b</text><path fill="none" stroke="none"/><path fill="none" stroke="none"/><text fill="green" stroke="none" font-family="Georgia" font-size="20px" font-style="normal" font-weight="normal" text-decoration="normal" x="60" y="125" text-anchor="middle" dominant-baseline="alphabetic">1</text><path fill="white" stroke="black" paint-order="fill stroke markers" d=" M 50.5 130.5 L 70.5 130.5 L 70.5 150.5 L 50.5 150.5 L 50.5 130.5 Z" stroke-miterlimit="10" stroke-width="3" stroke-dasharray=""/><path fill="none" stroke="none"/><text fill="black" stroke="none" font-family="Georgia" font-size="14px" font-style="normal" font-weight="normal" text-decoration="normal" x="40" y="145" text-anchor="end" dominant-baseline="alphabetic">c</text><path fill="none" stroke="none"/><path fill="none" stroke="none"/><text fill="green" stroke="none" font-family="Georgia" font-size="20px" font-style="normal" font-weight="normal" text-decoration="normal" x="60" y="145" text-anchor="middle" dominant-baseline="alphabetic">0</text><path fill="white" stroke="black" paint-order="fill stroke markers" d=" M 50.5 150.5 L 70.5 150.5 L 70.5 170.5 L 50.5 170.5 L 50.5 150.5 Z" stroke-miterlimit="10" stroke-width="3" stroke-dasharray=""/><path fill="none" stroke="none"/><text fill="black" stroke="none" font-family="Georgia" font-size="14px" font-style="normal" font-weight="normal" text-decoration="normal" x="40" y="165" text-anchor="end" dominant-baseline="alphabetic">d</text><path fill="none" stroke="none"/><path fill="none" stroke="none"/><text fill="green" stroke="none" font-family="Georgia" font-size="20px" font-style="normal" font-weight="normal" text-decoration="normal" x="60" y="165" text-anchor="middle" dominant-baseline="alphabetic">0</text><path fill="none" stroke="Lime" paint-order="fill stroke markers" d=" M 170 130.5 L 160 130.5" stroke-linecap="round" stroke-miterlimit="10" stroke-width="3" stroke-dasharray=""/><path fill="none" stroke="DarkGreen" paint-order="fill stroke markers" d=" M 80 100.5 L 70 100.5" stroke-linecap="round" stroke-miterlimit="10" stroke-width="3" stroke-dasharray=""/><path fill="none" stroke="Lime" paint-order="fill stroke markers" d=" M 80 120.5 L 70 120.5" stroke-linecap="round" stroke-miterlimit="10" stroke-width="3" stroke-dasharray=""/><path fill="none" stroke="Lime" paint-order="fill stroke markers" d=" M 110 110.5 L 120 110.5" stroke-linecap="round" stroke-miterlimit="10" stroke-width="3" stroke-dasharray=""/><path fill="none" stroke="DarkGreen" paint-order="fill stroke markers" d=" M 80 140.5 L 70 140.5" stroke-linecap="round" stroke-miterlimit="10" stroke-width="3" stroke-dasharray=""/><path fill="none" stroke="DarkGreen" paint-order="fill stroke markers" d=" M 80 160.5 L 70 160.5" stroke-linecap="round" stroke-miterlimit="10" stroke-width="3" stroke-dasharray=""/><path fill="none" stroke="DarkGreen" paint-order="fill stroke markers" d=" M 110 150.5 L 120 150.5" stroke-linecap="round" stroke-miterlimit="10" stroke-width="3" stroke-dasharray=""/><path fill="none" stroke="Lime" paint-order="fill stroke markers" d=" M 130 120.5 L 120 120.5" stroke-linecap="round" stroke-miterlimit="10" stroke-width="3" stroke-dasharray=""/><path fill="none" stroke="DarkGreen" paint-order="fill stroke markers" d=" M 130 140.5 L 120 140.5" stroke-linecap="round" stroke-miterlimit="10" stroke-width="3" stroke-dasharray=""/><path fill="none" stroke="Lime" paint-order="fill stroke markers" d=" M 120.5 110 L 120.5 120" stroke-linecap="round" stroke-miterlimit="10" stroke-width="3" stroke-dasharray=""/><path fill="none" stroke="DarkGreen" paint-order="fill stroke markers" d=" M 120.5 150 L 120.5 140" stroke-linecap="round" stroke-miterlimit="10" stroke-width="3" stroke-dasharray=""/><path fill="green" stroke="none" paint-order="stroke fill markers" d=" M 173 130 A 3 3 0 1 1 172.99999850000012 129.9970000005 Z"/><path fill="green" stroke="none" paint-order="stroke fill markers" d=" M 83 100 A 3 3 0 1 1 82.99999850000013 99.9970000005 Z"/><path fill="green" stroke="none" paint-order="stroke fill markers" d=" M 83 120 A 3 3 0 1 1 82.99999850000013 119.9970000005 Z"/><path fill="green" stroke="none" paint-order="stroke fill markers" d=" M 113 110 A 3 3 0 1 1 112.99999850000013 109.9970000005 Z"/><path fill="green" stroke="none" paint-order="stroke fill markers" d=" M 83 140 A 3 3 0 1 1 82.99999850000013 139.9970000005 Z"/><path fill="green" stroke="none" paint-order="stroke fill markers" d=" M 83 160 A 3 3 0 1 1 82.99999850000013 159.9970000005 Z"/><path fill="green" stroke="none" paint-order="stroke fill markers" d=" M 113 150 A 3 3 0 1 1 112.99999850000013 149.9970000005 Z"/><path fill="green" stroke="none" paint-order="stroke fill markers" d=" M 133 120 A 3 3 0 1 1 132.99999850000012 119.9970000005 Z"/><path fill="green" stroke="none" paint-order="stroke fill markers" d=" M 133 140 A 3 3 0 1 1 132.99999850000012 139.9970000005 Z"/><path fill="green" stroke="none" paint-order="stroke fill markers" d=" M 163 130 A 3 3 0 1 1 162.99999850000012 129.9970000005 Z"/><path fill="lightgreen" stroke="none" paint-order="stroke fill markers" d=" M 123 110 A 3 3 0 1 1 122.99999850000013 109.9970000005 Z"/><path fill="lightgreen" stroke="none" paint-order="stroke fill markers" d=" M 123 120 A 3 3 0 1 1 122.99999850000013 119.9970000005 Z"/><path fill="green" stroke="none" paint-order="stroke fill markers" d=" M 123 150 A 3 3 0 1 1 122.99999850000013 149.9970000005 Z"/><path fill="green" stroke="none" paint-order="stroke fill markers" d=" M 123 140 A 3 3 0 1 1 122.99999850000013 139.9970000005 Z"/><path fill="green" stroke="none" paint-order="stroke fill markers" d=" M 73 100 A 3 3 0 1 1 72.99999850000013 99.9970000005 Z"/><path fill="green" stroke="none" paint-order="stroke fill markers" d=" M 73 120 A 3 3 0 1 1 72.99999850000013 119.9970000005 Z"/><path fill="green" stroke="none" paint-order="stroke fill markers" d=" M 73 140 A 3 3 0 1 1 72.99999850000013 139.9970000005 Z"/><path fill="green" stroke="none" paint-order="stroke fill markers" d=" M 73 160 A 3 3 0 1 1 72.99999850000013 159.9970000005 Z"/></g></svg>