<svg version="1.1" xmlns="http://www.w3.org/2000/svg" xmlns:xlink="http://www.w3.org/1999/xlink" width="1036" height="594"><defs/><g><rect fill="#FFFFFF" stroke="none" x="0" y="0" width="240" height="210"/><path fill="none" stroke="none"/><text fill="black" stroke="none" font-family="Georgia" font-size="14px" font-style="normal" font-weight="normal" text-decoration="normal" x="60" y="65" text-anchor="start" dominant-baseline="alphabetic">CustomAnd3In</text><path fill="white" stroke="black" paint-order="fill stroke markers" d=" M 80.5 90.5 L 90.5 90.5 L 90.5 90.5 A 20 20 0 0 1 90.5 130.5 L 80.5 130.5 L 80.5 90.5 Z" stroke-miterlimit="10" stroke-width="3" stroke-dasharray=""/><path fill="white" stroke="black" paint-order="fill stroke markers" d=" M 130.5 120.5 L 140.5 120.5 L 140.5 120.5 A 20 20 0 0 1 140.5 160.5 L 130.5 160.5 L 130.5 120.5 Z" stroke-miterlimit="10" stroke-width="3" stroke-dasharray=""/><path fill="none" stroke="none"/><text fill="black" stroke="none" font-family="Georgia" font-size="14px" font-style="normal" font-weight="normal" text-decoration="normal" x="200" y="145" text-anchor="start" dominant-baseline="alphabetic">out</text><path fill="white" stroke="blue" paint-order="fill stroke markers" d=" M 170.5 130.5 L 190.5 130.5 L 190.5 150.5 L 170.5 150.5 L 170.5 130.5 Z" stroke-miterlimit="10" stroke-width="3" stroke-dasharray=""/><path fill="none" stroke="none"/><text fill="green" stroke="none" font-family="Georgia" font-size="20px" font-style="normal" font-weight="normal" text-decoration="normal" x="180" y="145" text-anchor="middle" dominant-baseline="alphabetic">1</text><path fill="white" stroke="black" paint-order="fill stroke markers" d=" M 50.5 90.5 L 70.5 90.5 L 70.5 110.5 L 50.5 110.5 L 50.5 90.5 Z" stroke-miterlimit="10" stroke-width="3" stroke-dasharray=""/><path fill="none" stroke="none"/><text fill="black" stroke="none" font-family="Georgia" font-size="14px" font-style="normal" font-weight="normal" text-decoration="normal" x="40" y="105" text-anchor="end" dominant-baseline="alphabetic">a</text><path fill="none" stroke="none"/><path fill="none" stroke="none"/><text fill="green" stroke="none" font-family="Georgia" font-size="20px" font-style="normal" font-weight="normal" text-decoration="normal" x="60" y="105" text-anchor="middle" dominant-baseline="alphabetic">1</text><path fill="white" stroke="black" paint-order="fill stroke markers" d=" M 50.5 110.5 L 70.5 110.5 L 70.5 130.5 L 50.5 130.5 L 50.5 110.5 Z" stroke-miterlimit="10" stroke-width="3" stroke-dasharray=""/><path fill="none" stroke="none"/><text fill="black" stroke="none" font-family="Georgia" font-size="14px" font-style="normal" font-weight="normal" text-decoration="normal" x="40" y="125" text-anchor="end" dominant-baseline="alphabetic">b</text><path fill="none" stroke="none"/><path fill="none" stroke="none"/><text fill="green" stroke="none" font-family="Georgia" font-size="20px" font-style="normal" font-weight="normal" text-decoration="normal" x="60" y="125" text-anchor="middle" dominant-baseline="alphabetic">1</text><path fill="white" stroke="black" paint-order="fill stroke markers" d=" M 50.5 140.5 L 70.5 140.5 L 70.5 160.5 L 50.5 160.5 L 50.5 140.5 Z" stroke-miterlimit="10" stroke-width="3" stroke-dasharray=""/><path fill="none" stroke="none"/><text fill="black" stroke="none" font-family="Georgia" font-size="14px" font-style="normal" font-weight="normal" text-decoration="normal" x="40" y="155" text-anchor="end" dominant-baseline="alphabetic">c</text><path fill="none" stroke="none"/><path fill="none" stroke="none"/><text fill="green" stroke="none" font-family="Georgia" font-size="20px" font-style="normal" font-weight="normal" text-decoration="normal" x="60" y="155" text-anchor="middle" dominant-baseline="alphabetic">1</text><path fill="none" stroke="Lime" paint-order="fill stroke markers" d=" M 80 100.5 L 70 100.5" stroke-linecap="round" stroke-miterlimit="10" stroke-width="3" stroke-dasharray=""/><path fill="none" stroke="Lime" paint-order="fill stroke markers" d=" M 80 120.5 L 70 120.5" stroke-linecap="round" stroke-miterlimit="10" stroke-width="3" stroke-dasharray=""/><path fill="none" stroke="Lime" paint-order="fill stroke markers" d=" M 110 110.5 L 120 110.5" stroke-linecap="round" stroke-miterlimit="10" stroke-width="3" stroke-dasharray=""/><path fill="none" stroke="Lime" paint-order="fill stroke markers" d=" M 130 130.5 L 120 130.5" stroke-linecap="round" stroke-miterlimit="10" stroke-width="3" stroke-dasharray=""/><path fill="none" stroke="Lime" paint-order="fill stroke markers" d=" M 130 150.5 L 70 150.5" stroke-linecap="round" stroke-miterlimit="10" stroke-width="3" stroke-dasharray=""/><path fill="none" stroke="Lime" paint-order="fill stroke markers" d=" M 160 140.5 L 170 140.5" stroke-linecap="round" stroke-miterlimit="10" stroke-width="3" stroke-dasharray=""/><path fill="none" stroke="Lime" paint-order="fill stroke markers" d=" M 120.5 110 L 120.5 130" stroke-linecap="round" stroke-miterlimit="10" stroke-width="3" stroke-dasharray=""/><path fill="green" stroke="none" paint-order="stroke fill markers" d=" M 83 100 A 3 3 0 1 1 82.99999850000013 99.9970000005 Z"/><path fill="green" stroke="none" paint-order="stroke fill markers" d=" M 83 120 A 3 3 0 1 1 82.99999850000013 119.9970000005 Z"/><path fill="green" stroke="none" paint-order="stroke fill markers" d=" M 113 110 A 3 3 0 1 1 112.99999850000013 109.9970000005 Z"/><path fill="green" stroke="none" paint-order="stroke fill markers" d=" M 133 130 A 3 3 0 1 1 132.99999850000012 129.9970000005 Z"/><path fill="green" stroke="none" paint-order="stroke fill markers" d=" M 133 150 A 3 3 0 1 1 132.99999850000012 149.9970000005 Z"/><path fill="green" stroke="none" paint-order="stroke fill markers" d=" M 163 140 A 3 3 0 1 1 162.99999850000012 139.9970000005 Z"/><path fill="green" stroke="none" paint-order="stroke fill markers" d=" M 73 100 A 3 3 0 1 1 72.99999850000013 99.9970000005 Z"/><path fill="green" stroke="none" paint-order="stroke fill markers" d=" M 73 120 A 3 3 0 1 1 72.99999850000013 119.9970000005 Z"/><path fill="green" stroke="none" paint-order="stroke fill markers" d=" M 73 150 A 3 3 0 1 1 72.99999850000013 149.9970000005 Z"/><path fill="lightgreen" stroke="none" paint-order="stroke fill markers" d=" M 123 110 A 3 3 0 1 1 122.99999850000013 109.9970000005 Z"/><path fill="lightgreen" stroke="none" paint-order="stroke fill markers" d=" M 123 130 A 3 3 0 1 1 122.99999850000013 129.9970000005 Z"/><path fill="green" stroke="none" paint-order="stroke fill markers" d=" M 173 140 A 3 3 0 1 1 172.99999850000012 139.9970000005 Z"/></g></svg>