<svg version="1.1" xmlns="http://www.w3.org/2000/svg" xmlns:xlink="http://www.w3.org/1999/xlink" width="1036" height="643"><defs/><g><rect fill="#FFFFFF" stroke="none" x="0" y="0" width="450" height="580"/><path fill="white" stroke="none" paint-order="stroke fill markers" d=" M 0 0 L 450 0 L 450 580 L 0 580 L 0 0 Z"/><path fill="none" stroke="none"/><text fill="black" stroke="none" font-family="Georgia" font-size="14px" font-style="normal" font-weight="normal" text-decoration="normal" x="70" y="65" text-anchor="start" dominant-baseline="alphabetic">CustomMux4Way</text><path fill="white" stroke="black" paint-order="fill stroke markers" d=" M 260.5 410.5 L 360.5 410.5 L 360.5 530.5 L 260.5 530.5 L 260.5 410.5 Z" stroke-miterlimit="10" stroke-width="3" stroke-dasharray=""/><path fill="none" stroke="none"/><text fill="black" stroke="none" font-family="Georgia" font-size="11px" font-style="normal" font-weight="normal" text-decoration="normal" x="310" y="423" text-anchor="middle" dominant-baseline="alphabetic">CustomOr4In</text><text fill="black" stroke="none" font-family="Georgia" font-size="12px" font-style="normal" font-weight="normal" text-decoration="normal" x="265" y="435" text-anchor="start" dominant-baseline="alphabetic">a</text><text fill="black" stroke="none" font-family="Georgia" font-size="12px" font-style="normal" font-weight="normal" text-decoration="normal" x="265" y="455" text-anchor="start" dominant-baseline="alphabetic">b</text><text fill="black" stroke="none" font-family="Georgia" font-size="12px" font-style="normal" font-weight="normal" text-decoration="normal" x="265" y="495" text-anchor="start" dominant-baseline="alphabetic">c</text><text fill="black" stroke="none" font-family="Georgia" font-size="12px" font-style="normal" font-weight="normal" text-decoration="normal" x="265" y="515" text-anchor="start" dominant-baseline="alphabetic">d</text><text fill="black" stroke="none" font-family="Georgia" font-size="12px" font-style="normal" font-weight="normal" text-decoration="normal" x="355" y="435" text-anchor="end" dominant-baseline="alphabetic">out</text><path fill="green" stroke="none" paint-order="stroke fill markers" d=" M 263 430 A 3 3 0 1 1 262.9999985000001 429.9970000005 Z"/><path fill="green" stroke="none" paint-order="stroke fill markers" d=" M 263 450 A 3 3 0 1 1 262.9999985000001 449.9970000005 Z"/><path fill="green" stroke="none" paint-order="stroke fill markers" d=" M 263 490 A 3 3 0 1 1 262.9999985000001 489.9970000005 Z"/><path fill="green" stroke="none" paint-order="stroke fill markers" d=" M 263 510 A 3 3 0 1 1 262.9999985000001 509.9970000005 Z"/><path fill="green" stroke="none" paint-order="stroke fill markers" d=" M 363 430 A 3 3 0 1 1 362.9999985000001 429.9970000005 Z"/><path fill="white" stroke="black" paint-order="fill stroke markers" d=" M 150.5 130.5 L 160.5 130.5 L 160.5 130.5 A 20 20 0 0 1 160.5 170.5 L 150.5 170.5 L 150.5 130.5 Z" stroke-miterlimit="10" stroke-width="3" stroke-dasharray=""/><path fill="white" stroke="black" paint-order="fill stroke markers" d=" M 150.5 190.5 L 160.5 190.5 L 160.5 190.5 A 20 20 0 0 1 160.5 230.5 L 150.5 230.5 L 150.5 190.5 Z" stroke-miterlimit="10" stroke-width="3" stroke-dasharray=""/><path fill="white" stroke="black" paint-order="fill stroke markers" d=" M 150.5 250.5 L 160.5 250.5 L 160.5 250.5 A 20 20 0 0 1 160.5 290.5 L 150.5 290.5 L 150.5 250.5 Z" stroke-miterlimit="10" stroke-width="3" stroke-dasharray=""/><path fill="white" stroke="black" paint-order="fill stroke markers" d=" M 150.5 310.5 L 160.5 310.5 L 160.5 310.5 A 20 20 0 0 1 160.5 350.5 L 150.5 350.5 L 150.5 310.5 Z" stroke-miterlimit="10" stroke-width="3" stroke-dasharray=""/><path fill="white" stroke="black" paint-order="fill stroke markers" d=" M 240.5 130.5 L 250.5 130.5 L 250.5 130.5 A 20 20 0 0 1 250.5 170.5 L 240.5 170.5 L 240.5 130.5 Z" stroke-miterlimit="10" stroke-width="3" stroke-dasharray=""/><path fill="white" stroke="black" paint-order="fill stroke markers" d=" M 240.5 190.5 L 250.5 190.5 L 250.5 190.5 A 20 20 0 0 1 250.5 230.5 L 240.5 230.5 L 240.5 190.5 Z" stroke-miterlimit="10" stroke-width="3" stroke-dasharray=""/><path fill="white" stroke="black" paint-order="fill stroke markers" d=" M 240.5 250.5 L 250.5 250.5 L 250.5 250.5 A 20 20 0 0 1 250.5 290.5 L 240.5 290.5 L 240.5 250.5 Z" stroke-miterlimit="10" stroke-width="3" stroke-dasharray=""/><path fill="white" stroke="black" paint-order="fill stroke markers" d=" M 240.5 310.5 L 250.5 310.5 L 250.5 310.5 A 20 20 0 0 1 250.5 350.5 L 240.5 350.5 L 240.5 310.5 Z" stroke-miterlimit="10" stroke-width="3" stroke-dasharray=""/><path fill="white" stroke="black" paint-order="fill stroke markers" d=" M 110.5 150.5 L 130.5 160.5 L 110.5 170.5 Z" stroke-miterlimit="10" stroke-width="3" stroke-dasharray=""/><path fill="none" stroke="black" paint-order="fill stroke markers" d=" M 140 160 A 5 5 0 1 1 139.9999975000002 159.99500000083333" stroke-miterlimit="10" stroke-width="3" stroke-dasharray=""/><path fill="white" stroke="black" paint-order="fill stroke markers" d=" M 110.5 190.5 L 130.5 200.5 L 110.5 210.5 Z" stroke-miterlimit="10" stroke-width="3" stroke-dasharray=""/><path fill="none" stroke="black" paint-order="fill stroke markers" d=" M 140 200 A 5 5 0 1 1 139.9999975000002 199.99500000083333" stroke-miterlimit="10" stroke-width="3" stroke-dasharray=""/><path fill="white" stroke="black" paint-order="fill stroke markers" d=" M 110.5 130.5 L 130.5 140.5 L 110.5 150.5 Z" stroke-miterlimit="10" stroke-width="3" stroke-dasharray=""/><path fill="none" stroke="black" paint-order="fill stroke markers" d=" M 140 140 A 5 5 0 1 1 139.9999975000002 139.99500000083333" stroke-miterlimit="10" stroke-width="3" stroke-dasharray=""/><path fill="white" stroke="black" paint-order="fill stroke markers" d=" M 110.5 270.5 L 130.5 280.5 L 110.5 290.5 Z" stroke-miterlimit="10" stroke-width="3" stroke-dasharray=""/><path fill="none" stroke="black" paint-order="fill stroke markers" d=" M 140 280 A 5 5 0 1 1 139.9999975000002 279.99500000083333" stroke-miterlimit="10" stroke-width="3" stroke-dasharray=""/><path fill="none" stroke="none"/><text fill="black" stroke="none" font-family="Georgia" font-size="14px" font-style="normal" font-weight="normal" text-decoration="normal" x="410" y="435" text-anchor="start" dominant-baseline="alphabetic">out</text><path fill="white" stroke="blue" paint-order="fill stroke markers" d=" M 380.5 420.5 L 400.5 420.5 L 400.5 440.5 L 380.5 440.5 L 380.5 420.5 Z" stroke-miterlimit="10" stroke-width="3" stroke-dasharray=""/><path fill="none" stroke="none"/><text fill="green" stroke="none" font-family="Georgia" font-size="20px" font-style="normal" font-weight="normal" text-decoration="normal" x="390" y="435" text-anchor="middle" dominant-baseline="alphabetic">0</text><path fill="white" stroke="black" paint-order="fill stroke markers" d=" M 70.5 100.5 L 90.5 100.5 L 90.5 120.5 L 70.5 120.5 L 70.5 100.5 Z" stroke-miterlimit="10" stroke-width="3" stroke-dasharray=""/><path fill="none" stroke="none"/><text fill="black" stroke="none" font-family="Georgia" font-size="14px" font-style="normal" font-weight="normal" text-decoration="normal" x="80" y="95" text-anchor="middle" dominant-baseline="alphabetic">s0</text><path fill="none" stroke="none"/><path fill="none" stroke="none"/><text fill="green" stroke="none" font-family="Georgia" font-size="20px" font-style="normal" font-weight="normal" text-decoration="normal" x="80" y="115" text-anchor="middle" dominant-baseline="alphabetic">0</text><path fill="white" stroke="black" paint-order="fill stroke markers" d=" M 50.5 100.5 L 70.5 100.5 L 70.5 120.5 L 50.5 120.5 L 50.5 100.5 Z" stroke-miterlimit="10" stroke-width="3" stroke-dasharray=""/><path fill="none" stroke="none"/><text fill="black" stroke="none" font-family="Georgia" font-size="14px" font-style="normal" font-weight="normal" text-decoration="normal" x="60" y="95" text-anchor="middle" dominant-baseline="alphabetic">s1</text><path fill="none" stroke="none"/><path fill="none" stroke="none"/><text fill="green" stroke="none" font-family="Georgia" font-size="20px" font-style="normal" font-weight="normal" text-decoration="normal" x="60" y="115" text-anchor="middle" dominant-baseline="alphabetic">1</text><path fill="white" stroke="black" paint-order="fill stroke markers" d=" M 220.5 130.5 L 240.5 130.5 L 240.5 150.5 L 220.5 150.5 L 220.5 130.5 Z" stroke-miterlimit="10" stroke-width="3" stroke-dasharray=""/><path fill="none" stroke="none"/><text fill="black" stroke="none" font-family="Georgia" font-size="14px" font-style="normal" font-weight="normal" text-decoration="normal" x="230" y="125" text-anchor="middle" dominant-baseline="alphabetic">a</text><path fill="none" stroke="none"/><path fill="none" stroke="none"/><text fill="green" stroke="none" font-family="Georgia" font-size="20px" font-style="normal" font-weight="normal" text-decoration="normal" x="230" y="145" text-anchor="middle" dominant-baseline="alphabetic">0</text><path fill="white" stroke="black" paint-order="fill stroke markers" d=" M 220.5 190.5 L 240.5 190.5 L 240.5 210.5 L 220.5 210.5 L 220.5 190.5 Z" stroke-miterlimit="10" stroke-width="3" stroke-dasharray=""/><path fill="none" stroke="none"/><text fill="black" stroke="none" font-family="Georgia" font-size="14px" font-style="normal" font-weight="normal" text-decoration="normal" x="230" y="185" text-anchor="middle" dominant-baseline="alphabetic">b</text><path fill="none" stroke="none"/><path fill="none" stroke="none"/><text fill="green" stroke="none" font-family="Georgia" font-size="20px" font-style="normal" font-weight="normal" text-decoration="normal" x="230" y="205" text-anchor="middle" dominant-baseline="alphabetic">0</text><path fill="white" stroke="black" paint-order="fill stroke markers" d=" M 220.5 250.5 L 240.5 250.5 L 240.5 270.5 L 220.5 270.5 L 220.5 250.5 Z" stroke-miterlimit="10" stroke-width="3" stroke-dasharray=""/><path fill="none" stroke="none"/><text fill="black" stroke="none" font-family="Georgia" font-size="14px" font-style="normal" font-weight="normal" text-decoration="normal" x="230" y="245" text-anchor="middle" dominant-baseline="alphabetic">c</text><path fill="none" stroke="none"/><path fill="none" stroke="none"/><text fill="green" stroke="none" font-family="Georgia" font-size="20px" font-style="normal" font-weight="normal" text-decoration="normal" x="230" y="265" text-anchor="middle" dominant-baseline="alphabetic">0</text><path fill="white" stroke="black" paint-order="fill stroke markers" d=" M 220.5 310.5 L 240.5 310.5 L 240.5 330.5 L 220.5 330.5 L 220.5 310.5 Z" stroke-miterlimit="10" stroke-width="3" stroke-dasharray=""/><path fill="none" stroke="none"/><text fill="black" stroke="none" font-family="Georgia" font-size="14px" font-style="normal" font-weight="normal" text-decoration="normal" x="230" y="305" text-anchor="middle" dominant-baseline="alphabetic">d</text><path fill="none" stroke="none"/><path fill="none" stroke="none"/><text fill="green" stroke="none" font-family="Georgia" font-size="20px" font-style="normal" font-weight="normal" text-decoration="normal" x="230" y="325" text-anchor="middle" dominant-baseline="alphabetic">1</text><path fill="none" stroke="DarkGreen" paint-order="fill stroke markers" d=" M 80.5 120 L 80.5 160" stroke-linecap="round" stroke-miterlimit="10" stroke-width="3" stroke-dasharray=""/><path fill="none" stroke="Lime" paint-order="fill stroke markers" d=" M 60.5 120 L 60.5 140" stroke-linecap="round" stroke-miterlimit="10" stroke-width="3" stroke-dasharray=""/><path fill="none" stroke="DarkGreen" paint-order="fill stroke markers" d=" M 150 140.5 L 140 140.5" stroke-linecap="round" stroke-miterlimit="10" stroke-width="3" stroke-dasharray=""/><path fill="none" stroke="Lime" paint-order="fill stroke markers" d=" M 150 160.5 L 140 160.5" stroke-linecap="round" stroke-miterlimit="10" stroke-width="3" stroke-dasharray=""/><path fill="none" stroke="DarkGreen" paint-order="fill stroke markers" d=" M 180 150.5 L 200 150.5" stroke-linecap="round" stroke-miterlimit="10" stroke-width="3" stroke-dasharray=""/><path fill="none" stroke="DarkGreen" paint-order="fill stroke markers" d=" M 150 200.5 L 140 200.5" stroke-linecap="round" stroke-miterlimit="10" stroke-width="3" stroke-dasharray=""/><path fill="none" stroke="DarkGreen" paint-order="fill stroke markers" d=" M 150 220.5 L 80 220.5" stroke-linecap="round" stroke-miterlimit="10" stroke-width="3" stroke-dasharray=""/><path fill="none" stroke="DarkGreen" paint-order="fill stroke markers" d=" M 180 210.5 L 200 210.5" stroke-linecap="round" stroke-miterlimit="10" stroke-width="3" stroke-dasharray=""/><path fill="none" stroke="Lime" paint-order="fill stroke markers" d=" M 150 260.5 L 60 260.5" stroke-linecap="round" stroke-miterlimit="10" stroke-width="3" stroke-dasharray=""/><path fill="none" stroke="Lime" paint-order="fill stroke markers" d=" M 150 280.5 L 140 280.5" stroke-linecap="round" stroke-miterlimit="10" stroke-width="3" stroke-dasharray=""/><path fill="none" stroke="Lime" paint-order="fill stroke markers" d=" M 180 270.5 L 200 270.5" stroke-linecap="round" stroke-miterlimit="10" stroke-width="3" stroke-dasharray=""/><path fill="none" stroke="Lime" paint-order="fill stroke markers" d=" M 150 320.5 L 60 320.5" stroke-linecap="round" stroke-miterlimit="10" stroke-width="3" stroke-dasharray=""/><path fill="none" stroke="DarkGreen" paint-order="fill stroke markers" d=" M 150 340.5 L 80 340.5" stroke-linecap="round" stroke-miterlimit="10" stroke-width="3" stroke-dasharray=""/><path fill="none" stroke="DarkGreen" paint-order="fill stroke markers" d=" M 180 330.5 L 200 330.5" stroke-linecap="round" stroke-miterlimit="10" stroke-width="3" stroke-dasharray=""/><path fill="none" stroke="Lime" paint-order="fill stroke markers" d=" M 60.5 200 L 60.5 140" stroke-linecap="round" stroke-miterlimit="10" stroke-width="3" stroke-dasharray=""/><path fill="none" stroke="Lime" paint-order="fill stroke markers" d=" M 60 200.5 L 110 200.5" stroke-linecap="round" stroke-miterlimit="10" stroke-width="3" stroke-dasharray=""/><path fill="none" stroke="Lime" paint-order="fill stroke markers" d=" M 60.5 200 L 60.5 260" stroke-linecap="round" stroke-miterlimit="10" stroke-width="3" stroke-dasharray=""/><path fill="none" stroke="DarkGreen" paint-order="fill stroke markers" d=" M 80.5 220 L 80.5 160" stroke-linecap="round" stroke-miterlimit="10" stroke-width="3" stroke-dasharray=""/><path fill="none" stroke="DarkGreen" paint-order="fill stroke markers" d=" M 80.5 220 L 80.5 280" stroke-linecap="round" stroke-miterlimit="10" stroke-width="3" stroke-dasharray=""/><path fill="none" stroke="Lime" paint-order="fill stroke markers" d=" M 60.5 320 L 60.5 260" stroke-linecap="round" stroke-miterlimit="10" stroke-width="3" stroke-dasharray=""/><path fill="none" stroke="DarkGreen" paint-order="fill stroke markers" d=" M 80.5 340 L 80.5 280" stroke-linecap="round" stroke-miterlimit="10" stroke-width="3" stroke-dasharray=""/><path fill="none" stroke="Lime" paint-order="fill stroke markers" d=" M 60 140.5 L 110 140.5" stroke-linecap="round" stroke-miterlimit="10" stroke-width="3" stroke-dasharray=""/><path fill="none" stroke="DarkGreen" paint-order="fill stroke markers" d=" M 80 160.5 L 110 160.5" stroke-linecap="round" stroke-miterlimit="10" stroke-width="3" stroke-dasharray=""/><path fill="none" stroke="DarkGreen" paint-order="fill stroke markers" d=" M 200.5 150 L 200.5 160" stroke-linecap="round" stroke-miterlimit="10" stroke-width="3" stroke-dasharray=""/><path fill="none" stroke="DarkGreen" paint-order="fill stroke markers" d=" M 200.5 210 L 200.5 220" stroke-linecap="round" stroke-miterlimit="10" stroke-width="3" stroke-dasharray=""/><path fill="none" stroke="Lime" paint-order="fill stroke markers" d=" M 200.5 270 L 200.5 280" stroke-linecap="round" stroke-miterlimit="10" stroke-width="3" stroke-dasharray=""/><path fill="none" stroke="DarkGreen" paint-order="fill stroke markers" d=" M 200.5 330 L 200.5 340" stroke-linecap="round" stroke-miterlimit="10" stroke-width="3" stroke-dasharray=""/><path fill="none" stroke="DarkGreen" paint-order="fill stroke markers" d=" M 80 280.5 L 110 280.5" stroke-linecap="round" stroke-miterlimit="10" stroke-width="3" stroke-dasharray=""/><path fill="none" stroke="DarkGreen" paint-order="fill stroke markers" d=" M 240.5 140.5 L 240.5 140.5" stroke-linecap="round" stroke-miterlimit="10" stroke-width="3" stroke-dasharray=""/><path fill="none" stroke="DarkGreen" paint-order="fill stroke markers" d=" M 240 160.5 L 200 160.5" stroke-linecap="round" stroke-miterlimit="10" stroke-width="3" stroke-dasharray=""/><path fill="none" stroke="DarkGreen" paint-order="fill stroke markers" d=" M 270 150.5 L 310 150.5" stroke-linecap="round" stroke-miterlimit="10" stroke-width="3" stroke-dasharray=""/><path fill="none" stroke="DarkGreen" paint-order="fill stroke markers" d=" M 240.5 200.5 L 240.5 200.5" stroke-linecap="round" stroke-miterlimit="10" stroke-width="3" stroke-dasharray=""/><path fill="none" stroke="DarkGreen" paint-order="fill stroke markers" d=" M 240 220.5 L 200 220.5" stroke-linecap="round" stroke-miterlimit="10" stroke-width="3" stroke-dasharray=""/><path fill="none" stroke="DarkGreen" paint-order="fill stroke markers" d=" M 270 210.5 L 300 210.5" stroke-linecap="round" stroke-miterlimit="10" stroke-width="3" stroke-dasharray=""/><path fill="none" stroke="DarkGreen" paint-order="fill stroke markers" d=" M 240.5 260.5 L 240.5 260.5" stroke-linecap="round" stroke-miterlimit="10" stroke-width="3" stroke-dasharray=""/><path fill="none" stroke="Lime" paint-order="fill stroke markers" d=" M 240 280.5 L 200 280.5" stroke-linecap="round" stroke-miterlimit="10" stroke-width="3" stroke-dasharray=""/><path fill="none" stroke="DarkGreen" paint-order="fill stroke markers" d=" M 270 270.5 L 290 270.5" stroke-linecap="round" stroke-miterlimit="10" stroke-width="3" stroke-dasharray=""/><path fill="none" stroke="Lime" paint-order="fill stroke markers" d=" M 240.5 320.5 L 240.5 320.5" stroke-linecap="round" stroke-miterlimit="10" stroke-width="3" stroke-dasharray=""/><path fill="none" stroke="DarkGreen" paint-order="fill stroke markers" d=" M 240 340.5 L 200 340.5" stroke-linecap="round" stroke-miterlimit="10" stroke-width="3" stroke-dasharray=""/><path fill="none" stroke="DarkGreen" paint-order="fill stroke markers" d=" M 270 330.5 L 280 330.5" stroke-linecap="round" stroke-miterlimit="10" stroke-width="3" stroke-dasharray=""/><path fill="none" stroke="DarkGreen" paint-order="fill stroke markers" d=" M 280.5 330 L 280.5 370" stroke-linecap="round" stroke-miterlimit="10" stroke-width="3" stroke-dasharray=""/><path fill="none" stroke="DarkGreen" paint-order="fill stroke markers" d=" M 290.5 270 L 290.5 380" stroke-linecap="round" stroke-miterlimit="10" stroke-width="3" stroke-dasharray=""/><path fill="none" stroke="DarkGreen" paint-order="fill stroke markers" d=" M 300.5 210 L 300.5 390" stroke-linecap="round" stroke-miterlimit="10" stroke-width="3" stroke-dasharray=""/><path fill="none" stroke="DarkGreen" paint-order="fill stroke markers" d=" M 310.5 150 L 310.5 400" stroke-linecap="round" stroke-miterlimit="10" stroke-width="3" stroke-dasharray=""/><path fill="none" stroke="DarkGreen" paint-order="fill stroke markers" d=" M 280 370.5 L 220 370.5" stroke-linecap="round" stroke-miterlimit="10" stroke-width="3" stroke-dasharray=""/><path fill="none" stroke="DarkGreen" paint-order="fill stroke markers" d=" M 220.5 370 L 220.5 510" stroke-linecap="round" stroke-miterlimit="10" stroke-width="3" stroke-dasharray=""/><path fill="none" stroke="DarkGreen" paint-order="fill stroke markers" d=" M 290 380.5 L 230 380.5" stroke-linecap="round" stroke-miterlimit="10" stroke-width="3" stroke-dasharray=""/><path fill="none" stroke="DarkGreen" paint-order="fill stroke markers" d=" M 230.5 380 L 230.5 490" stroke-linecap="round" stroke-miterlimit="10" stroke-width="3" stroke-dasharray=""/><path fill="none" stroke="DarkGreen" paint-order="fill stroke markers" d=" M 300 390.5 L 240 390.5" stroke-linecap="round" stroke-miterlimit="10" stroke-width="3" stroke-dasharray=""/><path fill="none" stroke="DarkGreen" paint-order="fill stroke markers" d=" M 240.5 390 L 240.5 450" stroke-linecap="round" stroke-miterlimit="10" stroke-width="3" stroke-dasharray=""/><path fill="none" stroke="DarkGreen" paint-order="fill stroke markers" d=" M 310 400.5 L 250 400.5" stroke-linecap="round" stroke-miterlimit="10" stroke-width="3" stroke-dasharray=""/><path fill="none" stroke="DarkGreen" paint-order="fill stroke markers" d=" M 250.5 400 L 250.5 430" stroke-linecap="round" stroke-miterlimit="10" stroke-width="3" stroke-dasharray=""/><path fill="none" stroke="DarkGreen" paint-order="fill stroke markers" d=" M 250 430.5 L 260 430.5" stroke-linecap="round" stroke-miterlimit="10" stroke-width="3" stroke-dasharray=""/><path fill="none" stroke="DarkGreen" paint-order="fill stroke markers" d=" M 240 450.5 L 260 450.5" stroke-linecap="round" stroke-miterlimit="10" stroke-width="3" stroke-dasharray=""/><path fill="none" stroke="DarkGreen" paint-order="fill stroke markers" d=" M 230 490.5 L 260 490.5" stroke-linecap="round" stroke-miterlimit="10" stroke-width="3" stroke-dasharray=""/><path fill="none" stroke="DarkGreen" paint-order="fill stroke markers" d=" M 220 510.5 L 260 510.5" stroke-linecap="round" stroke-miterlimit="10" stroke-width="3" stroke-dasharray=""/><path fill="none" stroke="DarkGreen" paint-order="fill stroke markers" d=" M 380 430.5 L 360 430.5" stroke-linecap="round" stroke-miterlimit="10" stroke-width="3" stroke-dasharray=""/><path fill="green" stroke="none" paint-order="stroke fill markers" d=" M 83 120 A 3 3 0 1 1 82.99999850000013 119.9970000005 Z"/><path fill="green" stroke="none" paint-order="stroke fill markers" d=" M 63 120 A 3 3 0 1 1 62.999998500000125 119.9970000005 Z"/><path fill="green" stroke="none" paint-order="stroke fill markers" d=" M 153 140 A 3 3 0 1 1 152.99999850000012 139.9970000005 Z"/><path fill="green" stroke="none" paint-order="stroke fill markers" d=" M 153 160 A 3 3 0 1 1 152.99999850000012 159.9970000005 Z"/><path fill="green" stroke="none" paint-order="stroke fill markers" d=" M 183 150 A 3 3 0 1 1 182.99999850000012 149.9970000005 Z"/><path fill="green" stroke="none" paint-order="stroke fill markers" d=" M 153 200 A 3 3 0 1 1 152.99999850000012 199.9970000005 Z"/><path fill="green" stroke="none" paint-order="stroke fill markers" d=" M 153 220 A 3 3 0 1 1 152.99999850000012 219.9970000005 Z"/><path fill="green" stroke="none" paint-order="stroke fill markers" d=" M 183 210 A 3 3 0 1 1 182.99999850000012 209.9970000005 Z"/><path fill="green" stroke="none" paint-order="stroke fill markers" d=" M 153 260 A 3 3 0 1 1 152.99999850000012 259.9970000005 Z"/><path fill="green" stroke="none" paint-order="stroke fill markers" d=" M 153 280 A 3 3 0 1 1 152.99999850000012 279.9970000005 Z"/><path fill="green" stroke="none" paint-order="stroke fill markers" d=" M 183 270 A 3 3 0 1 1 182.99999850000012 269.9970000005 Z"/><path fill="green" stroke="none" paint-order="stroke fill markers" d=" M 153 320 A 3 3 0 1 1 152.99999850000012 319.9970000005 Z"/><path fill="green" stroke="none" paint-order="stroke fill markers" d=" M 153 340 A 3 3 0 1 1 152.99999850000012 339.9970000005 Z"/><path fill="green" stroke="none" paint-order="stroke fill markers" d=" M 183 330 A 3 3 0 1 1 182.99999850000012 329.9970000005 Z"/><path fill="lightgreen" stroke="none" paint-order="stroke fill markers" d=" M 63 200 A 3 3 0 1 1 62.999998500000125 199.9970000005 Z"/><path fill="green" stroke="none" paint-order="stroke fill markers" d=" M 83 220 A 3 3 0 1 1 82.99999850000013 219.9970000005 Z"/><path fill="lightgreen" stroke="none" paint-order="stroke fill markers" d=" M 63 320 A 3 3 0 1 1 62.999998500000125 319.9970000005 Z"/><path fill="green" stroke="none" paint-order="stroke fill markers" d=" M 83 340 A 3 3 0 1 1 82.99999850000013 339.9970000005 Z"/><path fill="lightgreen" stroke="none" paint-order="stroke fill markers" d=" M 63 140 A 3 3 0 1 1 62.999998500000125 139.9970000005 Z"/><path fill="green" stroke="none" paint-order="stroke fill markers" d=" M 83 160 A 3 3 0 1 1 82.99999850000013 159.9970000005 Z"/><path fill="green" stroke="none" paint-order="stroke fill markers" d=" M 203 150 A 3 3 0 1 1 202.99999850000012 149.9970000005 Z"/><path fill="green" stroke="none" paint-order="stroke fill markers" d=" M 203 210 A 3 3 0 1 1 202.99999850000012 209.9970000005 Z"/><path fill="lightgreen" stroke="none" paint-order="stroke fill markers" d=" M 203 270 A 3 3 0 1 1 202.99999850000012 269.9970000005 Z"/><path fill="green" stroke="none" paint-order="stroke fill markers" d=" M 203 330 A 3 3 0 1 1 202.99999850000012 329.9970000005 Z"/><path fill="green" stroke="none" paint-order="stroke fill markers" d=" M 113 160 A 3 3 0 1 1 112.99999850000013 159.9970000005 Z"/><path fill="green" stroke="none" paint-order="stroke fill markers" d=" M 143 160 A 3 3 0 1 1 142.99999850000012 159.9970000005 Z"/><path fill="green" stroke="none" paint-order="stroke fill markers" d=" M 113 200 A 3 3 0 1 1 112.99999850000013 199.9970000005 Z"/><path fill="green" stroke="none" paint-order="stroke fill markers" d=" M 143 200 A 3 3 0 1 1 142.99999850000012 199.9970000005 Z"/><path fill="lightgreen" stroke="none" paint-order="stroke fill markers" d=" M 63 260 A 3 3 0 1 1 62.999998500000125 259.9970000005 Z"/><path fill="green" stroke="none" paint-order="stroke fill markers" d=" M 83 280 A 3 3 0 1 1 82.99999850000013 279.9970000005 Z"/><path fill="green" stroke="none" paint-order="stroke fill markers" d=" M 113 140 A 3 3 0 1 1 112.99999850000013 139.9970000005 Z"/><path fill="green" stroke="none" paint-order="stroke fill markers" d=" M 143 140 A 3 3 0 1 1 142.99999850000012 139.9970000005 Z"/><path fill="green" stroke="none" paint-order="stroke fill markers" d=" M 113 280 A 3 3 0 1 1 112.99999850000013 279.9970000005 Z"/><path fill="green" stroke="none" paint-order="stroke fill markers" d=" M 143 280 A 3 3 0 1 1 142.99999850000012 279.9970000005 Z"/><path fill="green" stroke="none" paint-order="stroke fill markers" d=" M 243 140 A 3 3 0 1 1 242.99999850000012 139.9970000005 Z"/><path fill="green" stroke="none" paint-order="stroke fill markers" d=" M 243 160 A 3 3 0 1 1 242.99999850000012 159.9970000005 Z"/><path fill="green" stroke="none" paint-order="stroke fill markers" d=" M 273 150 A 3 3 0 1 1 272.9999985000001 149.9970000005 Z"/><path fill="green" stroke="none" paint-order="stroke fill markers" d=" M 243 140 A 3 3 0 1 1 242.99999850000012 139.9970000005 Z"/><path fill="green" stroke="none" paint-order="stroke fill markers" d=" M 203 160 A 3 3 0 1 1 202.99999850000012 159.9970000005 Z"/><path fill="green" stroke="none" paint-order="stroke fill markers" d=" M 243 200 A 3 3 0 1 1 242.99999850000012 199.9970000005 Z"/><path fill="green" stroke="none" paint-order="stroke fill markers" d=" M 243 220 A 3 3 0 1 1 242.99999850000012 219.9970000005 Z"/><path fill="green" stroke="none" paint-order="stroke fill markers" d=" M 273 210 A 3 3 0 1 1 272.9999985000001 209.9970000005 Z"/><path fill="green" stroke="none" paint-order="stroke fill markers" d=" M 243 200 A 3 3 0 1 1 242.99999850000012 199.9970000005 Z"/><path fill="green" stroke="none" paint-order="stroke fill markers" d=" M 203 220 A 3 3 0 1 1 202.99999850000012 219.9970000005 Z"/><path fill="green" stroke="none" paint-order="stroke fill markers" d=" M 243 260 A 3 3 0 1 1 242.99999850000012 259.9970000005 Z"/><path fill="green" stroke="none" paint-order="stroke fill markers" d=" M 243 280 A 3 3 0 1 1 242.99999850000012 279.9970000005 Z"/><path fill="green" stroke="none" paint-order="stroke fill markers" d=" M 273 270 A 3 3 0 1 1 272.9999985000001 269.9970000005 Z"/><path fill="green" stroke="none" paint-order="stroke fill markers" d=" M 243 260 A 3 3 0 1 1 242.99999850000012 259.9970000005 Z"/><path fill="lightgreen" stroke="none" paint-order="stroke fill markers" d=" M 203 280 A 3 3 0 1 1 202.99999850000012 279.9970000005 Z"/><path fill="green" stroke="none" paint-order="stroke fill markers" d=" M 243 320 A 3 3 0 1 1 242.99999850000012 319.9970000005 Z"/><path fill="green" stroke="none" paint-order="stroke fill markers" d=" M 243 340 A 3 3 0 1 1 242.99999850000012 339.9970000005 Z"/><path fill="green" stroke="none" paint-order="stroke fill markers" d=" M 273 330 A 3 3 0 1 1 272.9999985000001 329.9970000005 Z"/><path fill="green" stroke="none" paint-order="stroke fill markers" d=" M 243 320 A 3 3 0 1 1 242.99999850000012 319.9970000005 Z"/><path fill="green" stroke="none" paint-order="stroke fill markers" d=" M 203 340 A 3 3 0 1 1 202.99999850000012 339.9970000005 Z"/><path fill="green" stroke="none" paint-order="stroke fill markers" d=" M 283 330 A 3 3 0 1 1 282.9999985000001 329.9970000005 Z"/><path fill="green" stroke="none" paint-order="stroke fill markers" d=" M 293 270 A 3 3 0 1 1 292.9999985000001 269.9970000005 Z"/><path fill="green" stroke="none" paint-order="stroke fill markers" d=" M 303 210 A 3 3 0 1 1 302.9999985000001 209.9970000005 Z"/><path fill="green" stroke="none" paint-order="stroke fill markers" d=" M 313 150 A 3 3 0 1 1 312.9999985000001 149.9970000005 Z"/><path fill="green" stroke="none" paint-order="stroke fill markers" d=" M 283 370 A 3 3 0 1 1 282.9999985000001 369.9970000005 Z"/><path fill="green" stroke="none" paint-order="stroke fill markers" d=" M 223 370 A 3 3 0 1 1 222.99999850000012 369.9970000005 Z"/><path fill="green" stroke="none" paint-order="stroke fill markers" d=" M 293 380 A 3 3 0 1 1 292.9999985000001 379.9970000005 Z"/><path fill="green" stroke="none" paint-order="stroke fill markers" d=" M 233 380 A 3 3 0 1 1 232.99999850000012 379.9970000005 Z"/><path fill="green" stroke="none" paint-order="stroke fill markers" d=" M 303 390 A 3 3 0 1 1 302.9999985000001 389.9970000005 Z"/><path fill="green" stroke="none" paint-order="stroke fill markers" d=" M 243 390 A 3 3 0 1 1 242.99999850000012 389.9970000005 Z"/><path fill="green" stroke="none" paint-order="stroke fill markers" d=" M 313 400 A 3 3 0 1 1 312.9999985000001 399.9970000005 Z"/><path fill="green" stroke="none" paint-order="stroke fill markers" d=" M 253 400 A 3 3 0 1 1 252.99999850000012 399.9970000005 Z"/><path fill="green" stroke="none" paint-order="stroke fill markers" d=" M 253 430 A 3 3 0 1 1 252.99999850000012 429.9970000005 Z"/><path fill="green" stroke="none" paint-order="stroke fill markers" d=" M 243 450 A 3 3 0 1 1 242.99999850000012 449.9970000005 Z"/><path fill="green" stroke="none" paint-order="stroke fill markers" d=" M 233 490 A 3 3 0 1 1 232.99999850000012 489.9970000005 Z"/><path fill="green" stroke="none" paint-order="stroke fill markers" d=" M 223 510 A 3 3 0 1 1 222.99999850000012 509.9970000005 Z"/><path fill="green" stroke="none" paint-order="stroke fill markers" d=" M 383 430 A 3 3 0 1 1 382.9999985000001 429.9970000005 Z"/><path fill="green" stroke="none" paint-order="stroke fill markers" d=" M 363 430 A 3 3 0 1 1 362.9999985000001 429.9970000005 Z"/><path fill="green" stroke="none" paint-order="stroke fill markers" d=" M 263 430 A 3 3 0 1 1 262.9999985000001 429.9970000005 Z"/><path fill="green" stroke="none" paint-order="stroke fill markers" d=" M 263 450 A 3 3 0 1 1 262.9999985000001 449.9970000005 Z"/><path fill="green" stroke="none" paint-order="stroke fill markers" d=" M 263 490 A 3 3 0 1 1 262.9999985000001 489.9970000005 Z"/><path fill="green" stroke="none" paint-order="stroke fill markers" d=" M 263 510 A 3 3 0 1 1 262.9999985000001 509.9970000005 Z"/></g></svg>