<svg version="1.1" xmlns="http://www.w3.org/2000/svg" xmlns:xlink="http://www.w3.org/1999/xlink" width="1036" height="594"><defs/><g><rect fill="#FFFFFF" stroke="none" x="0" y="0" width="357" height="540"/><path fill="white" stroke="none" paint-order="stroke fill markers" d=" M 0 0 L 357.7333984375 0 L 357.7333984375 540 L 0 540 L 0 0 Z"/><path fill="none" stroke="none"/><text fill="black" stroke="none" font-family="Georgia" font-size="14px" font-style="normal" font-weight="normal" text-decoration="normal" x="60" y="195" text-anchor="start" dominant-baseline="alphabetic">DMux4Way</text><path fill="none" stroke="none"/><text fill="black" stroke="none" font-family="Georgia" font-size="14px" font-style="normal" font-weight="normal" text-decoration="normal" x="60" y="65" text-anchor="start" dominant-baseline="alphabetic"> * 4-way demultiplexor:</text><path fill="none" stroke="none"/><text fill="black" stroke="none" font-family="Georgia" font-size="14px" font-style="normal" font-weight="normal" text-decoration="normal" x="60" y="85" text-anchor="start" dominant-baseline="alphabetic"> * {a, b, c, d} = {in, 0, 0, 0} if sel == 00</text><path fill="none" stroke="none"/><text fill="black" stroke="none" font-family="Georgia" font-size="14px" font-style="normal" font-weight="normal" text-decoration="normal" x="60" y="105" text-anchor="start" dominant-baseline="alphabetic"> *                {0, in, 0, 0} if sel == 01</text><path fill="none" stroke="none"/><text fill="black" stroke="none" font-family="Georgia" font-size="14px" font-style="normal" font-weight="normal" text-decoration="normal" x="60" y="125" text-anchor="start" dominant-baseline="alphabetic"> *                {0, 0, in, 0} if sel == 10</text><path fill="none" stroke="none"/><text fill="black" stroke="none" font-family="Georgia" font-size="14px" font-style="normal" font-weight="normal" text-decoration="normal" x="60" y="145" text-anchor="start" dominant-baseline="alphabetic"> *                {0, 0, 0, in} if sel == 11</text><path fill="white" stroke="black" paint-order="fill stroke markers" d=" M 140.5 260.5 L 150.5 260.5 L 150.5 260.5 A 20 20 0 0 1 150.5 300.5 L 140.5 300.5 L 140.5 260.5 Z" stroke-miterlimit="10" stroke-width="3" stroke-dasharray=""/><path fill="white" stroke="black" paint-order="fill stroke markers" d=" M 140.5 320.5 L 150.5 320.5 L 150.5 320.5 A 20 20 0 0 1 150.5 360.5 L 140.5 360.5 L 140.5 320.5 Z" stroke-miterlimit="10" stroke-width="3" stroke-dasharray=""/><path fill="white" stroke="black" paint-order="fill stroke markers" d=" M 140.5 380.5 L 150.5 380.5 L 150.5 380.5 A 20 20 0 0 1 150.5 420.5 L 140.5 420.5 L 140.5 380.5 Z" stroke-miterlimit="10" stroke-width="3" stroke-dasharray=""/><path fill="white" stroke="black" paint-order="fill stroke markers" d=" M 140.5 440.5 L 150.5 440.5 L 150.5 440.5 A 20 20 0 0 1 150.5 480.5 L 140.5 480.5 L 140.5 440.5 Z" stroke-miterlimit="10" stroke-width="3" stroke-dasharray=""/><path fill="white" stroke="black" paint-order="fill stroke markers" d=" M 230.5 260.5 L 240.5 260.5 L 240.5 260.5 A 20 20 0 0 1 240.5 300.5 L 230.5 300.5 L 230.5 260.5 Z" stroke-miterlimit="10" stroke-width="3" stroke-dasharray=""/><path fill="white" stroke="black" paint-order="fill stroke markers" d=" M 230.5 320.5 L 240.5 320.5 L 240.5 320.5 A 20 20 0 0 1 240.5 360.5 L 230.5 360.5 L 230.5 320.5 Z" stroke-miterlimit="10" stroke-width="3" stroke-dasharray=""/><path fill="white" stroke="black" paint-order="fill stroke markers" d=" M 230.5 380.5 L 240.5 380.5 L 240.5 380.5 A 20 20 0 0 1 240.5 420.5 L 230.5 420.5 L 230.5 380.5 Z" stroke-miterlimit="10" stroke-width="3" stroke-dasharray=""/><path fill="white" stroke="black" paint-order="fill stroke markers" d=" M 230.5 440.5 L 240.5 440.5 L 240.5 440.5 A 20 20 0 0 1 240.5 480.5 L 230.5 480.5 L 230.5 440.5 Z" stroke-miterlimit="10" stroke-width="3" stroke-dasharray=""/><path fill="white" stroke="black" paint-order="fill stroke markers" d=" M 100.5 280.5 L 120.5 290.5 L 100.5 300.5 Z" stroke-miterlimit="10" stroke-width="3" stroke-dasharray=""/><path fill="none" stroke="black" paint-order="fill stroke markers" d=" M 130 290 A 5 5 0 1 1 129.9999975000002 289.99500000083333" stroke-miterlimit="10" stroke-width="3" stroke-dasharray=""/><path fill="white" stroke="black" paint-order="fill stroke markers" d=" M 100.5 260.5 L 120.5 270.5 L 100.5 280.5 Z" stroke-miterlimit="10" stroke-width="3" stroke-dasharray=""/><path fill="none" stroke="black" paint-order="fill stroke markers" d=" M 130 270 A 5 5 0 1 1 129.9999975000002 269.99500000083333" stroke-miterlimit="10" stroke-width="3" stroke-dasharray=""/><path fill="white" stroke="black" paint-order="fill stroke markers" d=" M 100.5 380.5 L 120.5 390.5 L 100.5 400.5 Z" stroke-miterlimit="10" stroke-width="3" stroke-dasharray=""/><path fill="none" stroke="black" paint-order="fill stroke markers" d=" M 130 390 A 5 5 0 1 1 129.9999975000002 389.99500000083333" stroke-miterlimit="10" stroke-width="3" stroke-dasharray=""/><path fill="white" stroke="black" paint-order="fill stroke markers" d=" M 100.5 340.5 L 120.5 350.5 L 100.5 360.5 Z" stroke-miterlimit="10" stroke-width="3" stroke-dasharray=""/><path fill="none" stroke="black" paint-order="fill stroke markers" d=" M 130 350 A 5 5 0 1 1 129.9999975000002 349.99500000083333" stroke-miterlimit="10" stroke-width="3" stroke-dasharray=""/><path fill="none" stroke="none"/><text fill="black" stroke="none" font-family="Georgia" font-size="14px" font-style="normal" font-weight="normal" text-decoration="normal" x="310" y="285" text-anchor="start" dominant-baseline="alphabetic">a</text><path fill="white" stroke="blue" paint-order="fill stroke markers" d=" M 280.5 270.5 L 300.5 270.5 L 300.5 290.5 L 280.5 290.5 L 280.5 270.5 Z" stroke-miterlimit="10" stroke-width="3" stroke-dasharray=""/><path fill="none" stroke="none"/><text fill="green" stroke="none" font-family="Georgia" font-size="20px" font-style="normal" font-weight="normal" text-decoration="normal" x="290" y="285" text-anchor="middle" dominant-baseline="alphabetic">1</text><path fill="none" stroke="none"/><text fill="black" stroke="none" font-family="Georgia" font-size="14px" font-style="normal" font-weight="normal" text-decoration="normal" x="310" y="345" text-anchor="start" dominant-baseline="alphabetic">b</text><path fill="white" stroke="blue" paint-order="fill stroke markers" d=" M 280.5 330.5 L 300.5 330.5 L 300.5 350.5 L 280.5 350.5 L 280.5 330.5 Z" stroke-miterlimit="10" stroke-width="3" stroke-dasharray=""/><path fill="none" stroke="none"/><text fill="green" stroke="none" font-family="Georgia" font-size="20px" font-style="normal" font-weight="normal" text-decoration="normal" x="290" y="345" text-anchor="middle" dominant-baseline="alphabetic">0</text><path fill="none" stroke="none"/><text fill="black" stroke="none" font-family="Georgia" font-size="14px" font-style="normal" font-weight="normal" text-decoration="normal" x="310" y="405" text-anchor="start" dominant-baseline="alphabetic">c</text><path fill="white" stroke="blue" paint-order="fill stroke markers" d=" M 280.5 390.5 L 300.5 390.5 L 300.5 410.5 L 280.5 410.5 L 280.5 390.5 Z" stroke-miterlimit="10" stroke-width="3" stroke-dasharray=""/><path fill="none" stroke="none"/><text fill="green" stroke="none" font-family="Georgia" font-size="20px" font-style="normal" font-weight="normal" text-decoration="normal" x="290" y="405" text-anchor="middle" dominant-baseline="alphabetic">0</text><path fill="none" stroke="none"/><text fill="black" stroke="none" font-family="Georgia" font-size="14px" font-style="normal" font-weight="normal" text-decoration="normal" x="310" y="465" text-anchor="start" dominant-baseline="alphabetic">d</text><path fill="white" stroke="blue" paint-order="fill stroke markers" d=" M 280.5 450.5 L 300.5 450.5 L 300.5 470.5 L 280.5 470.5 L 280.5 450.5 Z" stroke-miterlimit="10" stroke-width="3" stroke-dasharray=""/><path fill="none" stroke="none"/><text fill="green" stroke="none" font-family="Georgia" font-size="20px" font-style="normal" font-weight="normal" text-decoration="normal" x="290" y="465" text-anchor="middle" dominant-baseline="alphabetic">0</text><path fill="white" stroke="black" paint-order="fill stroke markers" d=" M 50.5 230.5 L 70.5 230.5 L 70.5 250.5 L 50.5 250.5 L 50.5 230.5 Z" stroke-miterlimit="10" stroke-width="3" stroke-dasharray=""/><path fill="none" stroke="none"/><text fill="black" stroke="none" font-family="Georgia" font-size="14px" font-style="normal" font-weight="normal" text-decoration="normal" x="60" y="225" text-anchor="middle" dominant-baseline="alphabetic">s1</text><path fill="none" stroke="none"/><path fill="none" stroke="none"/><text fill="green" stroke="none" font-family="Georgia" font-size="20px" font-style="normal" font-weight="normal" text-decoration="normal" x="60" y="245" text-anchor="middle" dominant-baseline="alphabetic">0</text><path fill="white" stroke="black" paint-order="fill stroke markers" d=" M 70.5 230.5 L 90.5 230.5 L 90.5 250.5 L 70.5 250.5 L 70.5 230.5 Z" stroke-miterlimit="10" stroke-width="3" stroke-dasharray=""/><path fill="none" stroke="none"/><text fill="black" stroke="none" font-family="Georgia" font-size="14px" font-style="normal" font-weight="normal" text-decoration="normal" x="80" y="225" text-anchor="middle" dominant-baseline="alphabetic">s0</text><path fill="none" stroke="none"/><path fill="none" stroke="none"/><text fill="green" stroke="none" font-family="Georgia" font-size="20px" font-style="normal" font-weight="normal" text-decoration="normal" x="80" y="245" text-anchor="middle" dominant-baseline="alphabetic">0</text><path fill="white" stroke="black" paint-order="fill stroke markers" d=" M 190.5 230.5 L 210.5 230.5 L 210.5 250.5 L 190.5 250.5 L 190.5 230.5 Z" stroke-miterlimit="10" stroke-width="3" stroke-dasharray=""/><path fill="none" stroke="none"/><text fill="black" stroke="none" font-family="Georgia" font-size="14px" font-style="normal" font-weight="normal" text-decoration="normal" x="200" y="225" text-anchor="middle" dominant-baseline="alphabetic">in</text><path fill="none" stroke="none"/><path fill="none" stroke="none"/><text fill="green" stroke="none" font-family="Georgia" font-size="20px" font-style="normal" font-weight="normal" text-decoration="normal" x="200" y="245" text-anchor="middle" dominant-baseline="alphabetic">1</text><path fill="none" stroke="DarkGreen" paint-order="fill stroke markers" d=" M 60.5 250 L 60.5 290" stroke-linecap="round" stroke-miterlimit="10" stroke-width="3" stroke-dasharray=""/><path fill="none" stroke="DarkGreen" paint-order="fill stroke markers" d=" M 80.5 250 L 80.5 270" stroke-linecap="round" stroke-miterlimit="10" stroke-width="3" stroke-dasharray=""/><path fill="none" stroke="Lime" paint-order="fill stroke markers" d=" M 140 270.5 L 130 270.5" stroke-linecap="round" stroke-miterlimit="10" stroke-width="3" stroke-dasharray=""/><path fill="none" stroke="Lime" paint-order="fill stroke markers" d=" M 140 290.5 L 130 290.5" stroke-linecap="round" stroke-miterlimit="10" stroke-width="3" stroke-dasharray=""/><path fill="none" stroke="Lime" paint-order="fill stroke markers" d=" M 170 280.5 L 190 280.5" stroke-linecap="round" stroke-miterlimit="10" stroke-width="3" stroke-dasharray=""/><path fill="none" stroke="DarkGreen" paint-order="fill stroke markers" d=" M 140 330.5 L 80 330.5" stroke-linecap="round" stroke-miterlimit="10" stroke-width="3" stroke-dasharray=""/><path fill="none" stroke="Lime" paint-order="fill stroke markers" d=" M 140 350.5 L 130 350.5" stroke-linecap="round" stroke-miterlimit="10" stroke-width="3" stroke-dasharray=""/><path fill="none" stroke="DarkGreen" paint-order="fill stroke markers" d=" M 170 340.5 L 190 340.5" stroke-linecap="round" stroke-miterlimit="10" stroke-width="3" stroke-dasharray=""/><path fill="none" stroke="Lime" paint-order="fill stroke markers" d=" M 140 390.5 L 130 390.5" stroke-linecap="round" stroke-miterlimit="10" stroke-width="3" stroke-dasharray=""/><path fill="none" stroke="DarkGreen" paint-order="fill stroke markers" d=" M 140 410.5 L 60 410.5" stroke-linecap="round" stroke-miterlimit="10" stroke-width="3" stroke-dasharray=""/><path fill="none" stroke="DarkGreen" paint-order="fill stroke markers" d=" M 170 400.5 L 190 400.5" stroke-linecap="round" stroke-miterlimit="10" stroke-width="3" stroke-dasharray=""/><path fill="none" stroke="DarkGreen" paint-order="fill stroke markers" d=" M 140 450.5 L 80 450.5" stroke-linecap="round" stroke-miterlimit="10" stroke-width="3" stroke-dasharray=""/><path fill="none" stroke="DarkGreen" paint-order="fill stroke markers" d=" M 140 470.5 L 60 470.5" stroke-linecap="round" stroke-miterlimit="10" stroke-width="3" stroke-dasharray=""/><path fill="none" stroke="DarkGreen" paint-order="fill stroke markers" d=" M 170 460.5 L 190 460.5" stroke-linecap="round" stroke-miterlimit="10" stroke-width="3" stroke-dasharray=""/><path fill="none" stroke="DarkGreen" paint-order="fill stroke markers" d=" M 60.5 350 L 60.5 290" stroke-linecap="round" stroke-miterlimit="10" stroke-width="3" stroke-dasharray=""/><path fill="none" stroke="DarkGreen" paint-order="fill stroke markers" d=" M 60 350.5 L 100 350.5" stroke-linecap="round" stroke-miterlimit="10" stroke-width="3" stroke-dasharray=""/><path fill="none" stroke="DarkGreen" paint-order="fill stroke markers" d=" M 60.5 350 L 60.5 410" stroke-linecap="round" stroke-miterlimit="10" stroke-width="3" stroke-dasharray=""/><path fill="none" stroke="DarkGreen" paint-order="fill stroke markers" d=" M 80.5 450 L 80.5 390" stroke-linecap="round" stroke-miterlimit="10" stroke-width="3" stroke-dasharray=""/><path fill="none" stroke="DarkGreen" paint-order="fill stroke markers" d=" M 60.5 470 L 60.5 410" stroke-linecap="round" stroke-miterlimit="10" stroke-width="3" stroke-dasharray=""/><path fill="none" stroke="DarkGreen" paint-order="fill stroke markers" d=" M 80 270.5 L 100 270.5" stroke-linecap="round" stroke-miterlimit="10" stroke-width="3" stroke-dasharray=""/><path fill="none" stroke="DarkGreen" paint-order="fill stroke markers" d=" M 80.5 270 L 80.5 330" stroke-linecap="round" stroke-miterlimit="10" stroke-width="3" stroke-dasharray=""/><path fill="none" stroke="DarkGreen" paint-order="fill stroke markers" d=" M 60 290.5 L 100 290.5" stroke-linecap="round" stroke-miterlimit="10" stroke-width="3" stroke-dasharray=""/><path fill="none" stroke="Lime" paint-order="fill stroke markers" d=" M 190.5 280 L 190.5 310" stroke-linecap="round" stroke-miterlimit="10" stroke-width="3" stroke-dasharray=""/><path fill="none" stroke="DarkGreen" paint-order="fill stroke markers" d=" M 190.5 340 L 190.5 370" stroke-linecap="round" stroke-miterlimit="10" stroke-width="3" stroke-dasharray=""/><path fill="none" stroke="DarkGreen" paint-order="fill stroke markers" d=" M 190.5 400 L 190.5 430" stroke-linecap="round" stroke-miterlimit="10" stroke-width="3" stroke-dasharray=""/><path fill="none" stroke="DarkGreen" paint-order="fill stroke markers" d=" M 190.5 460 L 190.5 490" stroke-linecap="round" stroke-miterlimit="10" stroke-width="3" stroke-dasharray=""/><path fill="none" stroke="DarkGreen" paint-order="fill stroke markers" d=" M 80 390.5 L 100 390.5" stroke-linecap="round" stroke-miterlimit="10" stroke-width="3" stroke-dasharray=""/><path fill="none" stroke="DarkGreen" paint-order="fill stroke markers" d=" M 80.5 390 L 80.5 330" stroke-linecap="round" stroke-miterlimit="10" stroke-width="3" stroke-dasharray=""/><path fill="none" stroke="Lime" paint-order="fill stroke markers" d=" M 230 270.5 L 200 270.5" stroke-linecap="round" stroke-miterlimit="10" stroke-width="3" stroke-dasharray=""/><path fill="none" stroke="Lime" paint-order="fill stroke markers" d=" M 230 290.5 L 210 290.5" stroke-linecap="round" stroke-miterlimit="10" stroke-width="3" stroke-dasharray=""/><path fill="none" stroke="Lime" paint-order="fill stroke markers" d=" M 260 280.5 L 280 280.5" stroke-linecap="round" stroke-miterlimit="10" stroke-width="3" stroke-dasharray=""/><path fill="none" stroke="Lime" paint-order="fill stroke markers" d=" M 190 310.5 L 210 310.5" stroke-linecap="round" stroke-miterlimit="10" stroke-width="3" stroke-dasharray=""/><path fill="none" stroke="Lime" paint-order="fill stroke markers" d=" M 210.5 310 L 210.5 290" stroke-linecap="round" stroke-miterlimit="10" stroke-width="3" stroke-dasharray=""/><path fill="none" stroke="Lime" paint-order="fill stroke markers" d=" M 230 330.5 L 200 330.5" stroke-linecap="round" stroke-miterlimit="10" stroke-width="3" stroke-dasharray=""/><path fill="none" stroke="DarkGreen" paint-order="fill stroke markers" d=" M 230 350.5 L 210 350.5" stroke-linecap="round" stroke-miterlimit="10" stroke-width="3" stroke-dasharray=""/><path fill="none" stroke="DarkGreen" paint-order="fill stroke markers" d=" M 260 340.5 L 280 340.5" stroke-linecap="round" stroke-miterlimit="10" stroke-width="3" stroke-dasharray=""/><path fill="none" stroke="DarkGreen" paint-order="fill stroke markers" d=" M 210.5 370 L 210.5 350" stroke-linecap="round" stroke-miterlimit="10" stroke-width="3" stroke-dasharray=""/><path fill="none" stroke="DarkGreen" paint-order="fill stroke markers" d=" M 210 370.5 L 190 370.5" stroke-linecap="round" stroke-miterlimit="10" stroke-width="3" stroke-dasharray=""/><path fill="none" stroke="Lime" paint-order="fill stroke markers" d=" M 230 390.5 L 200 390.5" stroke-linecap="round" stroke-miterlimit="10" stroke-width="3" stroke-dasharray=""/><path fill="none" stroke="DarkGreen" paint-order="fill stroke markers" d=" M 230 410.5 L 210 410.5" stroke-linecap="round" stroke-miterlimit="10" stroke-width="3" stroke-dasharray=""/><path fill="none" stroke="DarkGreen" paint-order="fill stroke markers" d=" M 260 400.5 L 280 400.5" stroke-linecap="round" stroke-miterlimit="10" stroke-width="3" stroke-dasharray=""/><path fill="none" stroke="DarkGreen" paint-order="fill stroke markers" d=" M 210.5 430 L 210.5 410" stroke-linecap="round" stroke-miterlimit="10" stroke-width="3" stroke-dasharray=""/><path fill="none" stroke="DarkGreen" paint-order="fill stroke markers" d=" M 210 430.5 L 190 430.5" stroke-linecap="round" stroke-miterlimit="10" stroke-width="3" stroke-dasharray=""/><path fill="none" stroke="Lime" paint-order="fill stroke markers" d=" M 230 450.5 L 200 450.5" stroke-linecap="round" stroke-miterlimit="10" stroke-width="3" stroke-dasharray=""/><path fill="none" stroke="DarkGreen" paint-order="fill stroke markers" d=" M 230 470.5 L 210 470.5" stroke-linecap="round" stroke-miterlimit="10" stroke-width="3" stroke-dasharray=""/><path fill="none" stroke="DarkGreen" paint-order="fill stroke markers" d=" M 260 460.5 L 280 460.5" stroke-linecap="round" stroke-miterlimit="10" stroke-width="3" stroke-dasharray=""/><path fill="none" stroke="DarkGreen" paint-order="fill stroke markers" d=" M 210.5 490 L 210.5 470" stroke-linecap="round" stroke-miterlimit="10" stroke-width="3" stroke-dasharray=""/><path fill="none" stroke="DarkGreen" paint-order="fill stroke markers" d=" M 210 490.5 L 190 490.5" stroke-linecap="round" stroke-miterlimit="10" stroke-width="3" stroke-dasharray=""/><path fill="none" stroke="Lime" paint-order="fill stroke markers" d=" M 200.5 250 L 200.5 270" stroke-linecap="round" stroke-miterlimit="10" stroke-width="3" stroke-dasharray=""/><path fill="none" stroke="Lime" paint-order="fill stroke markers" d=" M 200.5 450 L 200.5 390" stroke-linecap="round" stroke-miterlimit="10" stroke-width="3" stroke-dasharray=""/><path fill="none" stroke="Lime" paint-order="fill stroke markers" d=" M 200.5 270 L 200.5 330" stroke-linecap="round" stroke-miterlimit="10" stroke-width="3" stroke-dasharray=""/><path fill="none" stroke="Lime" paint-order="fill stroke markers" d=" M 200.5 330 L 200.5 390" stroke-linecap="round" stroke-miterlimit="10" stroke-width="3" stroke-dasharray=""/><path fill="green" stroke="none" paint-order="stroke fill markers" d=" M 63 250 A 3 3 0 1 1 62.999998500000125 249.9970000005 Z"/><path fill="green" stroke="none" paint-order="stroke fill markers" d=" M 83 250 A 3 3 0 1 1 82.99999850000013 249.9970000005 Z"/><path fill="green" stroke="none" paint-order="stroke fill markers" d=" M 143 270 A 3 3 0 1 1 142.99999850000012 269.9970000005 Z"/><path fill="green" stroke="none" paint-order="stroke fill markers" d=" M 143 290 A 3 3 0 1 1 142.99999850000012 289.9970000005 Z"/><path fill="green" stroke="none" paint-order="stroke fill markers" d=" M 173 280 A 3 3 0 1 1 172.99999850000012 279.9970000005 Z"/><path fill="green" stroke="none" paint-order="stroke fill markers" d=" M 143 330 A 3 3 0 1 1 142.99999850000012 329.9970000005 Z"/><path fill="green" stroke="none" paint-order="stroke fill markers" d=" M 143 350 A 3 3 0 1 1 142.99999850000012 349.9970000005 Z"/><path fill="green" stroke="none" paint-order="stroke fill markers" d=" M 173 340 A 3 3 0 1 1 172.99999850000012 339.9970000005 Z"/><path fill="green" stroke="none" paint-order="stroke fill markers" d=" M 143 390 A 3 3 0 1 1 142.99999850000012 389.9970000005 Z"/><path fill="green" stroke="none" paint-order="stroke fill markers" d=" M 143 410 A 3 3 0 1 1 142.99999850000012 409.9970000005 Z"/><path fill="green" stroke="none" paint-order="stroke fill markers" d=" M 173 400 A 3 3 0 1 1 172.99999850000012 399.9970000005 Z"/><path fill="green" stroke="none" paint-order="stroke fill markers" d=" M 143 450 A 3 3 0 1 1 142.99999850000012 449.9970000005 Z"/><path fill="green" stroke="none" paint-order="stroke fill markers" d=" M 143 470 A 3 3 0 1 1 142.99999850000012 469.9970000005 Z"/><path fill="green" stroke="none" paint-order="stroke fill markers" d=" M 173 460 A 3 3 0 1 1 172.99999850000012 459.9970000005 Z"/><path fill="green" stroke="none" paint-order="stroke fill markers" d=" M 63 350 A 3 3 0 1 1 62.999998500000125 349.9970000005 Z"/><path fill="green" stroke="none" paint-order="stroke fill markers" d=" M 83 450 A 3 3 0 1 1 82.99999850000013 449.9970000005 Z"/><path fill="green" stroke="none" paint-order="stroke fill markers" d=" M 63 470 A 3 3 0 1 1 62.999998500000125 469.9970000005 Z"/><path fill="green" stroke="none" paint-order="stroke fill markers" d=" M 83 270 A 3 3 0 1 1 82.99999850000013 269.9970000005 Z"/><path fill="green" stroke="none" paint-order="stroke fill markers" d=" M 63 290 A 3 3 0 1 1 62.999998500000125 289.9970000005 Z"/><path fill="lightgreen" stroke="none" paint-order="stroke fill markers" d=" M 193 280 A 3 3 0 1 1 192.99999850000012 279.9970000005 Z"/><path fill="green" stroke="none" paint-order="stroke fill markers" d=" M 193 340 A 3 3 0 1 1 192.99999850000012 339.9970000005 Z"/><path fill="green" stroke="none" paint-order="stroke fill markers" d=" M 193 400 A 3 3 0 1 1 192.99999850000012 399.9970000005 Z"/><path fill="green" stroke="none" paint-order="stroke fill markers" d=" M 193 460 A 3 3 0 1 1 192.99999850000012 459.9970000005 Z"/><path fill="green" stroke="none" paint-order="stroke fill markers" d=" M 103 290 A 3 3 0 1 1 102.99999850000013 289.9970000005 Z"/><path fill="green" stroke="none" paint-order="stroke fill markers" d=" M 133 290 A 3 3 0 1 1 132.99999850000012 289.9970000005 Z"/><path fill="green" stroke="none" paint-order="stroke fill markers" d=" M 83 390 A 3 3 0 1 1 82.99999850000013 389.9970000005 Z"/><path fill="green" stroke="none" paint-order="stroke fill markers" d=" M 103 270 A 3 3 0 1 1 102.99999850000013 269.9970000005 Z"/><path fill="green" stroke="none" paint-order="stroke fill markers" d=" M 133 270 A 3 3 0 1 1 132.99999850000012 269.9970000005 Z"/><path fill="green" stroke="none" paint-order="stroke fill markers" d=" M 233 270 A 3 3 0 1 1 232.99999850000012 269.9970000005 Z"/><path fill="green" stroke="none" paint-order="stroke fill markers" d=" M 233 290 A 3 3 0 1 1 232.99999850000012 289.9970000005 Z"/><path fill="green" stroke="none" paint-order="stroke fill markers" d=" M 263 280 A 3 3 0 1 1 262.9999985000001 279.9970000005 Z"/><path fill="lightgreen" stroke="none" paint-order="stroke fill markers" d=" M 193 310 A 3 3 0 1 1 192.99999850000012 309.9970000005 Z"/><path fill="lightgreen" stroke="none" paint-order="stroke fill markers" d=" M 213 310 A 3 3 0 1 1 212.99999850000012 309.9970000005 Z"/><path fill="lightgreen" stroke="none" paint-order="stroke fill markers" d=" M 213 290 A 3 3 0 1 1 212.99999850000012 289.9970000005 Z"/><path fill="green" stroke="none" paint-order="stroke fill markers" d=" M 233 330 A 3 3 0 1 1 232.99999850000012 329.9970000005 Z"/><path fill="green" stroke="none" paint-order="stroke fill markers" d=" M 233 350 A 3 3 0 1 1 232.99999850000012 349.9970000005 Z"/><path fill="green" stroke="none" paint-order="stroke fill markers" d=" M 263 340 A 3 3 0 1 1 262.9999985000001 339.9970000005 Z"/><path fill="green" stroke="none" paint-order="stroke fill markers" d=" M 213 370 A 3 3 0 1 1 212.99999850000012 369.9970000005 Z"/><path fill="green" stroke="none" paint-order="stroke fill markers" d=" M 213 350 A 3 3 0 1 1 212.99999850000012 349.9970000005 Z"/><path fill="green" stroke="none" paint-order="stroke fill markers" d=" M 193 370 A 3 3 0 1 1 192.99999850000012 369.9970000005 Z"/><path fill="green" stroke="none" paint-order="stroke fill markers" d=" M 233 390 A 3 3 0 1 1 232.99999850000012 389.9970000005 Z"/><path fill="green" stroke="none" paint-order="stroke fill markers" d=" M 233 410 A 3 3 0 1 1 232.99999850000012 409.9970000005 Z"/><path fill="green" stroke="none" paint-order="stroke fill markers" d=" M 263 400 A 3 3 0 1 1 262.9999985000001 399.9970000005 Z"/><path fill="green" stroke="none" paint-order="stroke fill markers" d=" M 213 430 A 3 3 0 1 1 212.99999850000012 429.9970000005 Z"/><path fill="green" stroke="none" paint-order="stroke fill markers" d=" M 213 410 A 3 3 0 1 1 212.99999850000012 409.9970000005 Z"/><path fill="green" stroke="none" paint-order="stroke fill markers" d=" M 193 430 A 3 3 0 1 1 192.99999850000012 429.9970000005 Z"/><path fill="green" stroke="none" paint-order="stroke fill markers" d=" M 233 450 A 3 3 0 1 1 232.99999850000012 449.9970000005 Z"/><path fill="green" stroke="none" paint-order="stroke fill markers" d=" M 233 470 A 3 3 0 1 1 232.99999850000012 469.9970000005 Z"/><path fill="green" stroke="none" paint-order="stroke fill markers" d=" M 263 460 A 3 3 0 1 1 262.9999985000001 459.9970000005 Z"/><path fill="green" stroke="none" paint-order="stroke fill markers" d=" M 213 490 A 3 3 0 1 1 212.99999850000012 489.9970000005 Z"/><path fill="green" stroke="none" paint-order="stroke fill markers" d=" M 213 470 A 3 3 0 1 1 212.99999850000012 469.9970000005 Z"/><path fill="green" stroke="none" paint-order="stroke fill markers" d=" M 193 490 A 3 3 0 1 1 192.99999850000012 489.9970000005 Z"/><path fill="green" stroke="none" paint-order="stroke fill markers" d=" M 203 250 A 3 3 0 1 1 202.99999850000012 249.9970000005 Z"/><path fill="lightgreen" stroke="none" paint-order="stroke fill markers" d=" M 203 450 A 3 3 0 1 1 202.99999850000012 449.9970000005 Z"/><path fill="lightgreen" stroke="none" paint-order="stroke fill markers" d=" M 203 270 A 3 3 0 1 1 202.99999850000012 269.9970000005 Z"/><path fill="lightgreen" stroke="none" paint-order="stroke fill markers" d=" M 203 330 A 3 3 0 1 1 202.99999850000012 329.9970000005 Z"/><path fill="lightgreen" stroke="none" paint-order="stroke fill markers" d=" M 203 390 A 3 3 0 1 1 202.99999850000012 389.9970000005 Z"/><path fill="green" stroke="none" paint-order="stroke fill markers" d=" M 283 280 A 3 3 0 1 1 282.9999985000001 279.9970000005 Z"/><path fill="green" stroke="none" paint-order="stroke fill markers" d=" M 283 340 A 3 3 0 1 1 282.9999985000001 339.9970000005 Z"/><path fill="green" stroke="none" paint-order="stroke fill markers" d=" M 283 400 A 3 3 0 1 1 282.9999985000001 399.9970000005 Z"/><path fill="green" stroke="none" paint-order="stroke fill markers" d=" M 283 460 A 3 3 0 1 1 282.9999985000001 459.9970000005 Z"/><path fill="green" stroke="none" paint-order="stroke fill markers" d=" M 103 390 A 3 3 0 1 1 102.99999850000013 389.9970000005 Z"/><path fill="green" stroke="none" paint-order="stroke fill markers" d=" M 133 390 A 3 3 0 1 1 132.99999850000012 389.9970000005 Z"/><path fill="green" stroke="none" paint-order="stroke fill markers" d=" M 103 350 A 3 3 0 1 1 102.99999850000013 349.9970000005 Z"/><path fill="green" stroke="none" paint-order="stroke fill markers" d=" M 133 350 A 3 3 0 1 1 132.99999850000012 349.9970000005 Z"/><path fill="green" stroke="none" paint-order="stroke fill markers" d=" M 83 330 A 3 3 0 1 1 82.99999850000013 329.9970000005 Z"/><path fill="green" stroke="none" paint-order="stroke fill markers" d=" M 63 410 A 3 3 0 1 1 62.999998500000125 409.9970000005 Z"/></g></svg>