<svg version="1.1" xmlns="http://www.w3.org/2000/svg" xmlns:xlink="http://www.w3.org/1999/xlink" width="1036" height="594"><defs/><g><rect fill="#FFFFFF" stroke="none" x="0" y="0" width="300" height="330"/><path fill="white" stroke="none" paint-order="stroke fill markers" d=" M 0 0 L 300 0 L 300 330 L 0 330 L 0 0 Z"/><path fill="none" stroke="none"/><text fill="black" stroke="none" font-family="Georgia" font-size="14px" font-style="normal" font-weight="normal" text-decoration="normal" x="60" y="155" text-anchor="start" dominant-baseline="alphabetic">DMux</text><path fill="none" stroke="none"/><text fill="black" stroke="none" font-family="Georgia" font-size="14px" font-style="normal" font-weight="normal" text-decoration="normal" x="60" y="65" text-anchor="start" dominant-baseline="alphabetic"> * Demultiplexor:</text><path fill="none" stroke="none"/><text fill="black" stroke="none" font-family="Georgia" font-size="14px" font-style="normal" font-weight="normal" text-decoration="normal" x="60" y="85" text-anchor="start" dominant-baseline="alphabetic"> * {a, b} = {in, 0} if sel == 0</text><path fill="none" stroke="none"/><text fill="black" stroke="none" font-family="Georgia" font-size="14px" font-style="normal" font-weight="normal" text-decoration="normal" x="60" y="105" text-anchor="start" dominant-baseline="alphabetic"> *          {0, in} if sel == 1</text><path fill="white" stroke="black" paint-order="fill stroke markers" d=" M 180.5 180.5 L 190.5 180.5 L 190.5 180.5 A 20 20 0 0 1 190.5 220.5 L 180.5 220.5 L 180.5 180.5 Z" stroke-miterlimit="10" stroke-width="3" stroke-dasharray=""/><path fill="white" stroke="black" paint-order="fill stroke markers" d=" M 180.5 240.5 L 190.5 240.5 L 190.5 240.5 A 20 20 0 0 1 190.5 280.5 L 180.5 280.5 L 180.5 240.5 Z" stroke-miterlimit="10" stroke-width="3" stroke-dasharray=""/><path fill="white" stroke="black" paint-order="fill stroke markers" d=" M 130.5 200.5 L 150.5 210.5 L 130.5 220.5 Z" stroke-miterlimit="10" stroke-width="3" stroke-dasharray=""/><path fill="none" stroke="black" paint-order="fill stroke markers" d=" M 160 210 A 5 5 0 1 1 159.9999975000002 209.99500000083333" stroke-miterlimit="10" stroke-width="3" stroke-dasharray=""/><path fill="none" stroke="none"/><text fill="black" stroke="none" font-family="Georgia" font-size="14px" font-style="normal" font-weight="normal" text-decoration="normal" x="260" y="205" text-anchor="start" dominant-baseline="alphabetic">a</text><path fill="white" stroke="blue" paint-order="fill stroke markers" d=" M 230.5 190.5 L 250.5 190.5 L 250.5 210.5 L 230.5 210.5 L 230.5 190.5 Z" stroke-miterlimit="10" stroke-width="3" stroke-dasharray=""/><path fill="none" stroke="none"/><text fill="green" stroke="none" font-family="Georgia" font-size="20px" font-style="normal" font-weight="normal" text-decoration="normal" x="240" y="205" text-anchor="middle" dominant-baseline="alphabetic">1</text><path fill="none" stroke="none"/><text fill="black" stroke="none" font-family="Georgia" font-size="14px" font-style="normal" font-weight="normal" text-decoration="normal" x="260" y="265" text-anchor="start" dominant-baseline="alphabetic">b</text><path fill="white" stroke="blue" paint-order="fill stroke markers" d=" M 230.5 250.5 L 250.5 250.5 L 250.5 270.5 L 230.5 270.5 L 230.5 250.5 Z" stroke-miterlimit="10" stroke-width="3" stroke-dasharray=""/><path fill="none" stroke="none"/><text fill="green" stroke="none" font-family="Georgia" font-size="20px" font-style="normal" font-weight="normal" text-decoration="normal" x="240" y="265" text-anchor="middle" dominant-baseline="alphabetic">0</text><path fill="white" stroke="black" paint-order="fill stroke markers" d=" M 50.5 180.5 L 70.5 180.5 L 70.5 200.5 L 50.5 200.5 L 50.5 180.5 Z" stroke-miterlimit="10" stroke-width="3" stroke-dasharray=""/><path fill="none" stroke="none"/><text fill="black" stroke="none" font-family="Georgia" font-size="14px" font-style="normal" font-weight="normal" text-decoration="normal" x="40" y="195" text-anchor="end" dominant-baseline="alphabetic">in</text><path fill="none" stroke="none"/><path fill="none" stroke="none"/><text fill="green" stroke="none" font-family="Georgia" font-size="20px" font-style="normal" font-weight="normal" text-decoration="normal" x="60" y="195" text-anchor="middle" dominant-baseline="alphabetic">1</text><path fill="white" stroke="black" paint-order="fill stroke markers" d=" M 50.5 260.5 L 70.5 260.5 L 70.5 280.5 L 50.5 280.5 L 50.5 260.5 Z" stroke-miterlimit="10" stroke-width="3" stroke-dasharray=""/><path fill="none" stroke="none"/><text fill="black" stroke="none" font-family="Georgia" font-size="14px" font-style="normal" font-weight="normal" text-decoration="normal" x="40" y="275" text-anchor="end" dominant-baseline="alphabetic">sel</text><path fill="none" stroke="none"/><path fill="none" stroke="none"/><text fill="green" stroke="none" font-family="Georgia" font-size="20px" font-style="normal" font-weight="normal" text-decoration="normal" x="60" y="275" text-anchor="middle" dominant-baseline="alphabetic">0</text><path fill="none" stroke="Lime" paint-order="fill stroke markers" d=" M 70 190.5 L 90 190.5" stroke-linecap="round" stroke-miterlimit="10" stroke-width="3" stroke-dasharray=""/><path fill="none" stroke="DarkGreen" paint-order="fill stroke markers" d=" M 70 270.5 L 110 270.5" stroke-linecap="round" stroke-miterlimit="10" stroke-width="3" stroke-dasharray=""/><path fill="none" stroke="Lime" paint-order="fill stroke markers" d=" M 230 200.5 L 210 200.5" stroke-linecap="round" stroke-miterlimit="10" stroke-width="3" stroke-dasharray=""/><path fill="none" stroke="DarkGreen" paint-order="fill stroke markers" d=" M 230 260.5 L 210 260.5" stroke-linecap="round" stroke-miterlimit="10" stroke-width="3" stroke-dasharray=""/><path fill="none" stroke="Lime" paint-order="fill stroke markers" d=" M 180 190.5 L 90 190.5" stroke-linecap="round" stroke-miterlimit="10" stroke-width="3" stroke-dasharray=""/><path fill="none" stroke="Lime" paint-order="fill stroke markers" d=" M 180 210.5 L 160 210.5" stroke-linecap="round" stroke-miterlimit="10" stroke-width="3" stroke-dasharray=""/><path fill="none" stroke="DarkGreen" paint-order="fill stroke markers" d=" M 110.5 270 L 110.5 210" stroke-linecap="round" stroke-miterlimit="10" stroke-width="3" stroke-dasharray=""/><path fill="none" stroke="DarkGreen" paint-order="fill stroke markers" d=" M 110 270.5 L 180 270.5" stroke-linecap="round" stroke-miterlimit="10" stroke-width="3" stroke-dasharray=""/><path fill="none" stroke="DarkGreen" paint-order="fill stroke markers" d=" M 110 210.5 L 130 210.5" stroke-linecap="round" stroke-miterlimit="10" stroke-width="3" stroke-dasharray=""/><path fill="none" stroke="Lime" paint-order="fill stroke markers" d=" M 180 250.5 L 90 250.5" stroke-linecap="round" stroke-miterlimit="10" stroke-width="3" stroke-dasharray=""/><path fill="none" stroke="Lime" paint-order="fill stroke markers" d=" M 90.5 190 L 90.5 250" stroke-linecap="round" stroke-miterlimit="10" stroke-width="3" stroke-dasharray=""/><path fill="green" stroke="none" paint-order="stroke fill markers" d=" M 73 190 A 3 3 0 1 1 72.99999850000013 189.9970000005 Z"/><path fill="green" stroke="none" paint-order="stroke fill markers" d=" M 73 270 A 3 3 0 1 1 72.99999850000013 269.9970000005 Z"/><path fill="green" stroke="none" paint-order="stroke fill markers" d=" M 233 200 A 3 3 0 1 1 232.99999850000012 199.9970000005 Z"/><path fill="green" stroke="none" paint-order="stroke fill markers" d=" M 233 260 A 3 3 0 1 1 232.99999850000012 259.9970000005 Z"/><path fill="green" stroke="none" paint-order="stroke fill markers" d=" M 183 190 A 3 3 0 1 1 182.99999850000012 189.9970000005 Z"/><path fill="green" stroke="none" paint-order="stroke fill markers" d=" M 183 210 A 3 3 0 1 1 182.99999850000012 209.9970000005 Z"/><path fill="green" stroke="none" paint-order="stroke fill markers" d=" M 213 200 A 3 3 0 1 1 212.99999850000012 199.9970000005 Z"/><path fill="green" stroke="none" paint-order="stroke fill markers" d=" M 113 270 A 3 3 0 1 1 112.99999850000013 269.9970000005 Z"/><path fill="green" stroke="none" paint-order="stroke fill markers" d=" M 113 210 A 3 3 0 1 1 112.99999850000013 209.9970000005 Z"/><path fill="green" stroke="none" paint-order="stroke fill markers" d=" M 133 210 A 3 3 0 1 1 132.99999850000012 209.9970000005 Z"/><path fill="green" stroke="none" paint-order="stroke fill markers" d=" M 163 210 A 3 3 0 1 1 162.99999850000012 209.9970000005 Z"/><path fill="green" stroke="none" paint-order="stroke fill markers" d=" M 183 250 A 3 3 0 1 1 182.99999850000012 249.9970000005 Z"/><path fill="green" stroke="none" paint-order="stroke fill markers" d=" M 183 270 A 3 3 0 1 1 182.99999850000012 269.9970000005 Z"/><path fill="green" stroke="none" paint-order="stroke fill markers" d=" M 213 260 A 3 3 0 1 1 212.99999850000012 259.9970000005 Z"/><path fill="lightgreen" stroke="none" paint-order="stroke fill markers" d=" M 93 190 A 3 3 0 1 1 92.99999850000013 189.9970000005 Z"/><path fill="lightgreen" stroke="none" paint-order="stroke fill markers" d=" M 93 250 A 3 3 0 1 1 92.99999850000013 249.9970000005 Z"/></g></svg>