<svg version="1.1" xmlns="http://www.w3.org/2000/svg" xmlns:xlink="http://www.w3.org/1999/xlink" width="1102.40001642704" height="615.2000091671944"><defs/><g><rect fill="#FFFFFF" stroke="none" x="0" y="0" width="480" height="300"/><path fill="white" stroke="none" paint-order="stroke fill markers" d=" M 0 0 L 480 0 L 480 300 L 0 300 L 0 0 Z"/><path fill="none" stroke="none"/><text fill="black" stroke="none" font-family="Georgia" font-size="14px" font-style="normal" font-weight="normal" text-decoration="normal" x="60" y="95" text-anchor="start" dominant-baseline="alphabetic"> * Computes the sum of three bits.</text><path fill="none" stroke="none"/><text fill="black" stroke="none" font-family="Georgia" font-size="14px" font-style="normal" font-weight="normal" text-decoration="normal" x="60" y="65" text-anchor="start" dominant-baseline="alphabetic">FullAdder</text><path fill="white" stroke="black" paint-order="fill stroke markers" d=" M 130.5 160.5 L 230.5 160.5 L 230.5 220.5 L 130.5 220.5 L 130.5 160.5 Z" stroke-miterlimit="10" stroke-width="3" stroke-dasharray=""/><path fill="none" stroke="none"/><text fill="black" stroke="none" font-family="Georgia" font-size="11px" font-style="normal" font-weight="normal" text-decoration="normal" x="180" y="173" text-anchor="middle" dominant-baseline="alphabetic">HalfAdder</text><text fill="black" stroke="none" font-family="Georgia" font-size="12px" font-style="normal" font-weight="normal" text-decoration="normal" x="135" y="185" text-anchor="start" dominant-baseline="alphabetic">a</text><text fill="black" stroke="none" font-family="Georgia" font-size="12px" font-style="normal" font-weight="normal" text-decoration="normal" x="135" y="205" text-anchor="start" dominant-baseline="alphabetic">b</text><text fill="black" stroke="none" font-family="Georgia" font-size="12px" font-style="normal" font-weight="normal" text-decoration="normal" x="225" y="185" text-anchor="end" dominant-baseline="alphabetic">sum</text><text fill="black" stroke="none" font-family="Georgia" font-size="12px" font-style="normal" font-weight="normal" text-decoration="normal" x="225" y="205" text-anchor="end" dominant-baseline="alphabetic">carry</text><path fill="green" stroke="none" paint-order="stroke fill markers" d=" M 133 180 A 3 3 0 1 1 132.99999850000012 179.9970000005 Z"/><path fill="green" stroke="none" paint-order="stroke fill markers" d=" M 133 200 A 3 3 0 1 1 132.99999850000012 199.9970000005 Z"/><path fill="green" stroke="none" paint-order="stroke fill markers" d=" M 233 180 A 3 3 0 1 1 232.99999850000012 179.9970000005 Z"/><path fill="green" stroke="none" paint-order="stroke fill markers" d=" M 233 200 A 3 3 0 1 1 232.99999850000012 199.9970000005 Z"/><path fill="white" stroke="black" paint-order="fill stroke markers" d=" M 260.5 160.5 L 360.5 160.5 L 360.5 220.5 L 260.5 220.5 L 260.5 160.5 Z" stroke-miterlimit="10" stroke-width="3" stroke-dasharray=""/><path fill="none" stroke="none"/><text fill="black" stroke="none" font-family="Georgia" font-size="11px" font-style="normal" font-weight="normal" text-decoration="normal" x="310" y="173" text-anchor="middle" dominant-baseline="alphabetic">HalfAdder</text><text fill="black" stroke="none" font-family="Georgia" font-size="12px" font-style="normal" font-weight="normal" text-decoration="normal" x="265" y="185" text-anchor="start" dominant-baseline="alphabetic">a</text><text fill="black" stroke="none" font-family="Georgia" font-size="12px" font-style="normal" font-weight="normal" text-decoration="normal" x="265" y="205" text-anchor="start" dominant-baseline="alphabetic">b</text><text fill="black" stroke="none" font-family="Georgia" font-size="12px" font-style="normal" font-weight="normal" text-decoration="normal" x="355" y="185" text-anchor="end" dominant-baseline="alphabetic">sum</text><text fill="black" stroke="none" font-family="Georgia" font-size="12px" font-style="normal" font-weight="normal" text-decoration="normal" x="355" y="205" text-anchor="end" dominant-baseline="alphabetic">carry</text><path fill="green" stroke="none" paint-order="stroke fill markers" d=" M 263 180 A 3 3 0 1 1 262.9999985000001 179.9970000005 Z"/><path fill="green" stroke="none" paint-order="stroke fill markers" d=" M 263 200 A 3 3 0 1 1 262.9999985000001 199.9970000005 Z"/><path fill="green" stroke="none" paint-order="stroke fill markers" d=" M 363 180 A 3 3 0 1 1 362.9999985000001 179.9970000005 Z"/><path fill="green" stroke="none" paint-order="stroke fill markers" d=" M 363 200 A 3 3 0 1 1 362.9999985000001 199.9970000005 Z"/><path fill="white" stroke="rgb(0,0,0)" paint-order="fill stroke markers" d=" M 380 190 C 390 190 405 200 410 210 C 405 220 390 230 380 230 C 390 210 390 210 380 190 Z" stroke-opacity="1" stroke-miterlimit="10" stroke-width="3" stroke-dasharray=""/><path fill="none" stroke="none"/><text fill="black" stroke="none" font-family="Georgia" font-size="14px" font-style="normal" font-weight="normal" text-decoration="normal" x="80" y="235" text-anchor="end" dominant-baseline="alphabetic">sum</text><path fill="white" stroke="blue" paint-order="fill stroke markers" d=" M 90.5 220.5 L 110.5 220.5 L 110.5 240.5 L 90.5 240.5 L 90.5 220.5 Z" stroke-miterlimit="10" stroke-width="3" stroke-dasharray=""/><path fill="none" stroke="none"/><text fill="green" stroke="none" font-family="Georgia" font-size="20px" font-style="normal" font-weight="normal" text-decoration="normal" x="100" y="235" text-anchor="middle" dominant-baseline="alphabetic">0</text><path fill="none" stroke="none"/><text fill="black" stroke="none" font-family="Georgia" font-size="14px" font-style="normal" font-weight="normal" text-decoration="normal" x="40" y="155" text-anchor="end" dominant-baseline="alphabetic">carry</text><path fill="white" stroke="blue" paint-order="fill stroke markers" d=" M 50.5 140.5 L 70.5 140.5 L 70.5 160.5 L 50.5 160.5 L 50.5 140.5 Z" stroke-miterlimit="10" stroke-width="3" stroke-dasharray=""/><path fill="none" stroke="none"/><text fill="green" stroke="none" font-family="Georgia" font-size="20px" font-style="normal" font-weight="normal" text-decoration="normal" x="60" y="155" text-anchor="middle" dominant-baseline="alphabetic">1</text><path fill="white" stroke="black" paint-order="fill stroke markers" d=" M 90.5 170.5 L 110.5 170.5 L 110.5 190.5 L 90.5 190.5 L 90.5 170.5 Z" stroke-miterlimit="10" stroke-width="3" stroke-dasharray=""/><path fill="none" stroke="none"/><text fill="black" stroke="none" font-family="Georgia" font-size="14px" font-style="normal" font-weight="normal" text-decoration="normal" x="80" y="185" text-anchor="end" dominant-baseline="alphabetic">a</text><path fill="none" stroke="none"/><path fill="none" stroke="none"/><text fill="green" stroke="none" font-family="Georgia" font-size="20px" font-style="normal" font-weight="normal" text-decoration="normal" x="100" y="185" text-anchor="middle" dominant-baseline="alphabetic">1</text><path fill="white" stroke="black" paint-order="fill stroke markers" d=" M 90.5 190.5 L 110.5 190.5 L 110.5 210.5 L 90.5 210.5 L 90.5 190.5 Z" stroke-miterlimit="10" stroke-width="3" stroke-dasharray=""/><path fill="none" stroke="none"/><text fill="black" stroke="none" font-family="Georgia" font-size="14px" font-style="normal" font-weight="normal" text-decoration="normal" x="80" y="205" text-anchor="end" dominant-baseline="alphabetic">b</text><path fill="none" stroke="none"/><path fill="none" stroke="none"/><text fill="green" stroke="none" font-family="Georgia" font-size="20px" font-style="normal" font-weight="normal" text-decoration="normal" x="100" y="205" text-anchor="middle" dominant-baseline="alphabetic">1</text><path fill="white" stroke="black" paint-order="fill stroke markers" d=" M 100.5 140.5 L 120.5 140.5 L 120.5 160.5 L 100.5 160.5 L 100.5 140.5 Z" stroke-miterlimit="10" stroke-width="3" stroke-dasharray=""/><path fill="none" stroke="none"/><text fill="black" stroke="none" font-family="Georgia" font-size="14px" font-style="normal" font-weight="normal" text-decoration="normal" x="90" y="155" text-anchor="end" dominant-baseline="alphabetic">c</text><path fill="none" stroke="none"/><path fill="none" stroke="none"/><text fill="green" stroke="none" font-family="Georgia" font-size="20px" font-style="normal" font-weight="normal" text-decoration="normal" x="110" y="155" text-anchor="middle" dominant-baseline="alphabetic">0</text><path fill="none" stroke="DarkGreen" paint-order="fill stroke markers" d=" M 230 180.5 L 260 180.5" stroke-linecap="round" stroke-miterlimit="10" stroke-width="3" stroke-dasharray=""/><path fill="none" stroke="Lime" paint-order="fill stroke markers" d=" M 230 200.5 L 240 200.5" stroke-linecap="round" stroke-miterlimit="10" stroke-width="3" stroke-dasharray=""/><path fill="none" stroke="Lime" paint-order="fill stroke markers" d=" M 130 180.5 L 110 180.5" stroke-linecap="round" stroke-miterlimit="10" stroke-width="3" stroke-dasharray=""/><path fill="none" stroke="Lime" paint-order="fill stroke markers" d=" M 130 200.5 L 110 200.5" stroke-linecap="round" stroke-miterlimit="10" stroke-width="3" stroke-dasharray=""/><path fill="none" stroke="DarkGreen" paint-order="fill stroke markers" d=" M 120 150.5 L 250 150.5" stroke-linecap="round" stroke-miterlimit="10" stroke-width="3" stroke-dasharray=""/><path fill="none" stroke="DarkGreen" paint-order="fill stroke markers" d=" M 360 180.5 L 420 180.5" stroke-linecap="round" stroke-miterlimit="10" stroke-width="3" stroke-dasharray=""/><path fill="none" stroke="DarkGreen" paint-order="fill stroke markers" d=" M 360 200.5 L 380 200.5" stroke-linecap="round" stroke-miterlimit="10" stroke-width="3" stroke-dasharray=""/><path fill="none" stroke="DarkGreen" paint-order="fill stroke markers" d=" M 260 200.5 L 250 200.5" stroke-linecap="round" stroke-miterlimit="10" stroke-width="3" stroke-dasharray=""/><path fill="none" stroke="Lime" paint-order="fill stroke markers" d=" M 240.5 200 L 240.5 230" stroke-linecap="round" stroke-miterlimit="10" stroke-width="3" stroke-dasharray=""/><path fill="none" stroke="Lime" paint-order="fill stroke markers" d=" M 240 230.5 L 370 230.5" stroke-linecap="round" stroke-miterlimit="10" stroke-width="3" stroke-dasharray=""/><path fill="none" stroke="Lime" paint-order="fill stroke markers" d=" M 370.5 230 L 370.5 220" stroke-linecap="round" stroke-miterlimit="10" stroke-width="3" stroke-dasharray=""/><path fill="none" stroke="Lime" paint-order="fill stroke markers" d=" M 370 220.5 L 380 220.5" stroke-linecap="round" stroke-miterlimit="10" stroke-width="3" stroke-dasharray=""/><path fill="none" stroke="Lime" paint-order="fill stroke markers" d=" M 410 210.5 L 430 210.5" stroke-linecap="round" stroke-miterlimit="10" stroke-width="3" stroke-dasharray=""/><path fill="none" stroke="DarkGreen" paint-order="fill stroke markers" d=" M 100.5 240 L 100.5 250" stroke-linecap="round" stroke-miterlimit="10" stroke-width="3" stroke-dasharray=""/><path fill="none" stroke="Lime" paint-order="fill stroke markers" d=" M 60.5 140 L 60.5 130" stroke-linecap="round" stroke-miterlimit="10" stroke-width="3" stroke-dasharray=""/><path fill="none" stroke="DarkGreen" paint-order="fill stroke markers" d=" M 250.5 200 L 250.5 150" stroke-linecap="round" stroke-miterlimit="10" stroke-width="3" stroke-dasharray=""/><path fill="none" stroke="DarkGreen" paint-order="fill stroke markers" d=" M 420.5 180 L 420.5 250" stroke-linecap="round" stroke-miterlimit="10" stroke-width="3" stroke-dasharray=""/><path fill="none" stroke="DarkGreen" paint-order="fill stroke markers" d=" M 420 250.5 L 100 250.5" stroke-linecap="round" stroke-miterlimit="10" stroke-width="3" stroke-dasharray=""/><path fill="none" stroke="Lime" paint-order="fill stroke markers" d=" M 60 130.5 L 430 130.5" stroke-linecap="round" stroke-miterlimit="10" stroke-width="3" stroke-dasharray=""/><path fill="none" stroke="Lime" paint-order="fill stroke markers" d=" M 430.5 130 L 430.5 210" stroke-linecap="round" stroke-miterlimit="10" stroke-width="3" stroke-dasharray=""/><path fill="green" stroke="none" paint-order="stroke fill markers" d=" M 233 180 A 3 3 0 1 1 232.99999850000012 179.9970000005 Z"/><path fill="green" stroke="none" paint-order="stroke fill markers" d=" M 233 200 A 3 3 0 1 1 232.99999850000012 199.9970000005 Z"/><path fill="green" stroke="none" paint-order="stroke fill markers" d=" M 133 180 A 3 3 0 1 1 132.99999850000012 179.9970000005 Z"/><path fill="green" stroke="none" paint-order="stroke fill markers" d=" M 133 200 A 3 3 0 1 1 132.99999850000012 199.9970000005 Z"/><path fill="green" stroke="none" paint-order="stroke fill markers" d=" M 113 180 A 3 3 0 1 1 112.99999850000013 179.9970000005 Z"/><path fill="green" stroke="none" paint-order="stroke fill markers" d=" M 113 200 A 3 3 0 1 1 112.99999850000013 199.9970000005 Z"/><path fill="green" stroke="none" paint-order="stroke fill markers" d=" M 123 150 A 3 3 0 1 1 122.99999850000013 149.9970000005 Z"/><path fill="green" stroke="none" paint-order="stroke fill markers" d=" M 363 180 A 3 3 0 1 1 362.9999985000001 179.9970000005 Z"/><path fill="green" stroke="none" paint-order="stroke fill markers" d=" M 363 200 A 3 3 0 1 1 362.9999985000001 199.9970000005 Z"/><path fill="green" stroke="none" paint-order="stroke fill markers" d=" M 263 180 A 3 3 0 1 1 262.9999985000001 179.9970000005 Z"/><path fill="green" stroke="none" paint-order="stroke fill markers" d=" M 263 200 A 3 3 0 1 1 262.9999985000001 199.9970000005 Z"/><path fill="lightgreen" stroke="none" paint-order="stroke fill markers" d=" M 243 200 A 3 3 0 1 1 242.99999850000012 199.9970000005 Z"/><path fill="lightgreen" stroke="none" paint-order="stroke fill markers" d=" M 243 230 A 3 3 0 1 1 242.99999850000012 229.9970000005 Z"/><path fill="lightgreen" stroke="none" paint-order="stroke fill markers" d=" M 373 230 A 3 3 0 1 1 372.9999985000001 229.9970000005 Z"/><path fill="lightgreen" stroke="none" paint-order="stroke fill markers" d=" M 373 220 A 3 3 0 1 1 372.9999985000001 219.9970000005 Z"/><path fill="green" stroke="none" paint-order="stroke fill markers" d=" M 383 200 A 3 3 0 1 1 382.9999985000001 199.9970000005 Z"/><path fill="green" stroke="none" paint-order="stroke fill markers" d=" M 383 220 A 3 3 0 1 1 382.9999985000001 219.9970000005 Z"/><path fill="green" stroke="none" paint-order="stroke fill markers" d=" M 413 210 A 3 3 0 1 1 412.9999985000001 209.9970000005 Z"/><path fill="green" stroke="none" paint-order="stroke fill markers" d=" M 103 240 A 3 3 0 1 1 102.99999850000013 239.9970000005 Z"/><path fill="green" stroke="none" paint-order="stroke fill markers" d=" M 63 140 A 3 3 0 1 1 62.999998500000125 139.9970000005 Z"/><path fill="green" stroke="none" paint-order="stroke fill markers" d=" M 253 200 A 3 3 0 1 1 252.99999850000012 199.9970000005 Z"/><path fill="green" stroke="none" paint-order="stroke fill markers" d=" M 253 150 A 3 3 0 1 1 252.99999850000012 149.9970000005 Z"/><path fill="green" stroke="none" paint-order="stroke fill markers" d=" M 423 180 A 3 3 0 1 1 422.9999985000001 179.9970000005 Z"/><path fill="green" stroke="none" paint-order="stroke fill markers" d=" M 423 250 A 3 3 0 1 1 422.9999985000001 249.9970000005 Z"/><path fill="green" stroke="none" paint-order="stroke fill markers" d=" M 103 250 A 3 3 0 1 1 102.99999850000013 249.9970000005 Z"/><path fill="lightgreen" stroke="none" paint-order="stroke fill markers" d=" M 63 130 A 3 3 0 1 1 62.999998500000125 129.9970000005 Z"/><path fill="lightgreen" stroke="none" paint-order="stroke fill markers" d=" M 433 130 A 3 3 0 1 1 432.9999985000001 129.9970000005 Z"/><path fill="lightgreen" stroke="none" paint-order="stroke fill markers" d=" M 433 210 A 3 3 0 1 1 432.9999985000001 209.9970000005 Z"/></g></svg>