<svg version="1.1" xmlns="http://www.w3.org/2000/svg" xmlns:xlink="http://www.w3.org/1999/xlink" width="1102.40001642704" height="599.2000089287758"><defs/><g fill="black"><rect fill="#FFFFFF" stroke="none" x="0" y="0" width="680" height="460"/><path fill="white" stroke="none" paint-order="stroke fill markers" d=" M 0 0 L 680 0 L 680 460 L 0 460 L 0 0 Z"/><path fill="none" stroke="none"/><text fill="black" stroke="none" font-family="Georgia" font-size="14px" font-style="normal" font-weight="normal" text-decoration="normal" x="270" y="65" text-anchor="start" dominant-baseline="alphabetic">HACK COMPUTER</text><path fill="none" stroke="none"/><text fill="black" stroke="none" font-family="Georgia" font-size="14px" font-style="normal" font-weight="normal" text-decoration="normal" x="240" y="85" text-anchor="start" dominant-baseline="alphabetic">from nand2tetris course part 1</text><path fill="white" stroke="black" paint-order="fill stroke markers" d=" M 260.5 150.5 L 400.5 150.5 L 400.5 270.5 L 260.5 270.5 L 260.5 150.5 Z" stroke-miterlimit="10" stroke-width="3" stroke-dasharray=""/><path fill="none" stroke="none"/><text fill="black" stroke="none" font-family="Georgia" font-size="11px" font-style="normal" font-weight="normal" text-decoration="normal" x="330" y="163" text-anchor="middle" dominant-baseline="alphabetic">CPU</text><text fill="black" stroke="none" font-family="Georgia" font-size="12px" font-style="normal" font-weight="normal" text-decoration="normal" x="265" y="195" text-anchor="start" dominant-baseline="alphabetic">inM</text><text fill="black" stroke="none" font-family="Georgia" font-size="12px" font-style="normal" font-weight="normal" text-decoration="normal" x="265" y="215" text-anchor="start" dominant-baseline="alphabetic">reset</text><text fill="black" stroke="none" font-family="Georgia" font-size="12px" font-style="normal" font-weight="normal" text-decoration="normal" x="265" y="175" text-anchor="start" dominant-baseline="alphabetic">instruction</text><text fill="black" stroke="none" font-family="Georgia" font-size="12px" font-style="normal" font-weight="normal" text-decoration="normal" x="265" y="235" text-anchor="start" dominant-baseline="alphabetic">inc</text><text fill="black" stroke="none" font-family="Georgia" font-size="12px" font-style="normal" font-weight="normal" text-decoration="normal" x="395" y="215" text-anchor="end" dominant-baseline="alphabetic">addressM</text><text fill="black" stroke="none" font-family="Georgia" font-size="12px" font-style="normal" font-weight="normal" text-decoration="normal" x="395" y="175" text-anchor="end" dominant-baseline="alphabetic">outM</text><text fill="black" stroke="none" font-family="Georgia" font-size="12px" font-style="normal" font-weight="normal" text-decoration="normal" x="395" y="235" text-anchor="end" dominant-baseline="alphabetic">PC</text><text fill="black" stroke="none" font-family="Georgia" font-size="12px" font-style="normal" font-weight="normal" text-decoration="normal" x="395" y="195" text-anchor="end" dominant-baseline="alphabetic">writeM</text><path fill="green" stroke="none" paint-order="stroke fill markers" d=" M 263 190 A 3 3 0 1 1 262.9999985000001 189.9970000005 Z"/><path fill="green" stroke="none" paint-order="stroke fill markers" d=" M 263 210 A 3 3 0 1 1 262.9999985000001 209.9970000005 Z"/><path fill="green" stroke="none" paint-order="stroke fill markers" d=" M 263 170 A 3 3 0 1 1 262.9999985000001 169.9970000005 Z"/><path fill="green" stroke="none" paint-order="stroke fill markers" d=" M 263 230 A 3 3 0 1 1 262.9999985000001 229.9970000005 Z"/><path fill="green" stroke="none" paint-order="stroke fill markers" d=" M 403 210 A 3 3 0 1 1 402.9999985000001 209.9970000005 Z"/><path fill="green" stroke="none" paint-order="stroke fill markers" d=" M 403 170 A 3 3 0 1 1 402.9999985000001 169.9970000005 Z"/><path fill="green" stroke="none" paint-order="stroke fill markers" d=" M 403 230 A 3 3 0 1 1 402.9999985000001 229.9970000005 Z"/><path fill="green" stroke="none" paint-order="stroke fill markers" d=" M 403 190 A 3 3 0 1 1 402.9999985000001 189.9970000005 Z"/><path fill="none" stroke="none"/><text fill="black" stroke="none" font-family="Georgia" font-size="14px" font-style="normal" font-weight="normal" text-decoration="normal" x="200" y="405" text-anchor="end" dominant-baseline="alphabetic">RESET</text><path fill="none" stroke="#353535" paint-order="fill stroke markers" d=" M 220.5 390.5 L 220.5 370.5" stroke-miterlimit="10" stroke-width="5" stroke-dasharray=""/><path fill="#ddd" stroke="#353535" paint-order="stroke fill markers" d=" M 232 400 A 12 12 0 1 1 231.9999940000005 399.988000002" stroke-miterlimit="10" stroke-width="5" stroke-dasharray=""/><path fill="white" stroke="black" paint-order="fill stroke markers" d=" M 490.5 160.5 L 610.5 160.5 L 610.5 240.5 L 490.5 240.5 L 490.5 160.5 Z" stroke-miterlimit="10" stroke-width="3" stroke-dasharray=""/><path fill="none" stroke="none"/><text fill="black" stroke="none" font-family="Georgia" font-size="14px" font-style="normal" font-weight="normal" text-decoration="normal" x="550" y="155" text-anchor="middle" dominant-baseline="alphabetic">MEMORY</text><path fill="lightgreen" stroke="gray" paint-order="fill stroke markers" d=" M 603 170 A 3 3 0 1 1 602.9999985000002 169.9970000005" stroke-miterlimit="10" stroke-dasharray=""/><path fill="none" stroke="none"/><text fill="black" stroke="none" font-family="Georgia" font-size="12px" font-style="normal" font-weight="normal" text-decoration="normal" x="550" y="194" text-anchor="middle" dominant-baseline="alphabetic">32K x 16b</text><text fill="black" stroke="none" font-family="Georgia" font-size="12px" font-style="normal" font-weight="normal" text-decoration="normal" x="550" y="214" text-anchor="middle" dominant-baseline="alphabetic">RAM</text><g transform="translate(502,180) rotate(0,0,0)"><text fill="black" stroke="none" font-family="Georgia" font-size="14px" font-style="normal" font-weight="normal" text-decoration="normal" x="0" y="4" text-anchor="middle" dominant-baseline="alphabetic">A</text></g><g transform="translate(502,200) rotate(0,0,0)"><text fill="black" stroke="none" font-family="Georgia" font-size="14px" font-style="normal" font-weight="normal" text-decoration="normal" x="0" y="4" text-anchor="middle" dominant-baseline="alphabetic">DI</text></g><g transform="translate(502,220) rotate(0,0,0)"><text fill="black" stroke="none" font-family="Georgia" font-size="14px" font-style="normal" font-weight="normal" text-decoration="normal" x="0" y="4" text-anchor="middle" dominant-baseline="alphabetic">W</text></g><g transform="translate(595,200) rotate(0,0,0)"><text fill="black" stroke="none" font-family="Georgia" font-size="14px" font-style="normal" font-weight="normal" text-decoration="normal" x="0" y="4" text-anchor="middle" dominant-baseline="alphabetic">DO</text></g><path fill="white" stroke="black" paint-order="fill stroke markers" d=" M 70.5 160.5 L 190.5 160.5 L 190.5 240.5 L 70.5 240.5 L 70.5 160.5 Z" stroke-miterlimit="10" stroke-width="3" stroke-dasharray=""/><path fill="none" stroke="none"/><text fill="black" stroke="none" font-family="Georgia" font-size="14px" font-style="normal" font-weight="normal" text-decoration="normal" x="130" y="155" text-anchor="middle" dominant-baseline="alphabetic">ROM</text><path fill="lightgreen" stroke="gray" paint-order="fill stroke markers" d=" M 183 170 A 3 3 0 1 1 182.99999850000012 169.9970000005" stroke-miterlimit="10" stroke-dasharray=""/><path fill="none" stroke="none"/><text fill="black" stroke="none" font-family="Georgia" font-size="12px" font-style="normal" font-weight="normal" text-decoration="normal" x="130" y="194" text-anchor="middle" dominant-baseline="alphabetic">32K x 16b</text><text fill="black" stroke="none" font-family="Georgia" font-size="12px" font-style="normal" font-weight="normal" text-decoration="normal" x="130" y="214" text-anchor="middle" dominant-baseline="alphabetic">RAM</text><g transform="translate(82,180) rotate(0,0,0)"><text fill="black" stroke="none" font-family="Georgia" font-size="14px" font-style="normal" font-weight="normal" text-decoration="normal" x="0" y="4" text-anchor="middle" dominant-baseline="alphabetic">A</text></g><g transform="translate(82,200) rotate(0,0,0)"><text fill="black" stroke="none" font-family="Georgia" font-size="14px" font-style="normal" font-weight="normal" text-decoration="normal" x="0" y="4" text-anchor="middle" dominant-baseline="alphabetic">DI</text></g><g transform="translate(82,220) rotate(0,0,0)"><text fill="black" stroke="none" font-family="Georgia" font-size="14px" font-style="normal" font-weight="normal" text-decoration="normal" x="0" y="4" text-anchor="middle" dominant-baseline="alphabetic">W</text></g><g transform="translate(175,200) rotate(0,0,0)"><text fill="black" stroke="none" font-family="Georgia" font-size="14px" font-style="normal" font-weight="normal" text-decoration="normal" x="0" y="4" text-anchor="middle" dominant-baseline="alphabetic">DO</text></g><path fill="white" stroke="black" paint-order="fill stroke markers" d=" M 310.5 370.5 L 330.5 370.5 L 330.5 390.5 L 310.5 390.5 L 310.5 370.5 Z" stroke-miterlimit="10" stroke-width="3" stroke-dasharray=""/><path fill="none" stroke="none"/><text fill="black" stroke="none" font-family="Georgia" font-size="14px" font-style="normal" font-weight="normal" text-decoration="normal" x="320" y="405" text-anchor="middle" dominant-baseline="alphabetic">ON/OFF</text><path fill="none" stroke="none"/><path fill="none" stroke="none"/><text fill="green" stroke="none" font-family="Georgia" font-size="20px" font-style="normal" font-weight="normal" text-decoration="normal" x="320" y="385" text-anchor="middle" dominant-baseline="alphabetic">0</text><path fill="none" stroke="black" paint-order="fill stroke markers" d=" M 400 210.5 L 470 210.5" stroke-linecap="round" stroke-miterlimit="10" stroke-width="3" stroke-dasharray=""/><path fill="none" stroke="black" paint-order="fill stroke markers" d=" M 400 170.5 L 450 170.5" stroke-linecap="round" stroke-miterlimit="10" stroke-width="3" stroke-dasharray=""/><path fill="none" stroke="black" paint-order="fill stroke markers" d=" M 400 230.5 L 420 230.5" stroke-linecap="round" stroke-miterlimit="10" stroke-width="3" stroke-dasharray=""/><path fill="none" stroke="DarkGreen" paint-order="fill stroke markers" d=" M 400 190.5 L 430 190.5" stroke-linecap="round" stroke-miterlimit="10" stroke-width="3" stroke-dasharray=""/><path fill="none" stroke="black" paint-order="fill stroke markers" d=" M 260 190.5 L 230 190.5" stroke-linecap="round" stroke-miterlimit="10" stroke-width="3" stroke-dasharray=""/><path fill="none" stroke="DarkGreen" paint-order="fill stroke markers" d=" M 260 210.5 L 220 210.5" stroke-linecap="round" stroke-miterlimit="10" stroke-width="3" stroke-dasharray=""/><path fill="none" stroke="black" paint-order="fill stroke markers" d=" M 260 170.5 L 210 170.5" stroke-linecap="round" stroke-miterlimit="10" stroke-width="3" stroke-dasharray=""/><path fill="none" stroke="DarkGreen" paint-order="fill stroke markers" d=" M 260 230.5 L 240 230.5" stroke-linecap="round" stroke-miterlimit="10" stroke-width="3" stroke-dasharray=""/><path fill="none" stroke="black" paint-order="fill stroke markers" d=" M 490 180.5 L 470 180.5" stroke-linecap="round" stroke-miterlimit="10" stroke-width="3" stroke-dasharray=""/><path fill="none" stroke="black" paint-order="fill stroke markers" d=" M 490 200.5 L 450 200.5" stroke-linecap="round" stroke-miterlimit="10" stroke-width="3" stroke-dasharray=""/><path fill="none" stroke="DarkGreen" paint-order="fill stroke markers" d=" M 490 220.5 L 430 220.5" stroke-linecap="round" stroke-miterlimit="10" stroke-width="3" stroke-dasharray=""/><path fill="none" stroke="black" paint-order="fill stroke markers" d=" M 610 200.5 L 630 200.5" stroke-linecap="round" stroke-miterlimit="10" stroke-width="3" stroke-dasharray=""/><path fill="none" stroke="black" paint-order="fill stroke markers" d=" M 470.5 210 L 470.5 180" stroke-linecap="round" stroke-miterlimit="10" stroke-width="3" stroke-dasharray=""/><path fill="none" stroke="DarkGreen" paint-order="fill stroke markers" d=" M 430.5 190 L 430.5 220" stroke-linecap="round" stroke-miterlimit="10" stroke-width="3" stroke-dasharray=""/><path fill="none" stroke="black" paint-order="fill stroke markers" d=" M 450.5 170 L 450.5 200" stroke-linecap="round" stroke-miterlimit="10" stroke-width="3" stroke-dasharray=""/><path fill="none" stroke="black" paint-order="fill stroke markers" d=" M 630.5 200 L 630.5 290" stroke-linecap="round" stroke-miterlimit="10" stroke-width="3" stroke-dasharray=""/><path fill="none" stroke="black" paint-order="fill stroke markers" d=" M 630 290.5 L 230 290.5" stroke-linecap="round" stroke-miterlimit="10" stroke-width="3" stroke-dasharray=""/><path fill="none" stroke="black" paint-order="fill stroke markers" d=" M 230.5 290 L 230.5 190" stroke-linecap="round" stroke-miterlimit="10" stroke-width="3" stroke-dasharray=""/><path fill="none" stroke="black" paint-order="fill stroke markers" d=" M 70 180.5 L 50 180.5" stroke-linecap="round" stroke-miterlimit="10" stroke-width="3" stroke-dasharray=""/><path fill="none" stroke="black" paint-order="fill stroke markers" d=" M 190 200.5 L 210 200.5" stroke-linecap="round" stroke-miterlimit="10" stroke-width="3" stroke-dasharray=""/><path fill="none" stroke="black" paint-order="fill stroke markers" d=" M 420.5 230 L 420.5 310" stroke-linecap="round" stroke-miterlimit="10" stroke-width="3" stroke-dasharray=""/><path fill="none" stroke="black" paint-order="fill stroke markers" d=" M 420 310.5 L 50 310.5" stroke-linecap="round" stroke-miterlimit="10" stroke-width="3" stroke-dasharray=""/><path fill="none" stroke="black" paint-order="fill stroke markers" d=" M 50.5 310 L 50.5 180" stroke-linecap="round" stroke-miterlimit="10" stroke-width="3" stroke-dasharray=""/><path fill="none" stroke="black" paint-order="fill stroke markers" d=" M 210.5 200 L 210.5 170" stroke-linecap="round" stroke-miterlimit="10" stroke-width="3" stroke-dasharray=""/><path fill="none" stroke="DarkGreen" paint-order="fill stroke markers" d=" M 220.5 210 L 220.5 370" stroke-linecap="round" stroke-miterlimit="10" stroke-width="3" stroke-dasharray=""/><path fill="none" stroke="DarkGreen" paint-order="fill stroke markers" d=" M 240.5 230 L 240.5 330" stroke-linecap="round" stroke-miterlimit="10" stroke-width="3" stroke-dasharray=""/><path fill="none" stroke="DarkGreen" paint-order="fill stroke markers" d=" M 320.5 370 L 320.5 330" stroke-linecap="round" stroke-miterlimit="10" stroke-width="3" stroke-dasharray=""/><path fill="none" stroke="DarkGreen" paint-order="fill stroke markers" d=" M 240 330.5 L 320 330.5" stroke-linecap="round" stroke-miterlimit="10" stroke-width="3" stroke-dasharray=""/><path fill="green" stroke="none" paint-order="stroke fill markers" d=" M 403 210 A 3 3 0 1 1 402.9999985000001 209.9970000005 Z"/><path fill="green" stroke="none" paint-order="stroke fill markers" d=" M 403 170 A 3 3 0 1 1 402.9999985000001 169.9970000005 Z"/><path fill="green" stroke="none" paint-order="stroke fill markers" d=" M 403 230 A 3 3 0 1 1 402.9999985000001 229.9970000005 Z"/><path fill="green" stroke="none" paint-order="stroke fill markers" d=" M 403 190 A 3 3 0 1 1 402.9999985000001 189.9970000005 Z"/><path fill="green" stroke="none" paint-order="stroke fill markers" d=" M 263 190 A 3 3 0 1 1 262.9999985000001 189.9970000005 Z"/><path fill="green" stroke="none" paint-order="stroke fill markers" d=" M 263 210 A 3 3 0 1 1 262.9999985000001 209.9970000005 Z"/><path fill="green" stroke="none" paint-order="stroke fill markers" d=" M 263 170 A 3 3 0 1 1 262.9999985000001 169.9970000005 Z"/><path fill="green" stroke="none" paint-order="stroke fill markers" d=" M 263 230 A 3 3 0 1 1 262.9999985000001 229.9970000005 Z"/><path fill="green" stroke="none" paint-order="stroke fill markers" d=" M 493 180 A 3 3 0 1 1 492.9999985000001 179.9970000005 Z"/><path fill="green" stroke="none" paint-order="stroke fill markers" d=" M 493 200 A 3 3 0 1 1 492.9999985000001 199.9970000005 Z"/><path fill="green" stroke="none" paint-order="stroke fill markers" d=" M 493 220 A 3 3 0 1 1 492.9999985000001 219.9970000005 Z"/><path fill="green" stroke="none" paint-order="stroke fill markers" d=" M 553 240 A 3 3 0 1 1 552.9999985000002 239.9970000005 Z"/><path fill="green" stroke="none" paint-order="stroke fill markers" d=" M 533 240 A 3 3 0 1 1 532.9999985000002 239.9970000005 Z"/><path fill="green" stroke="none" paint-order="stroke fill markers" d=" M 613 200 A 3 3 0 1 1 612.9999985000002 199.9970000005 Z"/><path fill="black" stroke="none" paint-order="stroke fill markers" d=" M 473 210 A 3 3 0 1 1 472.9999985000001 209.9970000005 Z"/><path fill="black" stroke="none" paint-order="stroke fill markers" d=" M 473 180 A 3 3 0 1 1 472.9999985000001 179.9970000005 Z"/><path fill="green" stroke="none" paint-order="stroke fill markers" d=" M 433 190 A 3 3 0 1 1 432.9999985000001 189.9970000005 Z"/><path fill="green" stroke="none" paint-order="stroke fill markers" d=" M 433 220 A 3 3 0 1 1 432.9999985000001 219.9970000005 Z"/><path fill="black" stroke="none" paint-order="stroke fill markers" d=" M 453 170 A 3 3 0 1 1 452.9999985000001 169.9970000005 Z"/><path fill="black" stroke="none" paint-order="stroke fill markers" d=" M 453 200 A 3 3 0 1 1 452.9999985000001 199.9970000005 Z"/><path fill="black" stroke="none" paint-order="stroke fill markers" d=" M 633 200 A 3 3 0 1 1 632.9999985000002 199.9970000005 Z"/><path fill="black" stroke="none" paint-order="stroke fill markers" d=" M 633 290 A 3 3 0 1 1 632.9999985000002 289.9970000005 Z"/><path fill="black" stroke="none" paint-order="stroke fill markers" d=" M 233 290 A 3 3 0 1 1 232.99999850000012 289.9970000005 Z"/><path fill="black" stroke="none" paint-order="stroke fill markers" d=" M 233 190 A 3 3 0 1 1 232.99999850000012 189.9970000005 Z"/><path fill="green" stroke="none" paint-order="stroke fill markers" d=" M 73 180 A 3 3 0 1 1 72.99999850000013 179.9970000005 Z"/><path fill="green" stroke="none" paint-order="stroke fill markers" d=" M 73 200 A 3 3 0 1 1 72.99999850000013 199.9970000005 Z"/><path fill="green" stroke="none" paint-order="stroke fill markers" d=" M 73 220 A 3 3 0 1 1 72.99999850000013 219.9970000005 Z"/><path fill="green" stroke="none" paint-order="stroke fill markers" d=" M 133 240 A 3 3 0 1 1 132.99999850000012 239.9970000005 Z"/><path fill="green" stroke="none" paint-order="stroke fill markers" d=" M 113 240 A 3 3 0 1 1 112.99999850000013 239.9970000005 Z"/><path fill="green" stroke="none" paint-order="stroke fill markers" d=" M 193 200 A 3 3 0 1 1 192.99999850000012 199.9970000005 Z"/><path fill="black" stroke="none" paint-order="stroke fill markers" d=" M 423 230 A 3 3 0 1 1 422.9999985000001 229.9970000005 Z"/><path fill="black" stroke="none" paint-order="stroke fill markers" d=" M 423 310 A 3 3 0 1 1 422.9999985000001 309.9970000005 Z"/><path fill="black" stroke="none" paint-order="stroke fill markers" d=" M 53 310 A 3 3 0 1 1 52.999998500000125 309.9970000005 Z"/><path fill="black" stroke="none" paint-order="stroke fill markers" d=" M 53 180 A 3 3 0 1 1 52.999998500000125 179.9970000005 Z"/><path fill="black" stroke="none" paint-order="stroke fill markers" d=" M 213 200 A 3 3 0 1 1 212.99999850000012 199.9970000005 Z"/><path fill="black" stroke="none" paint-order="stroke fill markers" d=" M 213 170 A 3 3 0 1 1 212.99999850000012 169.9970000005 Z"/><path fill="green" stroke="none" paint-order="stroke fill markers" d=" M 223 210 A 3 3 0 1 1 222.99999850000012 209.9970000005 Z"/><path fill="green" stroke="none" paint-order="stroke fill markers" d=" M 223 370 A 3 3 0 1 1 222.99999850000012 369.9970000005 Z"/><path fill="green" stroke="none" paint-order="stroke fill markers" d=" M 243 230 A 3 3 0 1 1 242.99999850000012 229.9970000005 Z"/><path fill="green" stroke="none" paint-order="stroke fill markers" d=" M 323 370 A 3 3 0 1 1 322.9999985000001 369.9970000005 Z"/><path fill="green" stroke="none" paint-order="stroke fill markers" d=" M 243 330 A 3 3 0 1 1 242.99999850000012 329.9970000005 Z"/><path fill="green" stroke="none" paint-order="stroke fill markers" d=" M 323 330 A 3 3 0 1 1 322.9999985000001 329.9970000005 Z"/></g></svg>