<svg version="1.1" xmlns="http://www.w3.org/2000/svg" xmlns:xlink="http://www.w3.org/1999/xlink" width="1102.40001642704" height="648.0000096559525"><defs/><g><rect fill="#FFFFFF" stroke="none" x="0" y="0" width="320" height="300"/><path fill="white" stroke="none" paint-order="stroke fill markers" d=" M 0 0 L 320.40234375 0 L 320.40234375 300 L 0 300 L 0 0 Z"/><path fill="none" stroke="none"/><text fill="black" stroke="none" font-family="Georgia" font-size="14px" font-style="normal" font-weight="normal" text-decoration="normal" x="60" y="65" text-anchor="start" dominant-baseline="alphabetic">HalfAdder</text><path fill="none" stroke="none"/><text fill="black" stroke="none" font-family="Georgia" font-size="14px" font-style="normal" font-weight="normal" text-decoration="normal" x="60" y="95" text-anchor="start" dominant-baseline="alphabetic"> * Computes the sum of two bits.</text><path fill="white" stroke="rgb(0,0,0)" paint-order="fill stroke markers" d=" M 170 200 C 180 200 195 210 200 220 C 195 230 180 240 170 240 C 180 220 180 220 170 200 Z" stroke-opacity="1" stroke-miterlimit="10" stroke-width="3" stroke-dasharray=""/><path fill="none" stroke="rgb(0,0,0)" paint-order="fill stroke markers" d=" M 160.19463130731182 200.27457514062633 A 25 25 0 0 1 160.19463130731182 240.72542485937367" stroke-opacity="1" stroke-miterlimit="10" stroke-width="3" stroke-dasharray=""/><path fill="white" stroke="black" paint-order="fill stroke markers" d=" M 170.5 150.5 L 180.5 150.5 L 180.5 150.5 A 20 20 0 0 1 180.5 190.5 L 170.5 190.5 L 170.5 150.5 Z" stroke-miterlimit="10" stroke-width="3" stroke-dasharray=""/><path fill="none" stroke="none"/><text fill="black" stroke="none" font-family="Georgia" font-size="14px" font-style="normal" font-weight="normal" text-decoration="normal" x="70" y="215" text-anchor="end" dominant-baseline="alphabetic">sum</text><path fill="white" stroke="blue" paint-order="fill stroke markers" d=" M 80.5 200.5 L 100.5 200.5 L 100.5 220.5 L 80.5 220.5 L 80.5 200.5 Z" stroke-miterlimit="10" stroke-width="3" stroke-dasharray=""/><path fill="none" stroke="none"/><text fill="green" stroke="none" font-family="Georgia" font-size="20px" font-style="normal" font-weight="normal" text-decoration="normal" x="90" y="215" text-anchor="middle" dominant-baseline="alphabetic">0</text><path fill="none" stroke="none"/><text fill="black" stroke="none" font-family="Georgia" font-size="14px" font-style="normal" font-weight="normal" text-decoration="normal" x="40" y="135" text-anchor="end" dominant-baseline="alphabetic">carry</text><path fill="white" stroke="blue" paint-order="fill stroke markers" d=" M 50.5 120.5 L 70.5 120.5 L 70.5 140.5 L 50.5 140.5 L 50.5 120.5 Z" stroke-miterlimit="10" stroke-width="3" stroke-dasharray=""/><path fill="none" stroke="none"/><text fill="green" stroke="none" font-family="Georgia" font-size="20px" font-style="normal" font-weight="normal" text-decoration="normal" x="60" y="135" text-anchor="middle" dominant-baseline="alphabetic">0</text><path fill="white" stroke="black" paint-order="fill stroke markers" d=" M 80.5 150.5 L 100.5 150.5 L 100.5 170.5 L 80.5 170.5 L 80.5 150.5 Z" stroke-miterlimit="10" stroke-width="3" stroke-dasharray=""/><path fill="none" stroke="none"/><text fill="black" stroke="none" font-family="Georgia" font-size="14px" font-style="normal" font-weight="normal" text-decoration="normal" x="70" y="165" text-anchor="end" dominant-baseline="alphabetic">a</text><path fill="none" stroke="none"/><path fill="none" stroke="none"/><text fill="green" stroke="none" font-family="Georgia" font-size="20px" font-style="normal" font-weight="normal" text-decoration="normal" x="90" y="165" text-anchor="middle" dominant-baseline="alphabetic">0</text><path fill="white" stroke="black" paint-order="fill stroke markers" d=" M 80.5 170.5 L 100.5 170.5 L 100.5 190.5 L 80.5 190.5 L 80.5 170.5 Z" stroke-miterlimit="10" stroke-width="3" stroke-dasharray=""/><path fill="none" stroke="none"/><text fill="black" stroke="none" font-family="Georgia" font-size="14px" font-style="normal" font-weight="normal" text-decoration="normal" x="70" y="185" text-anchor="end" dominant-baseline="alphabetic">b</text><path fill="none" stroke="none"/><path fill="none" stroke="none"/><text fill="green" stroke="none" font-family="Georgia" font-size="20px" font-style="normal" font-weight="normal" text-decoration="normal" x="90" y="185" text-anchor="middle" dominant-baseline="alphabetic">0</text><path fill="none" stroke="DarkGreen" paint-order="fill stroke markers" d=" M 100 160.5 L 120 160.5" stroke-linecap="round" stroke-miterlimit="10" stroke-width="3" stroke-dasharray=""/><path fill="none" stroke="DarkGreen" paint-order="fill stroke markers" d=" M 100 180.5 L 140 180.5" stroke-linecap="round" stroke-miterlimit="10" stroke-width="3" stroke-dasharray=""/><path fill="none" stroke="DarkGreen" paint-order="fill stroke markers" d=" M 90.5 220 L 90.5 250" stroke-linecap="round" stroke-miterlimit="10" stroke-width="3" stroke-dasharray=""/><path fill="none" stroke="DarkGreen" paint-order="fill stroke markers" d=" M 70 130.5 L 210 130.5" stroke-linecap="round" stroke-miterlimit="10" stroke-width="3" stroke-dasharray=""/><path fill="none" stroke="DarkGreen" paint-order="fill stroke markers" d=" M 140.5 210 L 140.5 180" stroke-linecap="round" stroke-miterlimit="10" stroke-width="3" stroke-dasharray=""/><path fill="none" stroke="DarkGreen" paint-order="fill stroke markers" d=" M 140 210.5 L 160 210.5" stroke-linecap="round" stroke-miterlimit="10" stroke-width="3" stroke-dasharray=""/><path fill="none" stroke="DarkGreen" paint-order="fill stroke markers" d=" M 120.5 230 L 120.5 160" stroke-linecap="round" stroke-miterlimit="10" stroke-width="3" stroke-dasharray=""/><path fill="none" stroke="DarkGreen" paint-order="fill stroke markers" d=" M 120 230.5 L 160 230.5" stroke-linecap="round" stroke-miterlimit="10" stroke-width="3" stroke-dasharray=""/><path fill="none" stroke="DarkGreen" paint-order="fill stroke markers" d=" M 140 180.5 L 170 180.5" stroke-linecap="round" stroke-miterlimit="10" stroke-width="3" stroke-dasharray=""/><path fill="none" stroke="DarkGreen" paint-order="fill stroke markers" d=" M 120 160.5 L 170 160.5" stroke-linecap="round" stroke-miterlimit="10" stroke-width="3" stroke-dasharray=""/><path fill="none" stroke="DarkGreen" paint-order="fill stroke markers" d=" M 200 170.5 L 210 170.5" stroke-linecap="round" stroke-miterlimit="10" stroke-width="3" stroke-dasharray=""/><path fill="none" stroke="DarkGreen" paint-order="fill stroke markers" d=" M 200 220.5 L 210 220.5" stroke-linecap="round" stroke-miterlimit="10" stroke-width="3" stroke-dasharray=""/><path fill="none" stroke="DarkGreen" paint-order="fill stroke markers" d=" M 210.5 170 L 210.5 130" stroke-linecap="round" stroke-miterlimit="10" stroke-width="3" stroke-dasharray=""/><path fill="none" stroke="DarkGreen" paint-order="fill stroke markers" d=" M 210.5 220 L 210.5 250" stroke-linecap="round" stroke-miterlimit="10" stroke-width="3" stroke-dasharray=""/><path fill="none" stroke="DarkGreen" paint-order="fill stroke markers" d=" M 210 250.5 L 90 250.5" stroke-linecap="round" stroke-miterlimit="10" stroke-width="3" stroke-dasharray=""/><path fill="green" stroke="none" paint-order="stroke fill markers" d=" M 103 160 A 3 3 0 1 1 102.99999850000013 159.9970000005 Z"/><path fill="green" stroke="none" paint-order="stroke fill markers" d=" M 103 180 A 3 3 0 1 1 102.99999850000013 179.9970000005 Z"/><path fill="green" stroke="none" paint-order="stroke fill markers" d=" M 93 220 A 3 3 0 1 1 92.99999850000013 219.9970000005 Z"/><path fill="green" stroke="none" paint-order="stroke fill markers" d=" M 73 130 A 3 3 0 1 1 72.99999850000013 129.9970000005 Z"/><path fill="green" stroke="none" paint-order="stroke fill markers" d=" M 143 210 A 3 3 0 1 1 142.99999850000012 209.9970000005 Z"/><path fill="green" stroke="none" paint-order="stroke fill markers" d=" M 123 230 A 3 3 0 1 1 122.99999850000013 229.9970000005 Z"/><path fill="green" stroke="none" paint-order="stroke fill markers" d=" M 143 180 A 3 3 0 1 1 142.99999850000012 179.9970000005 Z"/><path fill="green" stroke="none" paint-order="stroke fill markers" d=" M 123 160 A 3 3 0 1 1 122.99999850000013 159.9970000005 Z"/><path fill="green" stroke="none" paint-order="stroke fill markers" d=" M 173 160 A 3 3 0 1 1 172.99999850000012 159.9970000005 Z"/><path fill="green" stroke="none" paint-order="stroke fill markers" d=" M 173 180 A 3 3 0 1 1 172.99999850000012 179.9970000005 Z"/><path fill="green" stroke="none" paint-order="stroke fill markers" d=" M 203 170 A 3 3 0 1 1 202.99999850000012 169.9970000005 Z"/><path fill="green" stroke="none" paint-order="stroke fill markers" d=" M 163 210 A 3 3 0 1 1 162.99999850000012 209.9970000005 Z"/><path fill="green" stroke="none" paint-order="stroke fill markers" d=" M 163 230 A 3 3 0 1 1 162.99999850000012 229.9970000005 Z"/><path fill="green" stroke="none" paint-order="stroke fill markers" d=" M 203 220 A 3 3 0 1 1 202.99999850000012 219.9970000005 Z"/><path fill="green" stroke="none" paint-order="stroke fill markers" d=" M 213 170 A 3 3 0 1 1 212.99999850000012 169.9970000005 Z"/><path fill="green" stroke="none" paint-order="stroke fill markers" d=" M 213 220 A 3 3 0 1 1 212.99999850000012 219.9970000005 Z"/><path fill="green" stroke="none" paint-order="stroke fill markers" d=" M 213 250 A 3 3 0 1 1 212.99999850000012 249.9970000005 Z"/><path fill="green" stroke="none" paint-order="stroke fill markers" d=" M 93 250 A 3 3 0 1 1 92.99999850000013 249.9970000005 Z"/><path fill="green" stroke="none" paint-order="stroke fill markers" d=" M 213 130 A 3 3 0 1 1 212.99999850000012 129.9970000005 Z"/></g></svg>