<svg version="1.1" xmlns="http://www.w3.org/2000/svg" xmlns:xlink="http://www.w3.org/1999/xlink" width="1036" height="594"><defs/><g><rect fill="#FFFFFF" stroke="none" x="0" y="0" width="350" height="330"/><path fill="white" stroke="none" paint-order="stroke fill markers" d=" M 0 0 L 350 0 L 350 330 L 0 330 L 0 0 Z"/><path fill="none" stroke="none"/><text fill="black" stroke="none" font-family="Georgia" font-size="14px" font-style="normal" font-weight="normal" text-decoration="normal" x="60" y="155" text-anchor="start" dominant-baseline="alphabetic">Mux</text><path fill="none" stroke="none"/><text fill="black" stroke="none" font-family="Georgia" font-size="14px" font-style="normal" font-weight="normal" text-decoration="normal" x="60" y="65" text-anchor="start" dominant-baseline="alphabetic"> * Multiplexor:</text><path fill="none" stroke="none"/><text fill="black" stroke="none" font-family="Georgia" font-size="14px" font-style="normal" font-weight="normal" text-decoration="normal" x="60" y="85" text-anchor="start" dominant-baseline="alphabetic"> * out = a if sel == 0</text><path fill="none" stroke="none"/><text fill="black" stroke="none" font-family="Georgia" font-size="14px" font-style="normal" font-weight="normal" text-decoration="normal" x="60" y="105" text-anchor="start" dominant-baseline="alphabetic"> *       b otherwise</text><path fill="white" stroke="black" paint-order="fill stroke markers" d=" M 160.5 240.5 L 170.5 240.5 L 170.5 240.5 A 20 20 0 0 1 170.5 280.5 L 160.5 280.5 L 160.5 240.5 Z" stroke-miterlimit="10" stroke-width="3" stroke-dasharray=""/><path fill="white" stroke="black" paint-order="fill stroke markers" d=" M 160.5 180.5 L 170.5 180.5 L 170.5 180.5 A 20 20 0 0 1 170.5 220.5 L 160.5 220.5 L 160.5 180.5 Z" stroke-miterlimit="10" stroke-width="3" stroke-dasharray=""/><path fill="white" stroke="rgb(0,0,0)" paint-order="fill stroke markers" d=" M 230 210 C 240 210 255 220 260 230 C 255 240 240 250 230 250 C 240 230 240 230 230 210 Z" stroke-opacity="1" stroke-miterlimit="10" stroke-width="3" stroke-dasharray=""/><path fill="white" stroke="black" paint-order="fill stroke markers" d=" M 110.5 200.5 L 130.5 210.5 L 110.5 220.5 Z" stroke-miterlimit="10" stroke-width="3" stroke-dasharray=""/><path fill="none" stroke="black" paint-order="fill stroke markers" d=" M 140 210 A 5 5 0 1 1 139.9999975000002 209.99500000083333" stroke-miterlimit="10" stroke-width="3" stroke-dasharray=""/><path fill="none" stroke="none"/><text fill="black" stroke="none" font-family="Georgia" font-size="14px" font-style="normal" font-weight="normal" text-decoration="normal" x="310" y="235" text-anchor="start" dominant-baseline="alphabetic">out</text><path fill="white" stroke="blue" paint-order="fill stroke markers" d=" M 280.5 220.5 L 300.5 220.5 L 300.5 240.5 L 280.5 240.5 L 280.5 220.5 Z" stroke-miterlimit="10" stroke-width="3" stroke-dasharray=""/><path fill="none" stroke="none"/><text fill="green" stroke="none" font-family="Georgia" font-size="20px" font-style="normal" font-weight="normal" text-decoration="normal" x="290" y="235" text-anchor="middle" dominant-baseline="alphabetic">0</text><path fill="white" stroke="black" paint-order="fill stroke markers" d=" M 50.5 180.5 L 70.5 180.5 L 70.5 200.5 L 50.5 200.5 L 50.5 180.5 Z" stroke-miterlimit="10" stroke-width="3" stroke-dasharray=""/><path fill="none" stroke="none"/><text fill="black" stroke="none" font-family="Georgia" font-size="14px" font-style="normal" font-weight="normal" text-decoration="normal" x="40" y="195" text-anchor="end" dominant-baseline="alphabetic">a</text><path fill="none" stroke="none"/><path fill="none" stroke="none"/><text fill="green" stroke="none" font-family="Georgia" font-size="20px" font-style="normal" font-weight="normal" text-decoration="normal" x="60" y="195" text-anchor="middle" dominant-baseline="alphabetic">0</text><path fill="white" stroke="black" paint-order="fill stroke markers" d=" M 50.5 260.5 L 70.5 260.5 L 70.5 280.5 L 50.5 280.5 L 50.5 260.5 Z" stroke-miterlimit="10" stroke-width="3" stroke-dasharray=""/><path fill="none" stroke="none"/><text fill="black" stroke="none" font-family="Georgia" font-size="14px" font-style="normal" font-weight="normal" text-decoration="normal" x="40" y="275" text-anchor="end" dominant-baseline="alphabetic">b</text><path fill="none" stroke="none"/><path fill="none" stroke="none"/><text fill="green" stroke="none" font-family="Georgia" font-size="20px" font-style="normal" font-weight="normal" text-decoration="normal" x="60" y="275" text-anchor="middle" dominant-baseline="alphabetic">1</text><path fill="white" stroke="black" paint-order="fill stroke markers" d=" M 50.5 220.5 L 70.5 220.5 L 70.5 240.5 L 50.5 240.5 L 50.5 220.5 Z" stroke-miterlimit="10" stroke-width="3" stroke-dasharray=""/><path fill="none" stroke="none"/><text fill="black" stroke="none" font-family="Georgia" font-size="14px" font-style="normal" font-weight="normal" text-decoration="normal" x="40" y="235" text-anchor="end" dominant-baseline="alphabetic">sel</text><path fill="none" stroke="none"/><path fill="none" stroke="none"/><text fill="green" stroke="none" font-family="Georgia" font-size="20px" font-style="normal" font-weight="normal" text-decoration="normal" x="60" y="235" text-anchor="middle" dominant-baseline="alphabetic">0</text><path fill="none" stroke="DarkGreen" paint-order="fill stroke markers" d=" M 70 190.5 L 160 190.5" stroke-linecap="round" stroke-miterlimit="10" stroke-width="3" stroke-dasharray=""/><path fill="none" stroke="Lime" paint-order="fill stroke markers" d=" M 70 270.5 L 160 270.5" stroke-linecap="round" stroke-miterlimit="10" stroke-width="3" stroke-dasharray=""/><path fill="none" stroke="DarkGreen" paint-order="fill stroke markers" d=" M 70 230.5 L 90 230.5" stroke-linecap="round" stroke-miterlimit="10" stroke-width="3" stroke-dasharray=""/><path fill="none" stroke="DarkGreen" paint-order="fill stroke markers" d=" M 90.5 230 L 90.5 210" stroke-linecap="round" stroke-miterlimit="10" stroke-width="3" stroke-dasharray=""/><path fill="none" stroke="DarkGreen" paint-order="fill stroke markers" d=" M 90.5 230 L 90.5 250" stroke-linecap="round" stroke-miterlimit="10" stroke-width="3" stroke-dasharray=""/><path fill="none" stroke="DarkGreen" paint-order="fill stroke markers" d=" M 90 210.5 L 110 210.5" stroke-linecap="round" stroke-miterlimit="10" stroke-width="3" stroke-dasharray=""/><path fill="none" stroke="DarkGreen" paint-order="fill stroke markers" d=" M 210 200.5 L 190 200.5" stroke-linecap="round" stroke-miterlimit="10" stroke-width="3" stroke-dasharray=""/><path fill="none" stroke="DarkGreen" paint-order="fill stroke markers" d=" M 210.5 200 L 210.5 220" stroke-linecap="round" stroke-miterlimit="10" stroke-width="3" stroke-dasharray=""/><path fill="none" stroke="DarkGreen" paint-order="fill stroke markers" d=" M 90 250.5 L 160 250.5" stroke-linecap="round" stroke-miterlimit="10" stroke-width="3" stroke-dasharray=""/><path fill="none" stroke="DarkGreen" paint-order="fill stroke markers" d=" M 190 260.5 L 210 260.5" stroke-linecap="round" stroke-miterlimit="10" stroke-width="3" stroke-dasharray=""/><path fill="none" stroke="DarkGreen" paint-order="fill stroke markers" d=" M 210.5 260 L 210.5 240" stroke-linecap="round" stroke-miterlimit="10" stroke-width="3" stroke-dasharray=""/><path fill="none" stroke="DarkGreen" paint-order="fill stroke markers" d=" M 230 220.5 L 210 220.5" stroke-linecap="round" stroke-miterlimit="10" stroke-width="3" stroke-dasharray=""/><path fill="none" stroke="DarkGreen" paint-order="fill stroke markers" d=" M 230 240.5 L 210 240.5" stroke-linecap="round" stroke-miterlimit="10" stroke-width="3" stroke-dasharray=""/><path fill="none" stroke="DarkGreen" paint-order="fill stroke markers" d=" M 260 230.5 L 280 230.5" stroke-linecap="round" stroke-miterlimit="10" stroke-width="3" stroke-dasharray=""/><path fill="none" stroke="Lime" paint-order="fill stroke markers" d=" M 160 210.5 L 140 210.5" stroke-linecap="round" stroke-miterlimit="10" stroke-width="3" stroke-dasharray=""/><path fill="green" stroke="none" paint-order="stroke fill markers" d=" M 73 190 A 3 3 0 1 1 72.99999850000013 189.9970000005 Z"/><path fill="green" stroke="none" paint-order="stroke fill markers" d=" M 73 270 A 3 3 0 1 1 72.99999850000013 269.9970000005 Z"/><path fill="green" stroke="none" paint-order="stroke fill markers" d=" M 73 230 A 3 3 0 1 1 72.99999850000013 229.9970000005 Z"/><path fill="green" stroke="none" paint-order="stroke fill markers" d=" M 93 230 A 3 3 0 1 1 92.99999850000013 229.9970000005 Z"/><path fill="green" stroke="none" paint-order="stroke fill markers" d=" M 93 210 A 3 3 0 1 1 92.99999850000013 209.9970000005 Z"/><path fill="green" stroke="none" paint-order="stroke fill markers" d=" M 213 200 A 3 3 0 1 1 212.99999850000012 199.9970000005 Z"/><path fill="green" stroke="none" paint-order="stroke fill markers" d=" M 93 250 A 3 3 0 1 1 92.99999850000013 249.9970000005 Z"/><path fill="green" stroke="none" paint-order="stroke fill markers" d=" M 163 250 A 3 3 0 1 1 162.99999850000012 249.9970000005 Z"/><path fill="green" stroke="none" paint-order="stroke fill markers" d=" M 163 270 A 3 3 0 1 1 162.99999850000012 269.9970000005 Z"/><path fill="green" stroke="none" paint-order="stroke fill markers" d=" M 193 260 A 3 3 0 1 1 192.99999850000012 259.9970000005 Z"/><path fill="green" stroke="none" paint-order="stroke fill markers" d=" M 213 260 A 3 3 0 1 1 212.99999850000012 259.9970000005 Z"/><path fill="green" stroke="none" paint-order="stroke fill markers" d=" M 233 220 A 3 3 0 1 1 232.99999850000012 219.9970000005 Z"/><path fill="green" stroke="none" paint-order="stroke fill markers" d=" M 233 240 A 3 3 0 1 1 232.99999850000012 239.9970000005 Z"/><path fill="green" stroke="none" paint-order="stroke fill markers" d=" M 263 230 A 3 3 0 1 1 262.9999985000001 229.9970000005 Z"/><path fill="green" stroke="none" paint-order="stroke fill markers" d=" M 163 190 A 3 3 0 1 1 162.99999850000012 189.9970000005 Z"/><path fill="green" stroke="none" paint-order="stroke fill markers" d=" M 163 210 A 3 3 0 1 1 162.99999850000012 209.9970000005 Z"/><path fill="green" stroke="none" paint-order="stroke fill markers" d=" M 193 200 A 3 3 0 1 1 192.99999850000012 199.9970000005 Z"/><path fill="green" stroke="none" paint-order="stroke fill markers" d=" M 113 210 A 3 3 0 1 1 112.99999850000013 209.9970000005 Z"/><path fill="green" stroke="none" paint-order="stroke fill markers" d=" M 143 210 A 3 3 0 1 1 142.99999850000012 209.9970000005 Z"/><path fill="green" stroke="none" paint-order="stroke fill markers" d=" M 213 220 A 3 3 0 1 1 212.99999850000012 219.9970000005 Z"/><path fill="green" stroke="none" paint-order="stroke fill markers" d=" M 213 240 A 3 3 0 1 1 212.99999850000012 239.9970000005 Z"/><path fill="green" stroke="none" paint-order="stroke fill markers" d=" M 283 230 A 3 3 0 1 1 282.9999985000001 229.9970000005 Z"/></g></svg>