<svg version="1.1" xmlns="http://www.w3.org/2000/svg" xmlns:xlink="http://www.w3.org/1999/xlink" width="1036" height="594"><defs/><g><rect fill="#FFFFFF" stroke="none" x="0" y="0" width="210" height="180"/><path fill="white" stroke="none" paint-order="stroke fill markers" d=" M 0 0 L 210 0 L 210 180 L 0 180 L 0 0 Z"/><path fill="none" stroke="none"/><text fill="black" stroke="none" font-family="Georgia" font-size="14px" font-style="normal" font-weight="normal" text-decoration="normal" x="60" y="65" text-anchor="start" dominant-baseline="alphabetic">Not</text><path fill="white" stroke="black" paint-order="fill stroke markers" d=" M 90.5 90.5 L 100.5 90.5 L 100.5 90.5 A 20 20 0 0 1 100.5 130.5 L 90.5 130.5 L 90.5 90.5 Z" stroke-miterlimit="10" stroke-width="3" stroke-dasharray=""/><path fill="none" stroke="black" paint-order="fill stroke markers" d=" M 130 110 A 5 5 0 1 1 129.9999975000002 109.99500000083333" stroke-miterlimit="10" stroke-width="3" stroke-dasharray=""/><path fill="none" stroke="none"/><text fill="black" stroke="none" font-family="Georgia" font-size="14px" font-style="normal" font-weight="normal" text-decoration="normal" x="170" y="115" text-anchor="start" dominant-baseline="alphabetic">out</text><path fill="white" stroke="blue" paint-order="fill stroke markers" d=" M 140.5 100.5 L 160.5 100.5 L 160.5 120.5 L 140.5 120.5 L 140.5 100.5 Z" stroke-miterlimit="10" stroke-width="3" stroke-dasharray=""/><path fill="none" stroke="none"/><text fill="green" stroke="none" font-family="Georgia" font-size="20px" font-style="normal" font-weight="normal" text-decoration="normal" x="150" y="115" text-anchor="middle" dominant-baseline="alphabetic">0</text><path fill="white" stroke="black" paint-order="fill stroke markers" d=" M 50.5 100.5 L 70.5 100.5 L 70.5 120.5 L 50.5 120.5 L 50.5 100.5 Z" stroke-miterlimit="10" stroke-width="3" stroke-dasharray=""/><path fill="none" stroke="none"/><text fill="black" stroke="none" font-family="Georgia" font-size="14px" font-style="normal" font-weight="normal" text-decoration="normal" x="40" y="115" text-anchor="end" dominant-baseline="alphabetic">in</text><path fill="none" stroke="none"/><path fill="none" stroke="none"/><text fill="green" stroke="none" font-family="Georgia" font-size="20px" font-style="normal" font-weight="normal" text-decoration="normal" x="60" y="115" text-anchor="middle" dominant-baseline="alphabetic">1</text><path fill="none" stroke="Lime" paint-order="fill stroke markers" d=" M 90 100.5 L 80 100.5" stroke-linecap="round" stroke-miterlimit="10" stroke-width="3" stroke-dasharray=""/><path fill="none" stroke="Lime" paint-order="fill stroke markers" d=" M 90 120.5 L 80 120.5" stroke-linecap="round" stroke-miterlimit="10" stroke-width="3" stroke-dasharray=""/><path fill="none" stroke="DarkGreen" paint-order="fill stroke markers" d=" M 130 110.5 L 140 110.5" stroke-linecap="round" stroke-miterlimit="10" stroke-width="3" stroke-dasharray=""/><path fill="none" stroke="Lime" paint-order="fill stroke markers" d=" M 70 110.5 L 80 110.5" stroke-linecap="round" stroke-miterlimit="10" stroke-width="3" stroke-dasharray=""/><path fill="none" stroke="Lime" paint-order="fill stroke markers" d=" M 80.5 110 L 80.5 100" stroke-linecap="round" stroke-miterlimit="10" stroke-width="3" stroke-dasharray=""/><path fill="none" stroke="Lime" paint-order="fill stroke markers" d=" M 80.5 110 L 80.5 120" stroke-linecap="round" stroke-miterlimit="10" stroke-width="3" stroke-dasharray=""/><path fill="green" stroke="none" paint-order="stroke fill markers" d=" M 93 100 A 3 3 0 1 1 92.99999850000013 99.9970000005 Z"/><path fill="green" stroke="none" paint-order="stroke fill markers" d=" M 93 120 A 3 3 0 1 1 92.99999850000013 119.9970000005 Z"/><path fill="green" stroke="none" paint-order="stroke fill markers" d=" M 133 110 A 3 3 0 1 1 132.99999850000012 109.9970000005 Z"/><path fill="green" stroke="none" paint-order="stroke fill markers" d=" M 143 110 A 3 3 0 1 1 142.99999850000012 109.9970000005 Z"/><path fill="green" stroke="none" paint-order="stroke fill markers" d=" M 73 110 A 3 3 0 1 1 72.99999850000013 109.9970000005 Z"/><path fill="lightgreen" stroke="none" paint-order="stroke fill markers" d=" M 83 110 A 3 3 0 1 1 82.99999850000013 109.9970000005 Z"/><path fill="lightgreen" stroke="none" paint-order="stroke fill markers" d=" M 83 100 A 3 3 0 1 1 82.99999850000013 99.9970000005 Z"/><path fill="lightgreen" stroke="none" paint-order="stroke fill markers" d=" M 83 120 A 3 3 0 1 1 82.99999850000013 119.9970000005 Z"/></g></svg>