<svg version="1.1" xmlns="http://www.w3.org/2000/svg" xmlns:xlink="http://www.w3.org/1999/xlink" width="1036" height="594"><defs/><g><rect fill="#FFFFFF" stroke="none" x="0" y="0" width="410" height="245"/><path fill="white" stroke="none" paint-order="stroke fill markers" d=" M 0 0 L 410 0 L 410 245 L 0 245 L 0 0 Z"/><path fill="none" stroke="none"/><text fill="black" stroke="none" font-family="Georgia" font-size="14px" font-style="normal" font-weight="normal" text-decoration="normal" x="60" y="65" text-anchor="start" dominant-baseline="alphabetic">Xor</text><path fill="white" stroke="black" paint-order="fill stroke markers" d=" M 290.5 120.5 L 300.5 120.5 L 300.5 120.5 A 20 20 0 0 1 300.5 160.5 L 290.5 160.5 L 290.5 120.5 Z" stroke-miterlimit="10" stroke-width="3" stroke-dasharray=""/><path fill="white" stroke="rgb(0,0,0)" paint-order="fill stroke markers" d=" M 220 90 C 230 90 245 100 250 110 C 245 120 230 130 220 130 C 230 110 230 110 220 90 Z" stroke-opacity="1" stroke-miterlimit="10" stroke-width="3" stroke-dasharray=""/><path fill="white" stroke="rgb(0,0,0)" paint-order="fill stroke markers" d=" M 220 150 C 230 150 245 160 250 170 C 245 180 230 190 220 190 C 230 170 230 170 220 150 Z" stroke-opacity="1" stroke-miterlimit="10" stroke-width="3" stroke-dasharray=""/><path fill="white" stroke="black" paint-order="fill stroke markers" d=" M 170.5 150.5 L 190.5 160.5 L 170.5 170.5 Z" stroke-miterlimit="10" stroke-width="3" stroke-dasharray=""/><path fill="none" stroke="black" paint-order="fill stroke markers" d=" M 200 160 A 5 5 0 1 1 199.9999975000002 159.99500000083333" stroke-miterlimit="10" stroke-width="3" stroke-dasharray=""/><path fill="white" stroke="black" paint-order="fill stroke markers" d=" M 170.5 170.5 L 190.5 180.5 L 170.5 190.5 Z" stroke-miterlimit="10" stroke-width="3" stroke-dasharray=""/><path fill="none" stroke="black" paint-order="fill stroke markers" d=" M 200 180 A 5 5 0 1 1 199.9999975000002 179.99500000083333" stroke-miterlimit="10" stroke-width="3" stroke-dasharray=""/><path fill="none" stroke="none"/><text fill="black" stroke="none" font-family="Georgia" font-size="14px" font-style="normal" font-weight="normal" text-decoration="normal" x="370" y="145" text-anchor="start" dominant-baseline="alphabetic">out</text><path fill="white" stroke="blue" paint-order="fill stroke markers" d=" M 340.5 130.5 L 360.5 130.5 L 360.5 150.5 L 340.5 150.5 L 340.5 130.5 Z" stroke-miterlimit="10" stroke-width="3" stroke-dasharray=""/><path fill="none" stroke="none"/><text fill="green" stroke="none" font-family="Georgia" font-size="20px" font-style="normal" font-weight="normal" text-decoration="normal" x="350" y="145" text-anchor="middle" dominant-baseline="alphabetic">1</text><path fill="white" stroke="black" paint-order="fill stroke markers" d=" M 50.5 90.5 L 70.5 90.5 L 70.5 110.5 L 50.5 110.5 L 50.5 90.5 Z" stroke-miterlimit="10" stroke-width="3" stroke-dasharray=""/><path fill="none" stroke="none"/><text fill="black" stroke="none" font-family="Georgia" font-size="14px" font-style="normal" font-weight="normal" text-decoration="normal" x="60" y="125" text-anchor="middle" dominant-baseline="alphabetic">a</text><path fill="none" stroke="none"/><path fill="none" stroke="none"/><text fill="green" stroke="none" font-family="Georgia" font-size="20px" font-style="normal" font-weight="normal" text-decoration="normal" x="60" y="105" text-anchor="middle" dominant-baseline="alphabetic">0</text><path fill="white" stroke="black" paint-order="fill stroke markers" d=" M 110.5 110.5 L 130.5 110.5 L 130.5 130.5 L 110.5 130.5 L 110.5 110.5 Z" stroke-miterlimit="10" stroke-width="3" stroke-dasharray=""/><path fill="none" stroke="none"/><text fill="black" stroke="none" font-family="Georgia" font-size="14px" font-style="normal" font-weight="normal" text-decoration="normal" x="120" y="145" text-anchor="middle" dominant-baseline="alphabetic">b</text><path fill="none" stroke="none"/><path fill="none" stroke="none"/><text fill="green" stroke="none" font-family="Georgia" font-size="20px" font-style="normal" font-weight="normal" text-decoration="normal" x="120" y="125" text-anchor="middle" dominant-baseline="alphabetic">1</text><path fill="none" stroke="DarkGreen" paint-order="fill stroke markers" d=" M 220 100.5 L 90 100.5" stroke-linecap="round" stroke-miterlimit="10" stroke-width="3" stroke-dasharray=""/><path fill="none" stroke="Lime" paint-order="fill stroke markers" d=" M 220 120.5 L 150 120.5" stroke-linecap="round" stroke-miterlimit="10" stroke-width="3" stroke-dasharray=""/><path fill="none" stroke="Lime" paint-order="fill stroke markers" d=" M 250 110.5 L 270 110.5" stroke-linecap="round" stroke-miterlimit="10" stroke-width="3" stroke-dasharray=""/><path fill="none" stroke="Lime" paint-order="fill stroke markers" d=" M 220 160.5 L 200 160.5" stroke-linecap="round" stroke-miterlimit="10" stroke-width="3" stroke-dasharray=""/><path fill="none" stroke="DarkGreen" paint-order="fill stroke markers" d=" M 220 180.5 L 200 180.5" stroke-linecap="round" stroke-miterlimit="10" stroke-width="3" stroke-dasharray=""/><path fill="none" stroke="Lime" paint-order="fill stroke markers" d=" M 250 170.5 L 270 170.5" stroke-linecap="round" stroke-miterlimit="10" stroke-width="3" stroke-dasharray=""/><path fill="none" stroke="Lime" paint-order="fill stroke markers" d=" M 290 130.5 L 270 130.5" stroke-linecap="round" stroke-miterlimit="10" stroke-width="3" stroke-dasharray=""/><path fill="none" stroke="Lime" paint-order="fill stroke markers" d=" M 290 150.5 L 270 150.5" stroke-linecap="round" stroke-miterlimit="10" stroke-width="3" stroke-dasharray=""/><path fill="none" stroke="Lime" paint-order="fill stroke markers" d=" M 320 140.5 L 340 140.5" stroke-linecap="round" stroke-miterlimit="10" stroke-width="3" stroke-dasharray=""/><path fill="none" stroke="DarkGreen" paint-order="fill stroke markers" d=" M 70 100.5 L 90 100.5" stroke-linecap="round" stroke-miterlimit="10" stroke-width="3" stroke-dasharray=""/><path fill="none" stroke="Lime" paint-order="fill stroke markers" d=" M 130 120.5 L 150 120.5" stroke-linecap="round" stroke-miterlimit="10" stroke-width="3" stroke-dasharray=""/><path fill="none" stroke="DarkGreen" paint-order="fill stroke markers" d=" M 90 160.5 L 170 160.5" stroke-linecap="round" stroke-miterlimit="10" stroke-width="3" stroke-dasharray=""/><path fill="none" stroke="DarkGreen" paint-order="fill stroke markers" d=" M 90.5 160 L 90.5 100" stroke-linecap="round" stroke-miterlimit="10" stroke-width="3" stroke-dasharray=""/><path fill="none" stroke="Lime" paint-order="fill stroke markers" d=" M 150 180.5 L 170 180.5" stroke-linecap="round" stroke-miterlimit="10" stroke-width="3" stroke-dasharray=""/><path fill="none" stroke="Lime" paint-order="fill stroke markers" d=" M 150.5 180 L 150.5 120" stroke-linecap="round" stroke-miterlimit="10" stroke-width="3" stroke-dasharray=""/><path fill="none" stroke="Lime" paint-order="fill stroke markers" d=" M 270.5 110 L 270.5 130" stroke-linecap="round" stroke-miterlimit="10" stroke-width="3" stroke-dasharray=""/><path fill="none" stroke="Lime" paint-order="fill stroke markers" d=" M 270.5 170 L 270.5 150" stroke-linecap="round" stroke-miterlimit="10" stroke-width="3" stroke-dasharray=""/><path fill="green" stroke="none" paint-order="stroke fill markers" d=" M 223 100 A 3 3 0 1 1 222.99999850000012 99.9970000005 Z"/><path fill="green" stroke="none" paint-order="stroke fill markers" d=" M 223 120 A 3 3 0 1 1 222.99999850000012 119.9970000005 Z"/><path fill="green" stroke="none" paint-order="stroke fill markers" d=" M 253 110 A 3 3 0 1 1 252.99999850000012 109.9970000005 Z"/><path fill="green" stroke="none" paint-order="stroke fill markers" d=" M 223 160 A 3 3 0 1 1 222.99999850000012 159.9970000005 Z"/><path fill="green" stroke="none" paint-order="stroke fill markers" d=" M 223 180 A 3 3 0 1 1 222.99999850000012 179.9970000005 Z"/><path fill="green" stroke="none" paint-order="stroke fill markers" d=" M 253 170 A 3 3 0 1 1 252.99999850000012 169.9970000005 Z"/><path fill="green" stroke="none" paint-order="stroke fill markers" d=" M 293 130 A 3 3 0 1 1 292.9999985000001 129.9970000005 Z"/><path fill="green" stroke="none" paint-order="stroke fill markers" d=" M 293 150 A 3 3 0 1 1 292.9999985000001 149.9970000005 Z"/><path fill="green" stroke="none" paint-order="stroke fill markers" d=" M 323 140 A 3 3 0 1 1 322.9999985000001 139.9970000005 Z"/><path fill="green" stroke="none" paint-order="stroke fill markers" d=" M 73 100 A 3 3 0 1 1 72.99999850000013 99.9970000005 Z"/><path fill="green" stroke="none" paint-order="stroke fill markers" d=" M 133 120 A 3 3 0 1 1 132.99999850000012 119.9970000005 Z"/><path fill="green" stroke="none" paint-order="stroke fill markers" d=" M 93 160 A 3 3 0 1 1 92.99999850000013 159.9970000005 Z"/><path fill="lightgreen" stroke="none" paint-order="stroke fill markers" d=" M 153 180 A 3 3 0 1 1 152.99999850000012 179.9970000005 Z"/><path fill="lightgreen" stroke="none" paint-order="stroke fill markers" d=" M 273 110 A 3 3 0 1 1 272.9999985000001 109.9970000005 Z"/><path fill="lightgreen" stroke="none" paint-order="stroke fill markers" d=" M 273 170 A 3 3 0 1 1 272.9999985000001 169.9970000005 Z"/><path fill="lightgreen" stroke="none" paint-order="stroke fill markers" d=" M 273 150 A 3 3 0 1 1 272.9999985000001 149.9970000005 Z"/><path fill="lightgreen" stroke="none" paint-order="stroke fill markers" d=" M 273 130 A 3 3 0 1 1 272.9999985000001 129.9970000005 Z"/><path fill="green" stroke="none" paint-order="stroke fill markers" d=" M 173 160 A 3 3 0 1 1 172.99999850000012 159.9970000005 Z"/><path fill="green" stroke="none" paint-order="stroke fill markers" d=" M 203 160 A 3 3 0 1 1 202.99999850000012 159.9970000005 Z"/><path fill="green" stroke="none" paint-order="stroke fill markers" d=" M 173 180 A 3 3 0 1 1 172.99999850000012 179.9970000005 Z"/><path fill="green" stroke="none" paint-order="stroke fill markers" d=" M 203 180 A 3 3 0 1 1 202.99999850000012 179.9970000005 Z"/><path fill="green" stroke="none" paint-order="stroke fill markers" d=" M 343 140 A 3 3 0 1 1 342.9999985000001 139.9970000005 Z"/><path fill="green" stroke="none" paint-order="stroke fill markers" d=" M 93 100 A 3 3 0 1 1 92.99999850000013 99.9970000005 Z"/><path fill="lightgreen" stroke="none" paint-order="stroke fill markers" d=" M 153 120 A 3 3 0 1 1 152.99999850000012 119.9970000005 Z"/></g></svg>